norounding.ufo
<glyph name="dollar" format="1">
  <advance width="492.5"/>
  <unicode hex="0024"/>
  <outline>
    <contour>
      <point x="215.5" y="-140.0" type="line"/>
      <point x="309.5" y="-140.0" type="line"/>
      <point x="309.5" y="45.0" type="line"/>
      <point x="215.5" y="44.0" type="line"/>
    </contour>
    <contour>
      <point x="212.0" y="705.0" type="line"/>
      <point x="306.0" y="705.0" type="line"/>
      <point x="306.0" y="880.0" type="line"/>
      <point x="212.0" y="880.0" type="line"/>
    </contour>
    <component base="S" xOffset="1.5"/>
  </outline>
</glyph>
<glyph name="quotesingle" format="1">
  <advance width="179.0"/>
  <unicode hex="0027"/>
  <outline>
    <contour>
      <point x="51.5" y="808.0" type="line"/>
      <point x="51.5" y="480.0" type="line"/>
      <point x="110.5" y="480.0" type="line"/>
      <point x="142.5" y="804.0" type="line"/>
      <point x="142.5" y="808.0" type="line"/>
    </contour>
  </outline>
</glyph>
<glyph name="parenleft" format="1">
  <advance width="291.5"/>
  <unicode hex="0028"/>
  <outline>
    <contour>
      <point x="184.5" y="-160.0" type="curve"/>
      <point x="283.0" y="-160.0" type="line"/>
      <point x="283.0" y="-156.0" type="line"/>
      <point x="183.5" y="-9.5"/>
      <point x="125.0" y="169.0"/>
      <point x="125.0" y="354.0" type="curve" smooth="yes"/>
      <point x="125.0" y="538.5"/>
      <point x="183.5" y="717.5"/>
      <point x="283.0" y="864.0" type="curve"/>
      <point x="283.0" y="868.0" type="line"/>
      <point x="184.5" y="868.0" type="line"/>
      <point x="84.0" y="720.0"/>
      <point x="31.5" y="538.5"/>
      <point x="31.5" y="354.0" type="curve" smooth="yes"/>
      <point x="31.5" y="169.5"/>
      <point x="84.0" y="-12.0"/>
    </contour>
  </outline>
</glyph>
<glyph name="plus" format="1">
  <advance width="489.5"/>
  <unicode hex="002B"/>
  <outline>
    <contour>
      <point x="35.5" y="328.0" type="line"/>
      <point x="454.5" y="328.0" type="line"/>
      <point x="454.5" y="412.0" type="line"/>
      <point x="35.5" y="412.0" type="line"/>
    </contour>
    <contour>
      <point x="203.0" y="163.0" type="line"/>
      <point x="287.0" y="163.0" type="line"/>
      <point x="287.0" y="577.0" type="line"/>
      <point x="203.0" y="577.0" type="line"/>
    </contour>
  </outline>
</glyph>
<glyph name="slash" format="1">
  <advance width="309.5"/>
  <unicode hex="002F"/>
  <outline>
    <contour>
      <point x="25.5" y="-120.5" type="line"/>
      <point x="124.0" y="-120.5" type="line"/>
      <point x="284.0" y="740.0" type="line"/>
      <point x="185.5" y="740.0" type="line"/>
    </contour>
  </outline>
</glyph>
<glyph name="two" format="1">
  <advance width="465.5"/>
  <unicode hex="0032"/>
  <outline>
    <contour>
      <point x="34.5" y="0.0" type="line"/>
      <point x="423.0" y="0.0" type="line"/>
      <point x="423.0" y="98.0" type="line"/>
      <point x="149.0" y="98.0" type="line"/>
      <point x="149.0" y="136.0" type="line" smooth="yes"/>
      <point x="149.0" y="205.0"/>
      <point x="172.5" y="244.0"/>
      <point x="278.0" y="321.5" type="curve" smooth="yes"/>
      <point x="384.0" y="397.5"/>
      <point x="426.0" y="465.0"/>
      <point x="426.0" y="560.5" type="curve" smooth="yes"/>
      <point x="426.0" y="685.5"/>
      <point x="357.0" y="749.5"/>
      <point x="223.0" y="749.5" type="curve" smooth="yes"/>
      <point x="173.5" y="749.5"/>
      <point x="115.0" y="741.0"/>
      <point x="50.5" y="723.0" type="curve"/>
      <point x="62.5" y="630.5" type="line"/>
      <point x="111.5" y="645.5"/>
      <point x="155.0" y="653.0"/>
      <point x="190.5" y="653.0" type="curve" smooth="yes"/>
      <point x="273.0" y="653.0"/>
      <point x="311.5" y="618.5"/>
      <point x="311.5" y="547.5" type="curve" smooth="yes"/>
      <point x="311.5" y="484.5"/>
      <point x="282.5" y="442.0"/>
      <point x="198.5" y="384.0" type="curve" smooth="yes"/>
      <point x="78.0" y="303.5"/>
      <point x="34.5" y="230.0"/>
      <point x="34.5" y="111.5" type="curve" smooth="yes"/>
    </contour>
  </outline>
</glyph>
<glyph name="three" format="1">
  <advance width="440.5"/>
  <unicode hex="0033"/>
  <outline>
    <contour>
      <point x="162.5" y="-8.5" type="curve" smooth="yes"/>
      <point x="314.5" y="-7.0"/>
      <point x="403.0" y="67.5"/>
      <point x="403.0" y="194.5" type="curve" smooth="yes"/>
      <point x="403.0" y="296.0"/>
      <point x="353.5" y="361.5"/>
      <point x="261.0" y="382.0" type="curve"/>
      <point x="261.0" y="385.0" type="line"/>
      <point x="340.0" y="406.0"/>
      <point x="383.0" y="469.5"/>
      <point x="383.0" y="566.0" type="curve" smooth="yes"/>
      <point x="383.0" y="688.0"/>
      <point x="310.0" y="750.5"/>
      <point x="162.5" y="750.5" type="curve" smooth="yes"/>
      <point x="120.0" y="750.5"/>
      <point x="79.5" y="745.5"/>
      <point x="38.5" y="734.5" type="curve"/>
      <point x="43.0" y="647.5" type="line"/>
      <point x="50.0" y="647.5" type="line"/>
      <point x="93.0" y="656.5"/>
      <point x="125.5" y="661.0"/>
      <point x="153.5" y="661.0" type="curve" smooth="yes"/>
      <point x="232.0" y="661.0"/>
      <point x="268.5" y="623.5"/>
      <point x="268.5" y="544.0" type="curve" smooth="yes"/>
      <point x="268.5" y="460.0"/>
      <point x="226.0" y="421.5"/>
      <point x="128.0" y="421.5" type="curve" smooth="yes"/>
      <point x="103.5" y="421.5" type="line"/>
      <point x="103.5" y="338.5" type="line"/>
      <point x="128.0" y="338.5" type="line" smooth="yes"/>
      <point x="241.5" y="338.5"/>
      <point x="288.5" y="295.0"/>
      <point x="288.5" y="202.5" type="curve" smooth="yes"/>
      <point x="288.5" y="120.0"/>
      <point x="242.0" y="78.5"/>
      <point x="146.0" y="78.5" type="curve" smooth="yes"/>
      <point x="109.0" y="78.5"/>
      <point x="73.0" y="83.5"/>
      <point x="47.5" y="92.5" type="curve"/>
      <point x="41.5" y="92.5" type="line"/>
      <point x="41.5" y="5.0" type="line"/>
      <point x="84.0" y="-4.5"/>
      <point x="123.5" y="-8.5"/>
    </contour>
  </outline>
</glyph>
<glyph name="four" format="1">
  <advance width="518.5"/>
  <unicode hex="0034"/>
  <outline>
    <contour>
      <point x="31.5" y="167.5" type="line"/>
      <point x="498.5" y="167.5" type="line"/>
      <point x="498.5" y="253.5" type="line"/>
      <point x="131.5" y="253.5" type="line"/>
      <point x="131.5" y="258.5" type="line"/>
      <point x="369.5" y="735.5" type="line"/>
      <point x="365.0" y="740.0" type="line"/>
      <point x="259.0" y="750.0" type="line"/>
      <point x="253.5" y="750.0" type="line"/>
      <point x="13.5" y="238.0" type="line"/>
      <point x="13.5" y="234.0" type="line"/>
    </contour>
    <contour>
      <point x="311.0" y="0.0" type="line"/>
      <point x="425.5" y="0.0" type="line"/>
      <point x="425.5" y="492.5" type="line"/>
      <point x="341.5" y="492.5" type="line"/>
      <point x="311.0" y="238.0" type="line"/>
    </contour>
  </outline>
</glyph>
<glyph name="less" format="1">
  <advance width="512.0"/>
  <unicode hex="003C"/>
  <outline>
    <contour>
      <point x="33.5" y="341.0" type="line"/>
      <point x="95.5" y="341.0" type="line"/>
      <point x="458.0" y="498.5" type="line"/>
      <point x="458.0" y="591.0" type="line"/>
      <point x="33.5" y="405.5" type="line"/>
    </contour>
    <contour>
      <point x="456.5" y="139.0" type="line"/>
      <point x="456.5" y="231.5" type="line"/>
      <point x="95.5" y="389.0" type="line"/>
      <point x="33.5" y="389.0" type="line"/>
      <point x="33.5" y="324.5" type="line"/>
    </contour>
  </outline>
</glyph>
<glyph name="equal" format="1">
  <advance width="510.0"/>
  <unicode hex="003D"/>
  <outline>
    <contour>
      <point x="53.0" y="201.5" type="line"/>
      <point x="457.0" y="201.5" type="line"/>
      <point x="457.0" y="287.5" type="line"/>
      <point x="53.0" y="287.5" type="line"/>
    </contour>
    <contour>
      <point x="53.0" y="418.5" type="line"/>
      <point x="457.0" y="418.5" type="line"/>
      <point x="457.0" y="504.5" type="line"/>
      <point x="53.0" y="504.5" type="line"/>
    </contour>
  </outline>
</glyph>
<glyph name="greater" format="1">
  <advance width="512.0"/>
  <unicode hex="003E"/>
  <outline>
    <contour>
      <point x="416.5" y="341.0" type="line"/>
      <point x="478.5" y="341.0" type="line"/>
      <point x="478.5" y="405.5" type="line"/>
      <point x="54.0" y="591.0" type="line"/>
      <point x="54.0" y="498.5" type="line"/>
    </contour>
    <contour>
      <point x="55.5" y="139.0" type="line"/>
      <point x="478.5" y="324.5" type="line"/>
      <point x="478.5" y="389.0" type="line"/>
      <point x="416.5" y="389.0" type="line"/>
      <point x="55.5" y="231.5" type="line"/>
    </contour>
  </outline>
</glyph>
<glyph name="question" format="1">
  <advance width="408.5"/>
  <unicode hex="003F"/>
  <outline>
    <contour>
      <point x="117.5" y="200.0" type="line"/>
      <point x="192.5" y="200.0" type="line"/>
      <point x="192.5" y="217.0" type="line"/>
      <point x="196.5" y="346.0" type="line"/>
      <point x="293.0" y="368.5"/>
      <point x="382.0" y="426.0"/>
      <point x="382.0" y="552.5" type="curve" smooth="yes"/>
      <point x="382.0" y="691.5"/>
      <point x="290.0" y="749.0"/>
      <point x="171.0" y="749.0" type="curve" smooth="yes"/>
      <point x="120.0" y="749.0"/>
      <point x="70.5" y="739.5"/>
      <point x="26.5" y="724.5" type="curve"/>
      <point x="35.5" y="638.0" type="line"/>
      <point x="67.5" y="649.5"/>
      <point x="114.0" y="658.5"/>
      <point x="150.5" y="658.5" type="curve" smooth="yes"/>
      <point x="215.5" y="658.5"/>
      <point x="270.5" y="628.5"/>
      <point x="270.5" y="543.5" type="curve" smooth="yes"/>
      <point x="270.5" y="452.0"/>
      <point x="193.0" y="421.5"/>
      <point x="108.0" y="401.5" type="curve"/>
      <point x="117.5" y="216.5" type="line"/>
    </contour>
    <contour>
      <point x="156.5" y="-4.0" type="curve" smooth="yes"/>
      <point x="199.0" y="-4.0"/>
      <point x="224.5" y="19.5"/>
      <point x="224.5" y="60.5" type="curve" smooth="yes"/>
      <point x="224.5" y="101.5"/>
      <point x="199.0" y="125.5"/>
      <point x="156.5" y="125.5" type="curve" smooth="yes"/>
      <point x="114.0" y="125.5"/>
      <point x="89.0" y="102.0"/>
      <point x="89.0" y="60.5" type="curve" smooth="yes"/>
      <point x="89.0" y="19.5"/>
      <point x="114.0" y="-4.0"/>
    </contour>
  </outline>
</glyph>
<glyph name="at" format="1">
  <advance width="792.5"/>
  <unicode hex="0040"/>
  <outline>
    <contour>
      <point x="386.5" y="-137.0" type="curve" smooth="yes"/>
      <point x="453.5" y="-137.0"/>
      <point x="527.5" y="-119.0"/>
      <point x="595.0" y="-96.0" type="curve"/>
      <point x="571.0" y="-33.5" type="line"/>
      <point x="508.5" y="-54.5"/>
      <point x="442.5" y="-71.0"/>
      <point x="386.5" y="-71.0" type="curve" smooth="yes"/>
      <point x="251.5" y="-71.0"/>
      <point x="111.5" y="10.0"/>
      <point x="111.5" y="262.0" type="curve" smooth="yes"/>
      <point x="111.5" y="488.5"/>
      <point x="235.0" y="607.0"/>
      <point x="410.5" y="607.0" type="curve" smooth="yes"/>
      <point x="603.0" y="607.0"/>
      <point x="674.5" y="488.5"/>
      <point x="674.5" y="307.0" type="curve" smooth="yes"/>
      <point x="674.5" y="189.5"/>
      <point x="644.0" y="113.0"/>
      <point x="584.5" y="113.0" type="curve" smooth="yes"/>
      <point x="545.0" y="113.0"/>
      <point x="534.5" y="140.5"/>
      <point x="534.5" y="175.0" type="curve" smooth="yes"/>
      <point x="534.5" y="198.5"/>
      <point x="539.5" y="225.5"/>
      <point x="543.5" y="249.0" type="curve" smooth="yes"/>
      <point x="578.5" y="457.0" type="line"/>
      <point x="519.0" y="481.5"/>
      <point x="470.0" y="494.0"/>
      <point x="430.5" y="494.0" type="curve" smooth="yes"/>
      <point x="290.0" y="494.0"/>
      <point x="203.0" y="382.5"/>
      <point x="203.0" y="231.0" type="curve" smooth="yes"/>
      <point x="203.0" y="140.5"/>
      <point x="239.0" y="55.5"/>
      <point x="336.0" y="55.5" type="curve" smooth="yes"/>
      <point x="381.5" y="55.5"/>
      <point x="439.5" y="76.5"/>
      <point x="477.5" y="137.0" type="curve"/>
      <point x="482.0" y="137.0" type="line"/>
      <point x="491.0" y="63.5"/>
      <point x="534.0" y="49.5"/>
      <point x="581.5" y="49.5" type="curve" smooth="yes"/>
      <point x="695.0" y="49.5"/>
      <point x="750.0" y="152.0"/>
      <point x="750.0" y="307.0" type="curve" smooth="yes"/>
      <point x="750.0" y="530.5"/>
      <point x="656.0" y="677.0"/>
      <point x="410.5" y="677.0" type="curve" smooth="yes"/>
      <point x="192.0" y="677.0"/>
      <point x="36.0" y="534.5"/>
      <point x="36.0" y="262.0" type="curve" smooth="yes"/>
      <point x="36.0" y="-40.0"/>
      <point x="213.5" y="-137.0"/>
    </contour>
    <contour>
      <point x="348.0" y="121.5" type="curve" smooth="yes"/>
      <point x="293.0" y="121.5"/>
      <point x="277.0" y="177.0"/>
      <point x="277.0" y="231.0" type="curve" smooth="yes"/>
      <point x="277.0" y="344.5"/>
      <point x="335.0" y="428.0"/>
      <point x="430.5" y="428.0" type="curve" smooth="yes"/>
      <point x="451.0" y="428.0"/>
      <point x="474.0" y="424.5"/>
      <point x="498.0" y="416.0" type="curve"/>
      <point x="472.5" y="260.5" type="line" smooth="yes"/>
      <point x="454.5" y="150.0"/>
      <point x="387.5" y="121.5"/>
    </contour>
  </outline>
</glyph>
<glyph name="A" format="1">
  <advance width="581.5"/>
  <unicode hex="0041"/>
  <outline>
    <contour>
      <point x="578.5" y="3.5" type="move" name="ogonek"/>
    </contour>
    <contour>
      <point x="291.5" y="782.5" type="move" name="topUC"/>
    </contour>
    <contour>
      <point x="3.0" y="0.0" type="line"/>
      <point x="111.0" y="0.0" type="line"/>
      <point x="168.0" y="202.5" type="line"/>
      <point x="413.0" y="202.5" type="line"/>
      <point x="470.5" y="0.0" type="line"/>
      <point x="578.5" y="0.0" type="line"/>
      <point x="578.5" y="6.5" type="line"/>
      <point x="375.5" y="740.0" type="line"/>
      <point x="206.0" y="740.0" type="line"/>
      <point x="3.0" y="6.5" type="line"/>
    </contour>
    <contour>
      <point x="192.0" y="300.5" type="line"/>
      <point x="260.0" y="538.0" type="line"/>
      <point x="285.5" y="648.0" type="line"/>
      <point x="295.5" y="648.0" type="line"/>
      <point x="321.5" y="538.0" type="line"/>
      <point x="388.5" y="300.5" type="line"/>
    </contour>
  </outline>
</glyph>
<glyph name="B" format="1">
  <advance width="571.5"/>
  <unicode hex="0042"/>
  <outline>
    <contour>
      <point x="257.5" y="-10.0" type="curve" smooth="yes"/>
      <point x="443.5" y="-10.0"/>
      <point x="538.5" y="60.0"/>
      <point x="538.5" y="198.0" type="curve" smooth="yes"/>
      <point x="538.5" y="297.5"/>
      <point x="489.0" y="362.5"/>
      <point x="404.0" y="377.5" type="curve"/>
      <point x="404.0" y="381.5" type="line"/>
      <point x="478.0" y="398.5"/>
      <point x="517.5" y="455.5"/>
      <point x="517.5" y="545.5" type="curve" smooth="yes"/>
      <point x="517.5" y="686.0"/>
      <point x="436.0" y="750.0"/>
      <point x="256.0" y="750.0" type="curve" smooth="yes"/>
      <point x="203.5" y="750.0"/>
      <point x="152.0" y="746.0"/>
      <point x="65.5" y="736.0" type="curve"/>
      <point x="65.5" y="5.0" type="line"/>
      <point x="116.5" y="-4.0"/>
      <point x="197.0" y="-10.0"/>
    </contour>
    <contour>
      <point x="274.5" y="79.0" type="curve" smooth="yes"/>
      <point x="236.0" y="79.0"/>
      <point x="188.0" y="82.5"/>
      <point x="171.5" y="86.5" type="curve"/>
      <point x="171.5" y="329.0" type="line"/>
      <point x="261.5" y="329.0" type="line" smooth="yes"/>
      <point x="376.5" y="329.0"/>
      <point x="420.5" y="293.5"/>
      <point x="420.5" y="203.5" type="curve" smooth="yes"/>
      <point x="420.5" y="121.0"/>
      <point x="371.0" y="79.5"/>
    </contour>
    <contour>
      <point x="171.5" y="416.0" type="line"/>
      <point x="171.5" y="653.0" type="line"/>
      <point x="207.0" y="657.5"/>
      <point x="235.0" y="660.0"/>
      <point x="267.0" y="660.0" type="curve" smooth="yes"/>
      <point x="356.5" y="660.0"/>
      <point x="399.5" y="621.0"/>
      <point x="399.5" y="539.0" type="curve" smooth="yes"/>
      <point x="399.5" y="447.5"/>
      <point x="363.5" y="416.0"/>
      <point x="260.5" y="416.0" type="curve" smooth="yes"/>
    </contour>
  </outline>
</glyph>
<glyph name="C" format="1">
  <advance width="495.0"/>
  <unicode hex="0043"/>
  <outline>
    <contour>
      <point x="292.5" y="782.5" type="move" name="topUC"/>
    </contour>
    <contour>
      <point x="297.0" y="0.0" type="move" name="bottom"/>
    </contour>
    <contour>
      <point x="342.0" y="-9.5" type="curve" smooth="yes"/>
      <point x="393.0" y="-9.5"/>
      <point x="437.0" y="-3.0"/>
      <point x="466.0" y="7.0" type="curve"/>
      <point x="466.0" y="98.0" type="line"/>
      <point x="430.0" y="91.0"/>
      <point x="386.0" y="87.0"/>
      <point x="355.0" y="87.0" type="curve" smooth="yes"/>
      <point x="213.0" y="87.0"/>
      <point x="155.5" y="157.0"/>
      <point x="155.5" y="369.0" type="curve" smooth="yes"/>
      <point x="155.5" y="586.5"/>
      <point x="210.0" y="652.0"/>
      <point x="357.5" y="652.0" type="curve" smooth="yes"/>
      <point x="392.5" y="652.0"/>
      <point x="434.0" y="648.5"/>
      <point x="466.0" y="642.5" type="curve"/>
      <point x="466.0" y="736.0" type="line"/>
      <point x="421.0" y="744.5"/>
      <point x="378.5" y="748.5"/>
      <point x="340.5" y="748.5" type="curve" smooth="yes"/>
      <point x="133.5" y="748.5"/>
      <point x="37.5" y="635.5"/>
      <point x="37.5" y="369.5" type="curve" smooth="yes"/>
      <point x="37.5" y="108.0"/>
      <point x="134.5" y="-8.0"/>
    </contour>
  </outline>
</glyph>
<glyph name="D" format="1">
  <advance width="607.5"/>
  <unicode hex="0044"/>
  <outline>
    <contour>
      <point x="279.5" y="782.5" type="move" name="topUC"/>
    </contour>
    <contour>
      <point x="287.0" y="0.0" type="move" name="bottom"/>
    </contour>
    <contour>
      <point x="213.5" y="-15.0" type="curve" smooth="yes"/>
      <point x="468.0" y="-15.0"/>
      <point x="570.5" y="96.5"/>
      <point x="570.5" y="369.0" type="curve" smooth="yes"/>
      <point x="570.5" y="637.5"/>
      <point x="473.5" y="749.5"/>
      <point x="236.0" y="749.5" type="curve" smooth="yes"/>
      <point x="190.5" y="749.5"/>
      <point x="140.0" y="745.0"/>
      <point x="65.5" y="736.0" type="curve"/>
      <point x="65.5" y="-5.5" type="line"/>
      <point x="126.5" y="-12.0"/>
      <point x="171.5" y="-15.0"/>
    </contour>
    <contour>
      <point x="249.5" y="80.5" type="curve" smooth="yes"/>
      <point x="230.0" y="80.5"/>
      <point x="209.5" y="82.0"/>
      <point x="178.0" y="85.5" type="curve"/>
      <point x="178.0" y="648.5" type="line"/>
      <point x="201.0" y="653.5"/>
      <point x="224.0" y="655.5"/>
      <point x="252.5" y="655.5" type="curve" smooth="yes"/>
      <point x="399.0" y="655.5"/>
      <point x="452.5" y="580.0"/>
      <point x="452.5" y="369.5" type="curve" smooth="yes"/>
      <point x="452.5" y="159.0"/>
      <point x="393.5" y="80.5"/>
    </contour>
  </outline>
</glyph>
<glyph name="E" format="1">
  <advance width="521.5"/>
  <unicode hex="0045"/>
  <outline>
    <contour>
      <point x="489.0" y="0.0" type="move" name="ogonek"/>
    </contour>
    <contour>
      <point x="274.5" y="782.5" type="move" name="topUC"/>
    </contour>
    <contour>
      <point x="285.5" y="0.0" type="move" name="bottom"/>
    </contour>
    <contour>
      <point x="65.5" y="0.0" type="line"/>
      <point x="489.0" y="0.0" type="line"/>
      <point x="489.0" y="98.0" type="line"/>
      <point x="180.0" y="98.0" type="line"/>
      <point x="180.0" y="642.0" type="line"/>
      <point x="480.0" y="642.0" type="line"/>
      <point x="480.0" y="740.0" type="line"/>
      <point x="65.5" y="740.0" type="line"/>
    </contour>
    <contour>
      <point x="150.0" y="324.0" type="line"/>
      <point x="448.0" y="324.0" type="line"/>
      <point x="448.0" y="422.0" type="line"/>
      <point x="150.0" y="422.0" type="line"/>
    </contour>
  </outline>
</glyph>
<glyph name="F" format="1">
  <advance width="492.0"/>
  <unicode hex="0046"/>
  <outline>
    <contour>
      <point x="65.5" y="0.0" type="line"/>
      <point x="180.0" y="0.0" type="line"/>
      <point x="180.0" y="642.0" type="line"/>
      <point x="465.0" y="642.0" type="line"/>
      <point x="465.0" y="740.0" type="line"/>
      <point x="65.5" y="740.0" type="line"/>
    </contour>
    <contour>
      <point x="150.0" y="314.0" type="line"/>
      <point x="441.5" y="314.0" type="line"/>
      <point x="441.5" y="412.0" type="line"/>
      <point x="150.0" y="412.0" type="line"/>
    </contour>
  </outline>
</glyph>
<glyph name="G" format="1">
  <advance width="568.5"/>
  <unicode hex="0047"/>
  <outline>
    <contour>
      <point x="330.0" y="782.5" type="move" name="topUC"/>
    </contour>
    <contour>
      <point x="332.5" y="0.0" type="move" name="bottom"/>
    </contour>
    <contour>
      <point x="341.5" y="-9.5" type="curve" smooth="yes"/>
      <point x="393.0" y="-9.5"/>
      <point x="442.5" y="-5.5"/>
      <point x="521.0" y="5.5" type="curve"/>
      <point x="482.0" y="100.5" type="line"/>
      <point x="438.0" y="92.0"/>
      <point x="389.5" y="87.0"/>
      <point x="354.5" y="87.0" type="curve" smooth="yes"/>
      <point x="209.5" y="87.0"/>
      <point x="155.0" y="162.0"/>
      <point x="155.0" y="369.0" type="curve" smooth="yes"/>
      <point x="155.0" y="579.0"/>
      <point x="212.5" y="652.5"/>
      <point x="376.5" y="652.5" type="curve" smooth="yes"/>
      <point x="414.0" y="652.5"/>
      <point x="460.5" y="647.0"/>
      <point x="516.0" y="636.5" type="curve"/>
      <point x="516.0" y="730.0" type="line"/>
      <point x="463.0" y="742.0"/>
      <point x="406.0" y="748.5"/>
      <point x="365.0" y="748.5" type="curve" smooth="yes"/>
      <point x="139.0" y="748.5"/>
      <point x="37.0" y="631.5"/>
      <point x="37.0" y="369.5" type="curve" smooth="yes"/>
      <point x="37.0" y="110.5"/>
      <point x="132.0" y="-8.0"/>
    </contour>
    <contour>
      <point x="417.0" y="13.0" type="line"/>
      <point x="521.0" y="5.5" type="line"/>
      <point x="521.0" y="376.0" type="line"/>
      <point x="417.0" y="376.0" type="line"/>
    </contour>
  </outline>
</glyph>
<glyph name="I" format="1">
  <advance width="245.5"/>
  <unicode hex="0049"/>
  <outline>
    <contour>
      <point x="180.0" y="0.0" type="move" name="ogonek"/>
    </contour>
    <contour>
      <point x="124.5" y="782.5" type="move" name="topUC"/>
    </contour>
    <contour>
      <point x="124.5" y="0.0" type="move" name="bottom"/>
    </contour>
    <contour>
      <point x="65.5" y="0.0" type="line"/>
      <point x="180.0" y="0.0" type="line"/>
      <point x="180.0" y="740.0" type="line"/>
      <point x="65.5" y="740.0" type="line"/>
    </contour>
  </outline>
</glyph>
<glyph name="O" format="1">
  <advance width="637.0"/>
  <unicode hex="004F"/>
  <outline>
    <contour>
      <point x="368.5" y="-1.0" type="move" name="ogonek"/>
    </contour>
    <contour>
      <point x="318.5" y="782.5" type="move" name="topUC"/>
    </contour>
    <contour>
      <point x="321.0" y="0.0" type="move" name="bottom"/>
    </contour>
    <contour>
      <point x="318.0" y="-10.0" type="curve" smooth="yes"/>
      <point x="507.5" y="-10.0"/>
      <point x="599.5" y="114.0"/>
      <point x="599.5" y="369.0" type="curve" smooth="yes"/>
      <point x="599.5" y="626.0"/>
      <point x="508.0" y="750.0"/>
      <point x="318.0" y="750.0" type="curve" smooth="yes"/>
      <point x="129.5" y="750.0"/>
      <point x="37.5" y="625.0"/>
      <point x="37.5" y="369.0" type="curve" smooth="yes"/>
      <point x="37.5" y="114.5"/>
      <point x="129.5" y="-10.0"/>
    </contour>
    <contour>
      <point x="318.0" y="86.5" type="curve" smooth="yes"/>
      <point x="201.0" y="86.5"/>
      <point x="154.5" y="166.5"/>
      <point x="154.5" y="369.0" type="curve" smooth="yes"/>
      <point x="154.5" y="573.0"/>
      <point x="201.5" y="653.5"/>
      <point x="318.0" y="653.5" type="curve" smooth="yes"/>
      <point x="435.0" y="653.5"/>
      <point x="482.5" y="572.0"/>
      <point x="482.5" y="369.0" type="curve" smooth="yes"/>
      <point x="482.5" y="166.5"/>
      <point x="435.5" y="86.5"/>
    </contour>
  </outline>
</glyph>
<glyph name="P" format="1">
  <advance width="554.0"/>
  <unicode hex="0050"/>
  <outline>
    <contour>
      <point x="235.0" y="236.0" type="curve" smooth="yes"/>
      <point x="441.0" y="236.0"/>
      <point x="530.0" y="313.5"/>
      <point x="530.0" y="492.5" type="curve" smooth="yes"/>
      <point x="530.0" y="672.5"/>
      <point x="441.0" y="751.0"/>
      <point x="235.5" y="751.0" type="curve" smooth="yes"/>
      <point x="181.0" y="751.0"/>
      <point x="123.5" y="745.5"/>
      <point x="65.5" y="735.0" type="curve"/>
      <point x="65.5" y="247.0" type="line"/>
      <point x="119.0" y="239.5"/>
      <point x="178.0" y="236.0"/>
    </contour>
    <contour>
      <point x="251.0" y="330.0" type="curve" smooth="yes"/>
      <point x="229.5" y="330.0"/>
      <point x="202.0" y="332.0"/>
      <point x="180.0" y="334.5" type="curve"/>
      <point x="180.0" y="648.0" type="line"/>
      <point x="203.0" y="652.0"/>
      <point x="231.5" y="655.0"/>
      <point x="253.5" y="655.0" type="curve" smooth="yes"/>
      <point x="369.0" y="655.0"/>
      <point x="413.0" y="608.0"/>
      <point x="413.0" y="492.5" type="curve" smooth="yes"/>
      <point x="413.0" y="376.0"/>
      <point x="367.0" y="330.0"/>
    </contour>
    <contour>
      <point x="65.5" y="0.0" type="line"/>
      <point x="180.0" y="0.0" type="line"/>
      <point x="180.0" y="687.0" type="line"/>
      <point x="65.5" y="687.0" type="line"/>
    </contour>
  </outline>
</glyph>
<glyph name="R" format="1">
  <advance width="566.5"/>
  <unicode hex="0052"/>
  <outline>
    <contour>
      <point x="289.5" y="782.5" type="move" name="topUC"/>
    </contour>
    <contour>
      <point x="297.0" y="0.0" type="move" name="bottom"/>
    </contour>
    <contour>
      <point x="65.5" y="0.0" type="line"/>
      <point x="180.0" y="0.0" type="line"/>
      <point x="180.0" y="266.0" type="line"/>
      <point x="195.5" y="264.5"/>
      <point x="230.0" y="263.5"/>
      <point x="245.0" y="263.5" type="curve" smooth="yes"/>
      <point x="441.5" y="263.5"/>
      <point x="530.0" y="338.5"/>
      <point x="530.0" y="505.0" type="curve" smooth="yes"/>
      <point x="530.0" y="676.5"/>
      <point x="441.0" y="751.0"/>
      <point x="235.5" y="751.0" type="curve" smooth="yes"/>
      <point x="178.0" y="751.0"/>
      <point x="120.0" y="745.5"/>
      <point x="65.5" y="735.0" type="curve"/>
    </contour>
    <contour>
      <point x="251.0" y="355.0" type="curve" smooth="yes"/>
      <point x="231.0" y="355.0"/>
      <point x="204.0" y="356.5"/>
      <point x="180.0" y="359.5" type="curve"/>
      <point x="180.0" y="648.0" type="line"/>
      <point x="207.0" y="652.0"/>
      <point x="235.5" y="655.0"/>
      <point x="253.5" y="655.0" type="curve" smooth="yes"/>
      <point x="368.5" y="655.0"/>
      <point x="413.0" y="612.5"/>
      <point x="413.0" y="505.0" type="curve" smooth="yes"/>
      <point x="413.0" y="397.5"/>
      <point x="367.5" y="355.0"/>
    </contour>
    <contour>
      <point x="426.0" y="0.0" type="line"/>
      <point x="545.0" y="0.0" type="line"/>
      <point x="383.0" y="329.0" type="line"/>
      <point x="290.0" y="291.5" type="line"/>
    </contour>
  </outline>
</glyph>
<glyph name="S" format="1">
  <advance width="488.5"/>
  <unicode hex="0053"/>
  <outline>
    <contour>
      <point x="251.0" y="782.5" type="move" name="topUC"/>
    </contour>
    <contour>
      <point x="247.0" y="0.0" type="move" name="bottom"/>
    </contour>
    <contour>
      <point x="236.0" y="-13.0" type="curve" smooth="yes"/>
      <point x="376.0" y="-13.0"/>
      <point x="462.5" y="68.5"/>
      <point x="462.5" y="201.0" type="curve" smooth="yes"/>
      <point x="462.5" y="322.0"/>
      <point x="401.5" y="372.5"/>
      <point x="297.0" y="415.5" type="curve" smooth="yes"/>
      <point x="206.5" y="452.0"/>
      <point x="154.5" y="478.0"/>
      <point x="154.5" y="544.0" type="curve" smooth="yes"/>
      <point x="154.5" y="613.5"/>
      <point x="200.5" y="655.5"/>
      <point x="277.5" y="655.5" type="curve" smooth="yes"/>
      <point x="315.0" y="655.5"/>
      <point x="374.5" y="646.5"/>
      <point x="430.0" y="632.5" type="curve"/>
      <point x="434.0" y="727.0" type="line"/>
      <point x="374.5" y="743.0"/>
      <point x="321.0" y="750.5"/>
      <point x="269.0" y="750.5" type="curve" smooth="yes"/>
      <point x="128.0" y="750.5"/>
      <point x="40.0" y="671.0"/>
      <point x="40.0" y="544.0" type="curve" smooth="yes"/>
      <point x="40.0" y="410.5"/>
      <point x="107.0" y="365.0"/>
      <point x="209.0" y="327.0" type="curve" smooth="yes"/>
      <point x="298.0" y="293.5"/>
      <point x="348.0" y="264.0"/>
      <point x="348.0" y="197.5" type="curve" smooth="yes"/>
      <point x="348.0" y="124.5"/>
      <point x="302.0" y="84.5"/>
      <point x="217.0" y="84.5" type="curve" smooth="yes"/>
      <point x="161.0" y="84.5"/>
      <point x="78.0" y="101.5"/>
      <point x="35.5" y="121.0" type="curve"/>
      <point x="31.5" y="23.5" type="line"/>
      <point x="95.0" y="0.5"/>
      <point x="173.0" y="-13.0"/>
    </contour>
  </outline>
</glyph>
<glyph name="T" format="1">
  <advance width="501.5"/>
  <unicode hex="0054"/>
  <outline>
    <contour>
      <point x="248.5" y="782.5" type="move" name="topUC"/>
    </contour>
    <contour>
      <point x="252.0" y="0.0" type="move" name="bottom"/>
    </contour>
    <contour>
      <point x="193.0" y="0.0" type="line"/>
      <point x="307.5" y="0.0" type="line"/>
      <point x="307.5" y="640.0" type="line"/>
      <point x="486.5" y="640.0" type="line"/>
      <point x="486.5" y="740.0" type="line"/>
      <point x="14.5" y="740.0" type="line"/>
      <point x="14.5" y="640.0" type="line"/>
      <point x="193.0" y="640.0" type="line"/>
    </contour>
  </outline>
</glyph>
<glyph name="Y" format="1">
  <advance width="586.5"/>
  <unicode hex="0059"/>
  <outline>
    <contour>
      <point x="295.5" y="782.5" type="move" name="topUC"/>
    </contour>
    <contour>
      <point x="236.0" y="0.0" type="line"/>
      <point x="351.0" y="0.0" type="line"/>
      <point x="351.0" y="252.0" type="line"/>
      <point x="590.0" y="740.0" type="line"/>
      <point x="464.0" y="740.0" type="line"/>
      <point x="314.5" y="422.0" type="line"/>
      <point x="298.0" y="366.5" type="line"/>
      <point x="289.0" y="366.5" type="line"/>
      <point x="273.0" y="422.0" type="line"/>
      <point x="124.0" y="740.0" type="line"/>
      <point x="-4.5" y="740.0" type="line"/>
      <point x="236.0" y="250.0" type="line"/>
    </contour>
  </outline>
</glyph>
<glyph name="Z" format="1">
  <advance width="504.0"/>
  <unicode hex="005A"/>
  <outline>
    <contour>
      <point x="258.0" y="782.5" type="move" name="topUC"/>
    </contour>
    <contour>
      <point x="252.5" y="0.0" type="move" name="bottom"/>
    </contour>
    <contour>
      <point x="26.5" y="0.0" type="line"/>
      <point x="478.0" y="0.0" type="line"/>
      <point x="478.0" y="98.0" type="line"/>
      <point x="155.5" y="98.0" type="line"/>
      <point x="155.5" y="105.0" type="line"/>
      <point x="467.0" y="639.0" type="line"/>
      <point x="467.0" y="740.0" type="line"/>
      <point x="37.0" y="740.0" type="line"/>
      <point x="37.0" y="641.5" type="line"/>
      <point x="337.5" y="641.5" type="line"/>
      <point x="337.5" y="634.0" type="line"/>
      <point x="26.5" y="101.0" type="line"/>
    </contour>
  </outline>
</glyph>
<glyph name="backslash" format="1">
  <advance width="305.5"/>
  <unicode hex="005C"/>
  <outline>
    <contour>
      <point x="185.5" y="-120.0" type="line"/>
      <point x="280.0" y="-120.0" type="line"/>
      <point x="120.0" y="740.0" type="line"/>
      <point x="25.5" y="740.0" type="line"/>
    </contour>
  </outline>
</glyph>
<glyph name="bracketright" format="1">
  <advance width="311.5"/>
  <unicode hex="005D"/>
  <outline>
    <contour>
      <point x="244.0" y="-160.0" type="line"/>
      <point x="244.0" y="868.0" type="line"/>
      <point x="22.5" y="868.0" type="line"/>
      <point x="22.5" y="790.5" type="line"/>
      <point x="154.0" y="790.5" type="line"/>
      <point x="154.0" y="-82.5" type="line"/>
      <point x="22.5" y="-82.5" type="line"/>
      <point x="22.5" y="-160.0" type="line"/>
    </contour>
  </outline>
</glyph>
<glyph name="asciicircum" format="1">
  <advance width="386.0"/>
  <unicode hex="005E"/>
  <outline>
    <contour>
      <point x="33.0" y="481.0" type="line"/>
      <point x="112.5" y="481.0" type="line"/>
      <point x="191.0" y="713.0" type="line"/>
      <point x="195.0" y="713.0" type="line"/>
      <point x="273.0" y="481.0" type="line"/>
      <point x="353.0" y="481.0" type="line"/>
      <point x="240.0" y="789.0" type="line"/>
      <point x="146.0" y="789.0" type="line"/>
    </contour>
  </outline>
</glyph>
<glyph name="grave" format="1">
  <advance width="245.5"/>
  <unicode hex="0060"/>
  <outline>
    <contour>
      <point x="165.0" y="600.0" type="move" name="_top"/>
    </contour>
    <contour>
      <point x="126.0" y="610.0" type="line"/>
      <point x="20.5" y="803.0" type="line"/>
      <point x="136.0" y="803.0" type="line"/>
      <point x="205.0" y="620.0" type="line"/>
    </contour>
  </outline>
</glyph>
<glyph name="b" format="1">
  <advance width="508.5"/>
  <unicode hex="0062"/>
  <outline>
    <contour>
      <point x="230.5" y="-9.5" type="curve" smooth="yes"/>
      <point x="411.5" y="-5.0"/>
      <point x="474.5" y="119.5"/>
      <point x="474.5" y="285.0" type="curve" smooth="yes"/>
      <point x="474.5" y="460.0"/>
      <point x="416.5" y="549.0"/>
      <point x="302.0" y="549.0" type="curve" smooth="yes"/>
      <point x="246.5" y="549.0"/>
      <point x="197.5" y="526.0"/>
      <point x="166.5" y="486.0" type="curve"/>
      <point x="166.5" y="808.0" type="line"/>
      <point x="54.5" y="808.0" type="line"/>
      <point x="54.5" y="23.0" type="line"/>
      <point x="118.0" y="2.0"/>
      <point x="178.0" y="-9.5"/>
    </contour>
    <contour>
      <point x="235.0" y="69.0" type="curve" smooth="yes"/>
      <point x="213.5" y="69.0"/>
      <point x="189.5" y="73.0"/>
      <point x="166.5" y="80.0" type="curve"/>
      <point x="166.5" y="323.5" type="line" smooth="yes"/>
      <point x="166.5" y="424.5"/>
      <point x="208.5" y="466.0"/>
      <point x="264.0" y="466.0" type="curve" smooth="yes"/>
      <point x="331.5" y="466.0"/>
      <point x="359.5" y="413.5"/>
      <point x="359.5" y="273.0" type="curve" smooth="yes"/>
      <point x="359.5" y="126.0"/>
      <point x="322.0" y="69.0"/>
    </contour>
  </outline>
</glyph>
<glyph name="c" format="1">
  <advance width="399.5"/>
  <unicode hex="0063"/>
  <outline>
    <contour>
      <point x="223.0" y="600.0" type="move" name="top"/>
    </contour>
    <contour>
      <point x="225.0" y="0.0" type="move" name="bottom"/>
    </contour>
    <contour>
      <point x="271.5" y="-9.5" type="curve" smooth="yes"/>
      <point x="303.5" y="-9.5"/>
      <point x="340.5" y="-4.0"/>
      <point x="367.0" y="5.0" type="curve"/>
      <point x="367.0" y="94.5" type="line"/>
      <point x="334.5" y="86.5"/>
      <point x="307.5" y="83.0"/>
      <point x="281.5" y="83.0" type="curve" smooth="yes"/>
      <point x="189.5" y="83.0"/>
      <point x="149.0" y="141.0"/>
      <point x="149.0" y="270.5" type="curve" smooth="yes"/>
      <point x="149.0" y="401.0"/>
      <point x="188.5" y="456.5"/>
      <point x="282.5" y="456.5" type="curve" smooth="yes"/>
      <point x="307.5" y="456.5"/>
      <point x="335.0" y="453.0"/>
      <point x="367.0" y="445.5" type="curve"/>
      <point x="367.0" y="535.5" type="line"/>
      <point x="333.0" y="545.0"/>
      <point x="301.5" y="549.5"/>
      <point x="271.5" y="549.5" type="curve" smooth="yes"/>
      <point x="114.0" y="549.5"/>
      <point x="34.0" y="459.0"/>
      <point x="34.0" y="270.0" type="curve" smooth="yes"/>
      <point x="34.0" y="78.5"/>
      <point x="112.5" y="-9.5"/>
    </contour>
  </outline>
</glyph>
<glyph name="d" format="1">
  <advance width="509.5"/>
  <unicode hex="0064"/>
  <outline>
    <contour>
      <point x="534.0" y="741.0" type="move" name="caronalt"/>
    </contour>
    <contour>
      <point x="253.5" y="0.0" type="move" name="bottom"/>
    </contour>
    <contour>
      <point x="208.0" y="-9.0" type="curve" smooth="yes"/>
      <point x="263.5" y="-9.0"/>
      <point x="309.5" y="13.0"/>
      <point x="340.5" y="54.0" type="curve"/>
      <point x="344.5" y="54.0" type="line"/>
      <point x="352.0" y="0.0" type="line"/>
      <point x="454.0" y="0.0" type="line"/>
      <point x="454.0" y="808.0" type="line"/>
      <point x="342.0" y="808.0" type="line"/>
      <point x="342.0" y="543.0" type="line"/>
      <point x="310.5" y="547.0"/>
      <point x="293.0" y="549.0"/>
      <point x="273.5" y="549.0" type="curve" smooth="yes"/>
      <point x="117.0" y="549.0"/>
      <point x="34.0" y="448.0"/>
      <point x="34.0" y="260.0" type="curve" smooth="yes"/>
      <point x="34.0" y="79.0"/>
      <point x="91.0" y="-9.0"/>
    </contour>
    <contour>
      <point x="244.0" y="74.0" type="curve" smooth="yes"/>
      <point x="179.0" y="74.0"/>
      <point x="149.0" y="132.0"/>
      <point x="149.0" y="271.5" type="curve" smooth="yes"/>
      <point x="149.0" y="413.5"/>
      <point x="186.5" y="470.5"/>
      <point x="271.0" y="470.5" type="curve" smooth="yes"/>
      <point x="294.5" y="470.5"/>
      <point x="315.0" y="467.0"/>
      <point x="342.0" y="459.5" type="curve"/>
      <point x="342.0" y="216.5" type="line" smooth="yes"/>
      <point x="342.0" y="115.5"/>
      <point x="299.5" y="74.0"/>
    </contour>
  </outline>
</glyph>
<glyph name="g" format="1">
  <advance width="509.0"/>
  <unicode hex="0067"/>
  <outline>
    <contour>
      <point x="269.0" y="600.0" type="move" name="top"/>
    </contour>
    <contour>
      <point x="220.5" y="-220.0" type="curve" smooth="yes"/>
      <point x="378.5" y="-220.0"/>
      <point x="454.5" y="-127.5"/>
      <point x="454.5" y="68.5" type="curve" smooth="yes"/>
      <point x="454.5" y="521.5" type="line"/>
      <point x="385.5" y="541.0"/>
      <point x="332.0" y="549.0"/>
      <point x="274.0" y="549.0" type="curve" smooth="yes"/>
      <point x="118.5" y="549.0"/>
      <point x="34.5" y="446.5"/>
      <point x="34.5" y="260.0" type="curve" smooth="yes"/>
      <point x="34.5" y="88.0"/>
      <point x="92.0" y="5.5"/>
      <point x="211.0" y="5.5" type="curve" smooth="yes"/>
      <point x="265.5" y="5.5"/>
      <point x="310.5" y="26.5"/>
      <point x="341.0" y="66.0" type="curve"/>
      <point x="345.5" y="66.0" type="line"/>
      <point x="345.5" y="41.0" type="line" smooth="yes"/>
      <point x="344.0" y="-83.5"/>
      <point x="306.5" y="-132.0"/>
      <point x="211.5" y="-132.0" type="curve" smooth="yes"/>
      <point x="173.0" y="-132.0"/>
      <point x="133.5" y="-125.5"/>
      <point x="83.0" y="-111.0" type="curve"/>
      <point x="75.0" y="-197.0" type="line"/>
      <point x="123.5" y="-212.0"/>
      <point x="173.0" y="-220.0"/>
    </contour>
    <contour>
      <point x="244.5" y="84.0" type="curve" smooth="yes"/>
      <point x="179.0" y="84.0"/>
      <point x="149.5" y="140.5"/>
      <point x="149.5" y="271.5" type="curve" smooth="yes"/>
      <point x="149.5" y="413.5"/>
      <point x="187.0" y="470.5"/>
      <point x="271.5" y="470.5" type="curve" smooth="yes"/>
      <point x="294.5" y="470.5"/>
      <point x="314.5" y="467.0"/>
      <point x="342.5" y="459.5" type="curve"/>
      <point x="342.5" y="216.5" type="line" smooth="yes"/>
      <point x="342.5" y="125.5"/>
      <point x="300.0" y="84.0"/>
    </contour>
  </outline>
</glyph>
<glyph name="h" format="1">
  <advance width="505.0"/>
  <unicode hex="0068"/>
  <outline>
    <contour>
      <point x="182.0" y="704.0" type="move" name="top"/>
    </contour>
    <contour>
      <point x="256.0" y="0.0" type="move" name="bottom"/>
    </contour>
    <contour>
      <point x="55.5" y="0.0" type="line"/>
      <point x="167.5" y="0.0" type="line"/>
      <point x="167.5" y="407.5" type="line"/>
      <point x="211.0" y="436.0"/>
      <point x="250.5" y="451.0"/>
      <point x="283.0" y="451.0" type="curve" smooth="yes"/>
      <point x="322.5" y="451.0"/>
      <point x="340.0" y="427.0"/>
      <point x="340.0" y="372.0" type="curve" smooth="yes"/>
      <point x="340.0" y="0.0" type="line"/>
      <point x="452.0" y="0.0" type="line"/>
      <point x="452.0" y="407.0" type="line" smooth="yes"/>
      <point x="452.0" y="503.0"/>
      <point x="413.0" y="550.0"/>
      <point x="334.0" y="550.0" type="curve" smooth="yes"/>
      <point x="282.0" y="550.0"/>
      <point x="236.5" y="532.0"/>
      <point x="161.5" y="482.0" type="curve"/>
      <point x="167.5" y="478.0" type="line"/>
      <point x="167.5" y="808.0" type="line"/>
      <point x="55.5" y="808.0" type="line"/>
    </contour>
  </outline>
</glyph>
<glyph name="i" format="1">
  <advance width="224.0"/>
  <unicode hex="0069"/>
  <outline>
    <contour>
      <point x="168.0" y="0.0" type="move" name="ogonek"/>
    </contour>
    <contour>
      <point x="112.0" y="0.0" type="move" name="bottom"/>
    </contour>
    <contour>
      <point x="112.0" y="641.0" type="curve" smooth="yes"/>
      <point x="157.5" y="641.0"/>
      <point x="178.5" y="661.5"/>
      <point x="178.5" y="705.5" type="curve" smooth="yes"/>
      <point x="178.5" y="749.5"/>
      <point x="157.0" y="770.0"/>
      <point x="112.0" y="770.0" type="curve" smooth="yes"/>
      <point x="66.5" y="770.0"/>
      <point x="46.5" y="750.0"/>
      <point x="46.5" y="705.5" type="curve" smooth="yes"/>
      <point x="46.5" y="661.0"/>
      <point x="67.0" y="641.0"/>
    </contour>
    <contour>
      <point x="56.0" y="0.0" type="line"/>
      <point x="168.0" y="0.0" type="line"/>
      <point x="168.0" y="540.0" type="line"/>
      <point x="56.0" y="540.0" type="line"/>
    </contour>
  </outline>
</glyph>
<glyph name="j" format="1">
  <advance width="223.5"/>
  <unicode hex="006A"/>
  <outline>
    <contour>
      <point x="112.5" y="641.0" type="curve" smooth="yes"/>
      <point x="158.0" y="641.0"/>
      <point x="179.0" y="661.5"/>
      <point x="179.0" y="705.5" type="curve" smooth="yes"/>
      <point x="179.0" y="749.5"/>
      <point x="157.5" y="770.0"/>
      <point x="112.5" y="770.0" type="curve" smooth="yes"/>
      <point x="67.0" y="770.0"/>
      <point x="47.0" y="750.0"/>
      <point x="47.0" y="705.5" type="curve" smooth="yes"/>
      <point x="47.0" y="661.0"/>
      <point x="67.5" y="641.0"/>
    </contour>
    <contour>
      <point x="76.0" y="-220.0" type="line"/>
      <point x="131.5" y="-135.5"/>
      <point x="168.5" y="-16.0"/>
      <point x="168.5" y="81.5" type="curve" smooth="yes"/>
      <point x="168.5" y="540.0" type="line"/>
      <point x="56.5" y="540.0" type="line"/>
      <point x="56.5" y="111.5" type="line" smooth="yes"/>
      <point x="56.5" y="-3.5"/>
      <point x="37.0" y="-110.5"/>
      <point x="-0.5" y="-192.5" type="curve"/>
    </contour>
  </outline>
</glyph>
<glyph name="k" format="1">
  <advance width="480.5"/>
  <unicode hex="006B"/>
  <outline>
    <contour>
      <point x="258.5" y="0.0" type="move" name="bottom"/>
    </contour>
    <contour>
      <point x="55.5" y="0.0" type="line"/>
      <point x="167.5" y="0.0" type="line"/>
      <point x="167.5" y="235.5" type="line"/>
      <point x="219.5" y="235.5" type="line"/>
      <point x="364.5" y="0.0" type="line"/>
      <point x="487.0" y="0.0" type="line"/>
      <point x="313.0" y="267.5" type="line"/>
      <point x="293.5" y="276.0" type="line"/>
      <point x="293.5" y="279.0" type="line"/>
      <point x="312.5" y="287.0" type="line"/>
      <point x="470.0" y="540.0" type="line"/>
      <point x="348.5" y="540.0" type="line"/>
      <point x="220.5" y="320.0" type="line"/>
      <point x="167.5" y="320.0" type="line"/>
      <point x="167.5" y="808.0" type="line"/>
      <point x="55.5" y="808.0" type="line"/>
    </contour>
  </outline>
</glyph>
<glyph name="n" format="1">
  <advance width="505.0"/>
  <unicode hex="006E"/>
  <outline>
    <contour>
      <point x="7.5" y="674.0" type="move" name="apostrophe"/>
    </contour>
    <contour>
      <point x="258.0" y="600.0" type="move" name="top"/>
    </contour>
    <contour>
      <point x="253.5" y="0.0" type="move" name="bottom"/>
    </contour>
    <contour>
      <point x="55.5" y="0.0" type="line"/>
      <point x="167.5" y="0.0" type="line"/>
      <point x="167.5" y="407.5" type="line"/>
      <point x="209.0" y="435.0"/>
      <point x="248.5" y="451.0"/>
      <point x="283.0" y="451.0" type="curve" smooth="yes"/>
      <point x="321.0" y="451.0"/>
      <point x="340.0" y="429.0"/>
      <point x="340.0" y="372.0" type="curve" smooth="yes"/>
      <point x="340.0" y="0.0" type="line"/>
      <point x="452.0" y="0.0" type="line"/>
      <point x="452.0" y="407.0" type="line" smooth="yes"/>
      <point x="452.0" y="503.0"/>
      <point x="413.0" y="550.0"/>
      <point x="334.0" y="550.0" type="curve" smooth="yes"/>
      <point x="281.0" y="550.0"/>
      <point x="236.0" y="532.0"/>
      <point x="161.5" y="482.0" type="curve"/>
      <point x="157.5" y="482.0" type="line"/>
      <point x="150.5" y="540.0" type="line"/>
      <point x="55.5" y="540.0" type="line"/>
    </contour>
  </outline>
</glyph>
<glyph name="p" format="1">
  <advance width="509.5"/>
  <unicode hex="0070"/>
  <outline>
    <contour>
      <point x="55.5" y="-220.0" type="line"/>
      <point x="167.5" y="-220.0" type="line"/>
      <point x="167.5" y="-3.0" type="line"/>
      <point x="193.0" y="-7.0"/>
      <point x="214.5" y="-9.5"/>
      <point x="234.0" y="-9.5" type="curve" smooth="yes"/>
      <point x="406.0" y="-9.5"/>
      <point x="475.5" y="113.5"/>
      <point x="475.5" y="285.0" type="curve" smooth="yes"/>
      <point x="475.5" y="460.0"/>
      <point x="417.5" y="549.0"/>
      <point x="303.0" y="549.0" type="curve" smooth="yes"/>
      <point x="247.0" y="549.0"/>
      <point x="198.5" y="525.5"/>
      <point x="167.0" y="486.0" type="curve"/>
      <point x="163.0" y="486.0" type="line"/>
      <point x="157.0" y="540.0" type="line"/>
      <point x="55.5" y="540.0" type="line"/>
    </contour>
    <contour>
      <point x="236.0" y="69.0" type="curve" smooth="yes"/>
      <point x="214.0" y="69.0"/>
      <point x="190.5" y="73.0"/>
      <point x="167.5" y="80.0" type="curve"/>
      <point x="167.5" y="323.5" type="line" smooth="yes"/>
      <point x="167.5" y="424.5"/>
      <point x="209.5" y="466.0"/>
      <point x="265.0" y="466.0" type="curve" smooth="yes"/>
      <point x="332.5" y="466.0"/>
      <point x="360.5" y="413.5"/>
      <point x="360.5" y="273.0" type="curve" smooth="yes"/>
      <point x="360.5" y="126.0"/>
      <point x="323.0" y="69.0"/>
    </contour>
  </outline>
</glyph>
<glyph name="r" format="1">
  <advance width="340.5"/>
  <unicode hex="0072"/>
  <outline>
    <contour>
      <point x="187.0" y="600.0" type="move" name="top"/>
    </contour>
    <contour>
      <point x="109.0" y="0.0" type="move" name="bottom"/>
    </contour>
    <contour>
      <point x="55.5" y="0.0" type="line"/>
      <point x="167.5" y="0.0" type="line"/>
      <point x="167.5" y="391.0" type="line"/>
      <point x="190.0" y="411.5"/>
      <point x="239.0" y="433.0"/>
      <point x="285.0" y="440.5" type="curve"/>
      <point x="330.0" y="440.5" type="line"/>
      <point x="330.0" y="549.0" type="line"/>
      <point x="307.5" y="549.0" type="line"/>
      <point x="250.5" y="530.0"/>
      <point x="181.5" y="489.5"/>
      <point x="163.5" y="469.0" type="curve"/>
      <point x="157.5" y="469.0" type="line"/>
      <point x="150.5" y="540.0" type="line"/>
      <point x="55.5" y="540.0" type="line"/>
    </contour>
  </outline>
</glyph>
<glyph name="t" format="1">
  <advance width="349.0"/>
  <unicode hex="0074"/>
  <outline>
    <contour>
      <point x="349.0" y="674.0" type="move" name="caronalt"/>
    </contour>
    <contour>
      <point x="206.0" y="0.0" type="move" name="bottom"/>
    </contour>
    <contour>
      <point x="254.0" y="-5.5" type="curve" smooth="yes"/>
      <point x="279.0" y="-5.5"/>
      <point x="306.0" y="-2.5"/>
      <point x="332.0" y="3.5" type="curve"/>
      <point x="332.0" y="88.0" type="line"/>
      <point x="315.0" y="83.5"/>
      <point x="295.0" y="81.0"/>
      <point x="281.0" y="81.0" type="curve" smooth="yes"/>
      <point x="235.5" y="81.0"/>
      <point x="211.5" y="107.5"/>
      <point x="211.5" y="167.5" type="curve" smooth="yes"/>
      <point x="211.5" y="444.0" type="line"/>
      <point x="333.5" y="444.0" type="line"/>
      <point x="333.5" y="540.0" type="line"/>
      <point x="211.0" y="540.0" type="line"/>
      <point x="211.0" y="696.5" type="line"/>
      <point x="120.5" y="683.5" type="line"/>
      <point x="105.5" y="540.0" type="line"/>
      <point x="11.0" y="540.0" type="line"/>
      <point x="11.0" y="444.0" type="line"/>
      <point x="99.5" y="444.0" type="line"/>
      <point x="99.5" y="143.0" type="line" smooth="yes"/>
      <point x="99.5" y="45.5"/>
      <point x="152.0" y="-5.5"/>
    </contour>
  </outline>
</glyph>
<glyph name="u" format="1">
  <advance width="504.0"/>
  <unicode hex="0075"/>
  <outline>
    <contour>
      <point x="250.5" y="600.0" type="move" name="top"/>
    </contour>
    <contour>
      <point x="448.5" y="0.0" type="move" name="ogonek"/>
    </contour>
    <contour>
      <point x="250.5" y="0.0" type="move" name="bottom"/>
    </contour>
    <contour>
      <point x="185.0" y="-10.0" type="curve" smooth="yes"/>
      <point x="231.5" y="-10.0"/>
      <point x="271.0" y="6.5"/>
      <point x="342.5" y="56.0" type="curve"/>
      <point x="346.5" y="56.0" type="line"/>
      <point x="353.5" y="0.0" type="line"/>
      <point x="448.5" y="0.0" type="line"/>
      <point x="448.5" y="540.0" type="line"/>
      <point x="336.5" y="540.0" type="line"/>
      <point x="336.5" y="130.0" type="line"/>
      <point x="291.5" y="99.5"/>
      <point x="259.5" y="86.5"/>
      <point x="228.5" y="86.5" type="curve" smooth="yes"/>
      <point x="185.5" y="86.5"/>
      <point x="164.0" y="113.0"/>
      <point x="164.0" y="165.5" type="curve" smooth="yes"/>
      <point x="164.0" y="540.0" type="line"/>
      <point x="52.0" y="540.0" type="line"/>
      <point x="52.0" y="133.0" type="line" smooth="yes"/>
      <point x="52.0" y="39.0"/>
      <point x="98.5" y="-10.0"/>
    </contour>
  </outline>
</glyph>
<glyph name="w" format="1">
  <advance width="700.5"/>
  <unicode hex="0077"/>
  <outline>
    <contour>
      <point x="348.5" y="600.0" type="move" name="top"/>
    </contour>
    <contour>
      <point x="132.0" y="0.0" type="line"/>
      <point x="258.0" y="0.0" type="line"/>
      <point x="337.0" y="348.0" type="line"/>
      <point x="345.5" y="403.0" type="line"/>
      <point x="355.0" y="403.0" type="line"/>
      <point x="363.5" y="348.0" type="line"/>
      <point x="442.5" y="0.0" type="line"/>
      <point x="568.5" y="0.0" type="line"/>
      <point x="682.5" y="536.0" type="line"/>
      <point x="682.5" y="540.0" type="line"/>
      <point x="579.0" y="540.0" type="line"/>
      <point x="514.0" y="192.0" type="line"/>
      <point x="502.5" y="121.0" type="line"/>
      <point x="493.0" y="121.0" type="line"/>
      <point x="479.0" y="192.0" type="line"/>
      <point x="401.5" y="540.0" type="line"/>
      <point x="299.0" y="540.0" type="line"/>
      <point x="221.5" y="192.0" type="line"/>
      <point x="207.5" y="121.0" type="line"/>
      <point x="198.0" y="121.0" type="line"/>
      <point x="186.5" y="192.0" type="line"/>
      <point x="121.5" y="540.0" type="line"/>
      <point x="18.0" y="540.0" type="line"/>
      <point x="18.0" y="536.0" type="line"/>
    </contour>
  </outline>
</glyph>
<glyph name="z" format="1">
  <advance width="414.5"/>
  <unicode hex="007A"/>
  <outline>
    <contour>
      <point x="211.0" y="600.0" type="move" name="top"/>
    </contour>
    <contour>
      <point x="207.5" y="0.0" type="move" name="bottom"/>
    </contour>
    <contour>
      <point x="28.5" y="0.0" type="line"/>
      <point x="387.0" y="0.0" type="line"/>
      <point x="387.0" y="88.0" type="line"/>
      <point x="158.5" y="88.0" type="line"/>
      <point x="158.5" y="94.0" type="line"/>
      <point x="377.0" y="463.5" type="line"/>
      <point x="377.0" y="540.0" type="line"/>
      <point x="36.0" y="540.0" type="line"/>
      <point x="36.0" y="452.0" type="line"/>
      <point x="247.0" y="452.0" type="line"/>
      <point x="247.0" y="446.0" type="line"/>
      <point x="28.5" y="76.5" type="line"/>
    </contour>
  </outline>
</glyph>
<glyph name="braceleft" format="1">
  <advance width="329.5"/>
  <unicode hex="007B"/>
  <outline>
    <contour>
      <point x="19.0" y="316.0" type="line"/>
      <point x="68.0" y="316.0"/>
      <point x="90.5" y="280.5"/>
      <point x="90.5" y="216.5" type="curve" smooth="yes"/>
      <point x="90.5" y="-39.5" type="line" smooth="yes"/>
      <point x="90.5" y="-125.5"/>
      <point x="118.5" y="-154.0"/>
      <point x="199.0" y="-154.0" type="curve" smooth="yes"/>
      <point x="225.0" y="-154.0"/>
      <point x="294.5" y="-151.0"/>
      <point x="305.0" y="-149.0" type="curve"/>
      <point x="305.0" y="-76.5" type="line"/>
      <point x="235.0" y="-76.5" type="line" smooth="yes"/>
      <point x="196.0" y="-76.5"/>
      <point x="182.5" y="-63.5"/>
      <point x="182.5" y="-26.5" type="curve" smooth="yes"/>
      <point x="182.5" y="238.5" type="line" smooth="yes"/>
      <point x="182.5" y="298.0"/>
      <point x="155.0" y="345.0"/>
      <point x="114.0" y="357.0" type="curve"/>
      <point x="155.0" y="370.0"/>
      <point x="182.5" y="417.0"/>
      <point x="182.5" y="477.0" type="curve" smooth="yes"/>
      <point x="182.5" y="740.5" type="line" smooth="yes"/>
      <point x="182.5" y="777.5"/>
      <point x="196.0" y="790.5"/>
      <point x="235.0" y="790.5" type="curve" smooth="yes"/>
      <point x="305.0" y="790.5" type="line"/>
      <point x="305.0" y="863.0" type="line"/>
      <point x="294.5" y="865.0"/>
      <point x="225.0" y="868.0"/>
      <point x="199.0" y="868.0" type="curve" smooth="yes"/>
      <point x="118.5" y="868.0"/>
      <point x="90.5" y="839.5"/>
      <point x="90.5" y="753.5" type="curve" smooth="yes"/>
      <point x="90.5" y="499.0" type="line" smooth="yes"/>
      <point x="90.5" y="435.0"/>
      <point x="68.0" y="399.0"/>
      <point x="19.0" y="399.0" type="curve"/>
    </contour>
  </outline>
</glyph>
<glyph name="braceright" format="1">
  <advance width="329.0"/>
  <unicode hex="007D"/>
  <outline>
    <contour>
      <point x="310.5" y="399.0" type="line"/>
      <point x="261.5" y="399.0"/>
      <point x="239.0" y="435.0"/>
      <point x="239.0" y="499.0" type="curve" smooth="yes"/>
      <point x="239.0" y="753.5" type="line" smooth="yes"/>
      <point x="239.0" y="839.5"/>
      <point x="211.0" y="868.0"/>
      <point x="130.5" y="868.0" type="curve" smooth="yes"/>
      <point x="104.5" y="868.0"/>
      <point x="35.0" y="865.0"/>
      <point x="24.5" y="863.0" type="curve"/>
      <point x="24.5" y="790.5" type="line"/>
      <point x="94.5" y="790.5" type="line" smooth="yes"/>
      <point x="133.5" y="790.5"/>
      <point x="147.0" y="777.5"/>
      <point x="147.0" y="740.5" type="curve" smooth="yes"/>
      <point x="147.0" y="477.0" type="line" smooth="yes"/>
      <point x="147.0" y="417.0"/>
      <point x="174.5" y="370.0"/>
      <point x="215.5" y="357.0" type="curve"/>
      <point x="174.5" y="345.0"/>
      <point x="147.0" y="298.0"/>
      <point x="147.0" y="238.5" type="curve" smooth="yes"/>
      <point x="147.0" y="-26.5" type="line" smooth="yes"/>
      <point x="147.0" y="-63.5"/>
      <point x="133.5" y="-76.5"/>
      <point x="94.5" y="-76.5" type="curve" smooth="yes"/>
      <point x="24.5" y="-76.5" type="line"/>
      <point x="24.5" y="-149.0" type="line"/>
      <point x="35.0" y="-151.0"/>
      <point x="104.5" y="-154.0"/>
      <point x="130.5" y="-154.0" type="curve" smooth="yes"/>
      <point x="211.0" y="-154.0"/>
      <point x="239.0" y="-125.5"/>
      <point x="239.0" y="-39.5" type="curve" smooth="yes"/>
      <point x="239.0" y="216.5" type="line" smooth="yes"/>
      <point x="239.0" y="280.5"/>
      <point x="261.5" y="316.0"/>
      <point x="310.5" y="316.0" type="curve"/>
    </contour>
  </outline>
</glyph>
<glyph name="asciitilde" format="1">
  <advance width="543.0"/>
  <unicode hex="007E"/>
  <outline>
    <contour>
      <point x="110.0" y="232.5" type="line"/>
      <point x="143.0" y="283.5"/>
      <point x="169.5" y="305.5"/>
      <point x="199.0" y="305.5" type="curve" smooth="yes"/>
      <point x="248.0" y="305.5"/>
      <point x="287.0" y="231.0"/>
      <point x="358.0" y="231.0" type="curve" smooth="yes"/>
      <point x="421.5" y="231.0"/>
      <point x="472.5" y="295.5"/>
      <point x="501.5" y="349.0" type="curve" smooth="yes"/>
      <point x="430.5" y="388.5" type="line"/>
      <point x="411.0" y="344.5"/>
      <point x="379.5" y="317.5"/>
      <point x="348.5" y="317.5" type="curve" smooth="yes"/>
      <point x="294.0" y="317.5"/>
      <point x="257.0" y="391.5"/>
      <point x="189.5" y="391.5" type="curve" smooth="yes"/>
      <point x="140.5" y="391.5"/>
      <point x="107.5" y="366.5"/>
      <point x="42.0" y="277.0" type="curve"/>
    </contour>
  </outline>
</glyph>
<glyph name="cent" format="1">
  <advance width="413.0"/>
  <unicode hex="00A2"/>
  <outline>
    <contour>
      <point x="219.5" y="-119.5" type="line"/>
      <point x="294.5" y="-119.5" type="line"/>
      <point x="294.5" y="41.5" type="line"/>
      <point x="219.5" y="40.0" type="line"/>
    </contour>
    <contour>
      <point x="219.5" y="518.5" type="line"/>
      <point x="294.5" y="516.5" type="line"/>
      <point x="294.5" y="660.5" type="line"/>
      <point x="219.5" y="660.5" type="line"/>
    </contour>
    <component base="c"/>
  </outline>
</glyph>
<glyph name="currency" format="1">
  <advance width="555.0"/>
  <unicode hex="00A4"/>
  <outline>
    <contour>
      <point x="126.0" y="370.0" type="curve" smooth="yes"/>
      <point x="126.0" y="260.0"/>
      <point x="186.5" y="187.0"/>
      <point x="277.0" y="187.0" type="curve" smooth="yes"/>
      <point x="367.0" y="187.0"/>
      <point x="427.0" y="260.0"/>
      <point x="427.0" y="370.0" type="curve" smooth="yes"/>
      <point x="427.0" y="479.0"/>
      <point x="367.5" y="552.0"/>
      <point x="278.0" y="552.0" type="curve" smooth="yes"/>
      <point x="187.0" y="552.0"/>
      <point x="126.0" y="479.0"/>
    </contour>
    <contour>
      <point x="200.0" y="370.0" type="curve" smooth="yes"/>
      <point x="200.0" y="444.5"/>
      <point x="230.0" y="485.0"/>
      <point x="277.0" y="485.0" type="curve" smooth="yes"/>
      <point x="323.5" y="485.0"/>
      <point x="353.0" y="445.0"/>
      <point x="353.0" y="370.0" type="curve" smooth="yes"/>
      <point x="353.0" y="295.5"/>
      <point x="324.0" y="254.0"/>
      <point x="277.0" y="254.0" type="curve" smooth="yes"/>
      <point x="230.0" y="254.0"/>
      <point x="200.0" y="296.5"/>
    </contour>
    <contour>
      <point x="38.0" y="561.5" type="line"/>
      <point x="92.0" y="506.5" type="line"/>
      <point x="169.5" y="451.0" type="line"/>
      <point x="196.5" y="477.5" type="line"/>
      <point x="140.5" y="555.5" type="line"/>
      <point x="85.5" y="609.5" type="line"/>
    </contour>
    <contour>
      <point x="85.5" y="130.5" type="line"/>
      <point x="140.5" y="184.5" type="line"/>
      <point x="196.5" y="263.5" type="line"/>
      <point x="170.5" y="289.5" type="line"/>
      <point x="92.0" y="233.5" type="line"/>
      <point x="38.0" y="178.5" type="line"/>
    </contour>
    <contour>
      <point x="516.5" y="178.5" type="line"/>
      <point x="462.5" y="233.5" type="line"/>
      <point x="384.0" y="289.5" type="line"/>
      <point x="358.0" y="263.5" type="line"/>
      <point x="414.0" y="184.5" type="line"/>
      <point x="469.0" y="130.5" type="line"/>
    </contour>
    <contour>
      <point x="469.0" y="609.5" type="line"/>
      <point x="414.0" y="555.5" type="line"/>
      <point x="357.0" y="475.5" type="line"/>
      <point x="384.0" y="450.5" type="line"/>
      <point x="462.5" y="506.5" type="line"/>
      <point x="516.5" y="561.5" type="line"/>
    </contour>
  </outline>
</glyph>
<glyph name="yen" format="1">
  <advance width="634.0"/>
  <unicode hex="00A5"/>
  <outline>
    <contour>
      <point x="98.5" y="84.0" type="line"/>
      <point x="535.0" y="84.0" type="line"/>
      <point x="535.0" y="166.0" type="line"/>
      <point x="98.5" y="166.0" type="line"/>
    </contour>
    <contour>
      <point x="98.5" y="246.5" type="line"/>
      <point x="535.0" y="246.5" type="line"/>
      <point x="535.0" y="328.5" type="line"/>
      <point x="98.5" y="328.5" type="line"/>
    </contour>
    <component base="Y" xOffset="24.5"/>
  </outline>
</glyph>
<glyph name="brokenbar" format="1">
  <advance width="233.5"/>
  <unicode hex="00A6"/>
  <outline>
    <contour>
      <point x="64.0" y="-220.0" type="line"/>
      <point x="169.5" y="-220.0" type="line"/>
      <point x="169.5" y="204.0" type="line"/>
      <point x="64.0" y="204.0" type="line"/>
    </contour>
    <contour>
      <point x="64.0" y="384.0" type="line"/>
      <point x="169.5" y="384.0" type="line"/>
      <point x="169.5" y="808.0" type="line"/>
      <point x="64.0" y="808.0" type="line"/>
    </contour>
  </outline>
</glyph>
<glyph name="section" format="1">
  <advance width="420.5"/>
  <unicode hex="00A7"/>
  <outline>
    <contour>
      <point x="193.0" y="-10.5" type="curve" smooth="yes"/>
      <point x="308.0" y="-10.5"/>
      <point x="378.5" y="53.0"/>
      <point x="378.5" y="154.5" type="curve" smooth="yes"/>
      <point x="378.5" y="201.0"/>
      <point x="367.0" y="233.0"/>
      <point x="347.0" y="257.0" type="curve"/>
      <point x="367.0" y="284.0"/>
      <point x="378.5" y="318.0"/>
      <point x="378.5" y="358.5" type="curve" smooth="yes"/>
      <point x="378.5" y="476.0"/>
      <point x="306.0" y="501.5"/>
      <point x="228.5" y="520.5" type="curve" smooth="yes"/>
      <point x="186.5" y="531.0"/>
      <point x="153.0" y="544.5"/>
      <point x="153.0" y="596.5" type="curve" smooth="yes"/>
      <point x="153.0" y="641.0"/>
      <point x="186.0" y="668.0"/>
      <point x="241.5" y="668.0" type="curve" smooth="yes"/>
      <point x="271.5" y="668.0"/>
      <point x="298.0" y="664.5"/>
      <point x="355.5" y="651.0" type="curve"/>
      <point x="355.5" y="736.5" type="line"/>
      <point x="302.5" y="749.0"/>
      <point x="259.0" y="755.0"/>
      <point x="219.5" y="755.0" type="curve" smooth="yes"/>
      <point x="112.0" y="755.0"/>
      <point x="48.5" y="694.0"/>
      <point x="48.5" y="592.0" type="curve" smooth="yes"/>
      <point x="48.5" y="543.5"/>
      <point x="60.0" y="511.0"/>
      <point x="77.5" y="489.0" type="curve"/>
      <point x="58.5" y="462.5"/>
      <point x="48.5" y="428.5"/>
      <point x="48.5" y="388.0" type="curve" smooth="yes"/>
      <point x="48.5" y="250.5"/>
      <point x="134.5" y="238.0"/>
      <point x="197.5" y="225.5" type="curve" smooth="yes"/>
      <point x="249.0" y="213.5"/>
      <point x="271.5" y="189.5"/>
      <point x="271.5" y="147.5" type="curve" smooth="yes"/>
      <point x="271.5" y="101.5"/>
      <point x="242.0" y="74.5"/>
      <point x="189.0" y="74.5" type="curve" smooth="yes"/>
      <point x="143.5" y="74.5"/>
      <point x="87.5" y="84.5"/>
      <point x="45.5" y="99.5" type="curve"/>
      <point x="45.5" y="14.0" type="line"/>
      <point x="102.0" y="-2.5"/>
      <point x="148.5" y="-10.5"/>
    </contour>
    <contour>
      <point x="262.0" y="295.5" type="curve"/>
      <point x="245.5" y="302.0"/>
      <point x="228.0" y="308.5"/>
      <point x="210.5" y="315.0" type="curve" smooth="yes"/>
      <point x="176.0" y="327.5"/>
      <point x="148.0" y="340.5"/>
      <point x="148.0" y="392.5" type="curve" smooth="yes"/>
      <point x="148.0" y="413.0"/>
      <point x="156.5" y="431.0"/>
      <point x="172.5" y="445.5" type="curve"/>
      <point x="188.5" y="438.0"/>
      <point x="205.0" y="433.0"/>
      <point x="220.5" y="427.5" type="curve" smooth="yes"/>
      <point x="259.5" y="414.5"/>
      <point x="276.5" y="391.0"/>
      <point x="276.5" y="351.5" type="curve" smooth="yes"/>
      <point x="276.5" y="328.5"/>
      <point x="271.0" y="310.0"/>
    </contour>
  </outline>
</glyph>
<glyph name="dieresis" format="1">
  <advance width="428.5"/>
  <unicode hex="00A8"/>
  <outline>
    <contour>
      <point x="209.0" y="600.0" type="move" name="_top"/>
    </contour>
    <contour>
      <point x="107.5" y="622.0" type="curve" smooth="yes"/>
      <point x="146.5" y="622.0"/>
      <point x="167.5" y="640.0"/>
      <point x="167.5" y="680.5" type="curve" smooth="yes"/>
      <point x="167.5" y="721.0"/>
      <point x="146.5" y="738.5"/>
      <point x="107.5" y="738.5" type="curve" smooth="yes"/>
      <point x="67.0" y="738.5"/>
      <point x="47.5" y="720.5"/>
      <point x="47.5" y="680.5" type="curve" smooth="yes"/>
      <point x="47.5" y="640.0"/>
      <point x="67.0" y="622.0"/>
    </contour>
    <contour>
      <point x="310.5" y="622.0" type="curve" smooth="yes"/>
      <point x="349.0" y="622.0"/>
      <point x="370.0" y="640.0"/>
      <point x="370.0" y="680.5" type="curve" smooth="yes"/>
      <point x="370.0" y="721.0"/>
      <point x="349.0" y="738.5"/>
      <point x="310.5" y="738.5" type="curve" smooth="yes"/>
      <point x="270.0" y="738.5"/>
      <point x="250.5" y="720.5"/>
      <point x="250.5" y="680.5" type="curve" smooth="yes"/>
      <point x="250.5" y="640.0"/>
      <point x="270.0" y="622.0"/>
    </contour>
  </outline>
</glyph>
<glyph name="copyright" format="1">
  <advance width="815.0"/>
  <unicode hex="00A9"/>
  <outline>
    <contour>
      <point x="423.0" y="163.5" type="curve" smooth="yes"/>
      <point x="454.0" y="163.5"/>
      <point x="487.0" y="167.5"/>
      <point x="512.0" y="174.5" type="curve"/>
      <point x="512.0" y="242.5" type="line"/>
      <point x="480.5" y="236.5"/>
      <point x="451.0" y="233.0"/>
      <point x="430.0" y="233.0" type="curve" smooth="yes"/>
      <point x="355.0" y="233.0"/>
      <point x="317.5" y="275.0"/>
      <point x="317.5" y="367.5" type="curve" smooth="yes"/>
      <point x="317.5" y="460.0"/>
      <point x="353.5" y="503.0"/>
      <point x="431.5" y="503.0" type="curve" smooth="yes"/>
      <point x="453.5" y="503.0"/>
      <point x="481.0" y="500.0"/>
      <point x="511.0" y="494.0" type="curve"/>
      <point x="511.0" y="563.0" type="line"/>
      <point x="485.5" y="569.0"/>
      <point x="453.0" y="573.0"/>
      <point x="423.0" y="573.0" type="curve" smooth="yes"/>
      <point x="304.5" y="573.0"/>
      <point x="236.5" y="504.5"/>
      <point x="236.5" y="367.0" type="curve" smooth="yes"/>
      <point x="236.5" y="231.5"/>
      <point x="304.5" y="163.5"/>
    </contour>
    <contour>
      <point x="407.5" y="-10.5" type="curve" smooth="yes"/>
      <point x="631.0" y="-10.5"/>
      <point x="778.5" y="142.5"/>
      <point x="778.5" y="370.0" type="curve" smooth="yes"/>
      <point x="778.5" y="597.5"/>
      <point x="631.0" y="750.5"/>
      <point x="407.5" y="750.5" type="curve" smooth="yes"/>
      <point x="184.0" y="750.5"/>
      <point x="36.5" y="597.5"/>
      <point x="36.5" y="370.0" type="curve" smooth="yes"/>
      <point x="36.5" y="142.5"/>
      <point x="184.0" y="-10.5"/>
    </contour>
    <contour>
      <point x="407.5" y="55.5" type="curve" smooth="yes"/>
      <point x="222.0" y="55.5"/>
      <point x="106.0" y="180.5"/>
      <point x="106.0" y="370.0" type="curve" smooth="yes"/>
      <point x="106.0" y="559.5"/>
      <point x="222.0" y="684.5"/>
      <point x="407.5" y="684.5" type="curve" smooth="yes"/>
      <point x="592.5" y="684.5"/>
      <point x="708.5" y="559.5"/>
      <point x="708.5" y="370.0" type="curve" smooth="yes"/>
      <point x="708.5" y="180.5"/>
      <point x="592.5" y="55.5"/>
    </contour>
  </outline>
</glyph>
<glyph name="ordfeminine" format="1">
  <advance width="387.0"/>
  <unicode hex="00AA"/>
  <outline>
    <contour>
      <point x="135.0" y="348.0" type="curve" smooth="yes"/>
      <point x="173.5" y="348.0"/>
      <point x="213.5" y="365.5"/>
      <point x="251.0" y="399.0" type="curve"/>
      <point x="255.0" y="399.0" type="line"/>
      <point x="259.5" y="352.0" type="line"/>
      <point x="337.0" y="352.0" type="line"/>
      <point x="337.0" y="622.0" type="line" smooth="yes"/>
      <point x="337.0" y="708.0"/>
      <point x="292.5" y="746.0"/>
      <point x="189.0" y="746.0" type="curve" smooth="yes"/>
      <point x="152.5" y="746.0"/>
      <point x="110.5" y="741.5"/>
      <point x="61.5" y="732.5" type="curve"/>
      <point x="68.5" y="666.0" type="line"/>
      <point x="112.0" y="673.5"/>
      <point x="149.0" y="676.0"/>
      <point x="175.5" y="676.0" type="curve" smooth="yes"/>
      <point x="232.5" y="676.0"/>
      <point x="246.0" y="661.5"/>
      <point x="246.0" y="602.0" type="curve" smooth="yes"/>
      <point x="246.0" y="445.5" type="line"/>
      <point x="213.0" y="423.5"/>
      <point x="189.5" y="413.0"/>
      <point x="168.5" y="413.0" type="curve" smooth="yes"/>
      <point x="138.0" y="413.0"/>
      <point x="122.0" y="431.0"/>
      <point x="122.0" y="465.5" type="curve" smooth="yes"/>
      <point x="122.0" y="503.5"/>
      <point x="141.5" y="518.5"/>
      <point x="201.5" y="524.0" type="curve" smooth="yes"/>
      <point x="267.5" y="529.0" type="line"/>
      <point x="262.5" y="582.5" type="line"/>
      <point x="163.5" y="575.0" type="line" smooth="yes"/>
      <point x="76.5" y="569.0"/>
      <point x="32.0" y="527.0"/>
      <point x="32.0" y="458.0" type="curve" smooth="yes"/>
      <point x="32.0" y="392.0"/>
      <point x="72.5" y="348.0"/>
    </contour>
  </outline>
</glyph>
<glyph name="uni00AD" format="1">
  <advance width="360.0"/>
  <unicode hex="00AD"/>
  <outline>
    <contour>
      <point x="50.0" y="237.0" type="line"/>
      <point x="310.0" y="237.0" type="line"/>
      <point x="310.0" y="323.0" type="line"/>
      <point x="50.0" y="323.0" type="line"/>
    </contour>
  </outline>
</glyph>
<glyph name="registered" format="1">
  <advance width="688.5"/>
  <unicode hex="00AE"/>
  <outline>
    <contour>
      <point x="233.5" y="289.5" type="line"/>
      <point x="290.5" y="289.5" type="line"/>
      <point x="290.5" y="406.5" type="line"/>
      <point x="356.0" y="405.5" type="line"/>
      <point x="423.0" y="289.5" type="line"/>
      <point x="484.5" y="289.5" type="line"/>
      <point x="408.0" y="418.5" type="line"/>
      <point x="408.5" y="421.5" type="line"/>
      <point x="451.5" y="435.0"/>
      <point x="474.5" y="468.5"/>
      <point x="474.5" y="516.5" type="curve" smooth="yes"/>
      <point x="474.5" y="587.5"/>
      <point x="428.0" y="621.5"/>
      <point x="329.0" y="621.5" type="curve" smooth="yes"/>
      <point x="300.5" y="621.5"/>
      <point x="268.5" y="619.0"/>
      <point x="233.5" y="615.0" type="curve"/>
    </contour>
    <contour>
      <point x="331.5" y="452.5" type="curve" smooth="yes"/>
      <point x="320.0" y="452.5"/>
      <point x="298.0" y="453.0"/>
      <point x="290.5" y="453.5" type="curve"/>
      <point x="290.5" y="573.5" type="line"/>
      <point x="304.0" y="575.0"/>
      <point x="326.0" y="576.0"/>
      <point x="335.0" y="576.0" type="curve" smooth="yes"/>
      <point x="394.0" y="576.0"/>
      <point x="416.5" y="556.0"/>
      <point x="416.5" y="515.5" type="curve" smooth="yes"/>
      <point x="416.5" y="472.0"/>
      <point x="391.0" y="452.5"/>
    </contour>
    <contour>
      <point x="344.0" y="141.0" type="curve" smooth="yes"/>
      <point x="525.0" y="141.0"/>
      <point x="651.0" y="267.5"/>
      <point x="651.0" y="446.5" type="curve" smooth="yes"/>
      <point x="651.0" y="625.5"/>
      <point x="525.0" y="752.5"/>
      <point x="344.0" y="752.5" type="curve" smooth="yes"/>
      <point x="163.0" y="752.5"/>
      <point x="37.5" y="625.5"/>
      <point x="37.5" y="446.5" type="curve" smooth="yes"/>
      <point x="37.5" y="267.5"/>
      <point x="163.0" y="141.0"/>
    </contour>
    <contour>
      <point x="344.0" y="197.0" type="curve" smooth="yes"/>
      <point x="195.0" y="197.0"/>
      <point x="96.5" y="299.0"/>
      <point x="96.5" y="446.5" type="curve" smooth="yes"/>
      <point x="96.5" y="594.0"/>
      <point x="195.0" y="696.5"/>
      <point x="344.0" y="696.5" type="curve" smooth="yes"/>
      <point x="492.5" y="696.5"/>
      <point x="592.0" y="594.0"/>
      <point x="592.0" y="446.5" type="curve" smooth="yes"/>
      <point x="592.0" y="299.0"/>
      <point x="492.5" y="197.0"/>
    </contour>
  </outline>
</glyph>
<glyph name="degree" format="1">
  <advance width="393.5"/>
  <unicode hex="00B0"/>
  <outline>
    <contour>
      <point x="197.0" y="371.0" type="curve" smooth="yes"/>
      <point x="295.5" y="371.0"/>
      <point x="362.0" y="450.0"/>
      <point x="362.0" y="560.0" type="curve" smooth="yes"/>
      <point x="362.0" y="670.0"/>
      <point x="295.5" y="750.0"/>
      <point x="197.0" y="750.0" type="curve" smooth="yes"/>
      <point x="99.0" y="750.0"/>
      <point x="31.5" y="670.0"/>
      <point x="31.5" y="560.0" type="curve" smooth="yes"/>
      <point x="31.5" y="450.0"/>
      <point x="99.0" y="371.0"/>
    </contour>
    <contour>
      <point x="197.0" y="436.5" type="curve" smooth="yes"/>
      <point x="131.0" y="436.5"/>
      <point x="96.5" y="486.0"/>
      <point x="96.5" y="560.0" type="curve" smooth="yes"/>
      <point x="96.5" y="634.0"/>
      <point x="131.0" y="684.5"/>
      <point x="197.0" y="684.5" type="curve" smooth="yes"/>
      <point x="263.0" y="684.5"/>
      <point x="296.5" y="634.0"/>
      <point x="296.5" y="560.0" type="curve" smooth="yes"/>
      <point x="296.5" y="486.0"/>
      <point x="263.0" y="436.5"/>
    </contour>
  </outline>
</glyph>
<glyph name="acute" format="1">
  <advance width="238.0"/>
  <unicode hex="00B4"/>
  <outline>
    <contour>
      <point x="73.0" y="600.0" type="move" name="_top"/>
    </contour>
    <contour>
      <point x="112.5" y="610.0" type="line"/>
      <point x="217.5" y="803.0" type="line"/>
      <point x="102.0" y="803.0" type="line"/>
      <point x="32.5" y="618.0" type="line"/>
    </contour>
  </outline>
</glyph>
<glyph name="paragraph" format="1">
  <advance width="508.5"/>
  <unicode hex="00B6"/>
  <outline>
    <contour>
      <point x="298.5" y="0.0" type="line"/>
      <point x="238.5" y="0.0" type="line"/>
      <point x="238.5" y="266.0" type="line"/>
      <point x="231.0" y="265.0"/>
      <point x="222.5" y="265.0"/>
      <point x="214.5" y="265.0" type="curve" smooth="yes"/>
      <point x="102.0" y="265.0"/>
      <point x="29.5" y="326.0"/>
      <point x="29.5" y="505.0" type="curve" smooth="yes"/>
      <point x="29.5" y="684.0"/>
      <point x="104.0" y="745.0"/>
      <point x="218.0" y="745.0" type="curve" smooth="yes"/>
      <point x="243.5" y="745.0"/>
      <point x="270.0" y="741.0"/>
      <point x="298.5" y="735.0" type="curve"/>
    </contour>
    <contour>
      <point x="432.5" y="0.0" type="line"/>
      <point x="356.0" y="0.0" type="line"/>
      <point x="356.0" y="735.0" type="line"/>
      <point x="432.5" y="735.0" type="line"/>
    </contour>
  </outline>
</glyph>
<glyph name="periodcentered" format="1">
  <advance width="220.0"/>
  <unicode hex="00B7"/>
  <outline>
    <contour>
      <point x="109.5" y="370.0" type="move" name="_periodcentered"/>
    </contour>
    <contour>
      <point x="109.5" y="305.0" type="curve" smooth="yes"/>
      <point x="153.0" y="305.0"/>
      <point x="176.0" y="324.5"/>
      <point x="176.0" y="370.0" type="curve" smooth="yes"/>
      <point x="176.0" y="415.5"/>
      <point x="153.0" y="435.0"/>
      <point x="109.5" y="435.0" type="curve" smooth="yes"/>
      <point x="65.0" y="435.0"/>
      <point x="44.0" y="415.5"/>
      <point x="44.0" y="370.0" type="curve" smooth="yes"/>
      <point x="44.0" y="324.5"/>
      <point x="65.0" y="305.0"/>
    </contour>
  </outline>
</glyph>
<glyph name="onesuperior" format="1">
  <advance width="290.5"/>
  <unicode hex="00B9"/>
  <outline>
    <contour>
      <point x="131.5" y="300.0" type="line"/>
      <point x="231.0" y="300.0" type="line"/>
      <point x="231.0" y="846.0" type="line"/>
      <point x="159.0" y="846.0" type="line"/>
      <point x="13.5" y="749.0" type="line"/>
      <point x="11.0" y="733.5" type="line"/>
      <point x="30.5" y="689.0" type="line"/>
      <point x="45.5" y="689.0" type="line"/>
      <point x="131.5" y="736.0" type="line"/>
    </contour>
  </outline>
</glyph>
<glyph name="AE" format="1">
  <advance width="786.5"/>
  <unicode hex="00C6"/>
  <outline>
    <contour>
      <point x="464.0" y="782.5" type="move" name="topUC"/>
    </contour>
    <contour>
      <point x="391.5" y="0.0" type="line"/>
      <point x="751.0" y="0.0" type="line"/>
      <point x="751.0" y="98.0" type="line"/>
      <point x="502.5" y="98.0" type="line"/>
      <point x="472.5" y="642.0" type="line"/>
      <point x="742.0" y="642.0" type="line"/>
      <point x="742.0" y="740.0" type="line"/>
      <point x="361.5" y="740.0" type="line"/>
    </contour>
    <contour>
      <point x="1.5" y="0.0" type="line"/>
      <point x="118.0" y="0.0" type="line"/>
      <point x="319.0" y="649.0" type="line"/>
      <point x="371.5" y="649.0" type="line"/>
      <point x="436.0" y="740.0" type="line"/>
      <point x="231.0" y="740.0" type="line"/>
      <point x="1.5" y="6.0" type="line"/>
    </contour>
    <contour>
      <point x="131.0" y="202.5" type="line"/>
      <point x="444.0" y="202.5" type="line"/>
      <point x="444.0" y="300.5" type="line"/>
      <point x="131.0" y="300.5" type="line"/>
    </contour>
    <contour>
      <point x="451.0" y="324.0" type="line"/>
      <point x="721.5" y="324.0" type="line"/>
      <point x="721.5" y="422.0" type="line"/>
      <point x="451.0" y="422.0" type="line"/>
    </contour>
  </outline>
</glyph>
<glyph name="multiply" format="1">
  <advance width="466.0"/>
  <unicode hex="00D7"/>
  <outline>
    <contour>
      <point x="367.0" y="177.0" type="line"/>
      <point x="426.5" y="236.5" type="line"/>
      <point x="99.0" y="564.0" type="line"/>
      <point x="39.5" y="504.5" type="line"/>
    </contour>
    <contour>
      <point x="99.0" y="177.0" type="line"/>
      <point x="426.5" y="504.5" type="line"/>
      <point x="366.5" y="564.0" type="line"/>
      <point x="39.5" y="236.5" type="line"/>
    </contour>
  </outline>
</glyph>
<glyph name="Oslash" format="1">
  <advance width="644.5"/>
  <unicode hex="00D8"/>
  <outline>
    <contour>
      <point x="321.0" y="782.5" type="move" name="topUC"/>
    </contour>
    <contour>
      <point x="322.0" y="-10.0" type="curve" smooth="yes"/>
      <point x="511.5" y="-10.0"/>
      <point x="603.5" y="114.0"/>
      <point x="603.5" y="369.0" type="curve" smooth="yes"/>
      <point x="603.5" y="626.0"/>
      <point x="512.0" y="750.0"/>
      <point x="322.0" y="750.0" type="curve" smooth="yes"/>
      <point x="133.5" y="750.0"/>
      <point x="41.5" y="625.0"/>
      <point x="41.5" y="369.0" type="curve" smooth="yes"/>
      <point x="41.5" y="114.5"/>
      <point x="133.5" y="-10.0"/>
    </contour>
    <contour>
      <point x="322.0" y="86.5" type="curve" smooth="yes"/>
      <point x="205.0" y="86.5"/>
      <point x="158.5" y="166.5"/>
      <point x="158.5" y="369.0" type="curve" smooth="yes"/>
      <point x="158.5" y="573.0"/>
      <point x="205.5" y="653.5"/>
      <point x="322.0" y="653.5" type="curve" smooth="yes"/>
      <point x="439.0" y="653.5"/>
      <point x="486.5" y="572.0"/>
      <point x="486.5" y="369.0" type="curve" smooth="yes"/>
      <point x="486.5" y="166.5"/>
      <point x="439.5" y="86.5"/>
    </contour>
    <contour>
      <point x="12.0" y="0.0" type="line"/>
      <point x="102.0" y="0.0" type="line"/>
      <point x="634.0" y="740.0" type="line"/>
      <point x="544.5" y="740.0" type="line"/>
    </contour>
  </outline>
</glyph>
<glyph name="Thorn" format="1">
  <advance width="556.0"/>
  <unicode hex="00DE"/>
  <outline>
    <contour>
      <point x="235.0" y="112.0" type="curve" smooth="yes"/>
      <point x="441.0" y="112.0"/>
      <point x="530.0" y="189.5"/>
      <point x="530.0" y="368.5" type="curve" smooth="yes"/>
      <point x="530.0" y="548.5"/>
      <point x="441.0" y="627.0"/>
      <point x="235.5" y="627.0" type="curve" smooth="yes"/>
      <point x="181.0" y="627.0"/>
      <point x="123.5" y="621.5"/>
      <point x="65.5" y="611.0" type="curve"/>
      <point x="65.5" y="123.0" type="line"/>
      <point x="119.0" y="115.5"/>
      <point x="178.0" y="112.0"/>
    </contour>
    <contour>
      <point x="251.0" y="206.0" type="curve" smooth="yes"/>
      <point x="235.0" y="206.0"/>
      <point x="197.5" y="207.5"/>
      <point x="180.0" y="209.5" type="curve"/>
      <point x="180.0" y="525.5" type="line"/>
      <point x="201.0" y="529.0"/>
      <point x="237.5" y="531.0"/>
      <point x="253.5" y="531.0" type="curve" smooth="yes"/>
      <point x="369.0" y="531.0"/>
      <point x="413.0" y="484.0"/>
      <point x="413.0" y="368.5" type="curve" smooth="yes"/>
      <point x="413.0" y="252.0"/>
      <point x="367.0" y="206.0"/>
    </contour>
    <contour>
      <point x="65.5" y="0.0" type="line"/>
      <point x="180.0" y="0.0" type="line"/>
      <point x="180.0" y="740.0" type="line"/>
      <point x="65.5" y="740.0" type="line"/>
    </contour>
  </outline>
</glyph>
<glyph name="germandbls" format="1">
  <advance width="584.5"/>
  <unicode hex="00DF"/>
  <outline>
    <contour>
      <point x="378.0" y="-10.5" type="curve" smooth="yes"/>
      <point x="493.0" y="-10.5"/>
      <point x="563.5" y="53.0"/>
      <point x="563.5" y="154.5" type="curve" smooth="yes"/>
      <point x="563.5" y="272.0"/>
      <point x="491.0" y="297.5"/>
      <point x="413.5" y="316.5" type="curve" smooth="yes"/>
      <point x="371.5" y="327.0"/>
      <point x="338.0" y="340.5"/>
      <point x="338.0" y="392.5" type="curve" smooth="yes"/>
      <point x="338.0" y="437.0"/>
      <point x="375.0" y="464.0"/>
      <point x="436.5" y="464.0" type="curve"/>
      <point x="494.5" y="464.0" type="line"/>
      <point x="488.5" y="551.0" type="line"/>
      <point x="414.5" y="551.0" type="line"/>
      <point x="305.0" y="551.0"/>
      <point x="233.5" y="486.5"/>
      <point x="233.5" y="388.0" type="curve" smooth="yes"/>
      <point x="233.5" y="250.5"/>
      <point x="319.5" y="238.0"/>
      <point x="382.5" y="225.5" type="curve" smooth="yes"/>
      <point x="434.0" y="213.5"/>
      <point x="456.5" y="189.5"/>
      <point x="456.5" y="147.5" type="curve" smooth="yes"/>
      <point x="456.5" y="101.5"/>
      <point x="427.0" y="74.5"/>
      <point x="374.0" y="74.5" type="curve" smooth="yes"/>
      <point x="329.0" y="74.5"/>
      <point x="273.0" y="84.5"/>
      <point x="230.5" y="99.5" type="curve"/>
      <point x="230.5" y="14.0" type="line"/>
      <point x="287.5" y="-2.5"/>
      <point x="334.0" y="-10.5"/>
    </contour>
    <contour>
      <point x="55.5" y="0.0" type="line"/>
      <point x="167.5" y="0.0" type="line"/>
      <point x="167.5" y="589.0" type="line" smooth="yes"/>
      <point x="167.5" y="687.0"/>
      <point x="197.0" y="722.0"/>
      <point x="280.5" y="722.0" type="curve" smooth="yes"/>
      <point x="363.5" y="722.0"/>
      <point x="393.5" y="686.0"/>
      <point x="393.5" y="589.0" type="curve" smooth="yes"/>
      <point x="393.5" y="464.0" type="line"/>
      <point x="505.5" y="464.0" type="line"/>
      <point x="505.5" y="589.0" type="line" smooth="yes"/>
      <point x="505.5" y="742.5"/>
      <point x="435.5" y="811.5"/>
      <point x="280.5" y="811.5" type="curve" smooth="yes"/>
      <point x="125.0" y="811.5"/>
      <point x="55.5" y="742.5"/>
      <point x="55.5" y="589.0" type="curve" smooth="yes"/>
    </contour>
  </outline>
</glyph>
<glyph name="ae" format="1">
  <advance width="744.5"/>
  <unicode hex="00E6"/>
  <outline>
    <contour>
      <point x="382.0" y="600.0" type="move" name="top"/>
    </contour>
    <contour>
      <point x="533.5" y="-9.0" type="curve" smooth="yes"/>
      <point x="586.5" y="-9.0"/>
      <point x="649.0" y="3.0"/>
      <point x="693.0" y="22.0" type="curve"/>
      <point x="688.0" y="108.0" type="line"/>
      <point x="628.0" y="88.0"/>
      <point x="578.0" y="78.5"/>
      <point x="539.5" y="78.5" type="curve" smooth="yes"/>
      <point x="460.5" y="78.5"/>
      <point x="424.0" y="127.5"/>
      <point x="421.0" y="231.5" type="curve"/>
      <point x="708.0" y="231.5" type="line"/>
      <point x="711.5" y="253.0"/>
      <point x="712.5" y="269.5"/>
      <point x="712.5" y="306.0" type="curve" smooth="yes"/>
      <point x="712.5" y="469.0"/>
      <point x="653.0" y="549.0"/>
      <point x="531.0" y="549.0" type="curve" smooth="yes"/>
      <point x="460.0" y="549.0"/>
      <point x="407.0" y="521.0"/>
      <point x="373.0" y="467.0" type="curve"/>
      <point x="366.0" y="467.0" type="line"/>
      <point x="345.0" y="521.5"/>
      <point x="300.5" y="548.0"/>
      <point x="227.0" y="548.0" type="curve" smooth="yes"/>
      <point x="183.0" y="548.0"/>
      <point x="126.0" y="541.5"/>
      <point x="64.5" y="530.5" type="curve"/>
      <point x="73.0" y="446.0" type="line"/>
      <point x="107.0" y="454.5"/>
      <point x="175.0" y="462.0"/>
      <point x="208.5" y="462.0" type="curve" smooth="yes"/>
      <point x="281.0" y="462.0"/>
      <point x="306.5" y="436.0"/>
      <point x="308.0" y="365.5" type="curve" smooth="yes"/>
      <point x="308.0" y="317.0" type="line"/>
      <point x="214.5" y="310.5" type="line" smooth="yes"/>
      <point x="87.5" y="302.0"/>
      <point x="24.0" y="247.0"/>
      <point x="24.0" y="144.5" type="curve" smooth="yes"/>
      <point x="24.0" y="54.0"/>
      <point x="78.0" y="-5.0"/>
      <point x="161.5" y="-5.0" type="curve" smooth="yes"/>
      <point x="219.5" y="-5.0"/>
      <point x="273.0" y="20.5"/>
      <point x="357.0" y="81.5" type="curve"/>
      <point x="364.0" y="81.0" type="line"/>
      <point x="399.0" y="21.5"/>
      <point x="454.5" y="-9.0"/>
    </contour>
    <contour>
      <point x="202.0" y="80.5" type="curve" smooth="yes"/>
      <point x="159.5" y="80.5"/>
      <point x="136.0" y="107.0"/>
      <point x="136.0" y="154.5" type="curve" smooth="yes"/>
      <point x="136.0" y="207.5"/>
      <point x="165.0" y="233.0"/>
      <point x="238.5" y="239.5" type="curve" smooth="yes"/>
      <point x="308.0" y="245.5" type="line"/>
      <point x="308.0" y="216.5"/>
      <point x="311.5" y="155.5"/>
      <point x="318.5" y="136.5" type="curve"/>
      <point x="267.5" y="102.5"/>
      <point x="233.5" y="80.5"/>
    </contour>
    <contour>
      <point x="421.0" y="305.0" type="line"/>
      <point x="426.0" y="410.0"/>
      <point x="462.0" y="462.5"/>
      <point x="528.0" y="462.5" type="curve" smooth="yes"/>
      <point x="584.5" y="462.5"/>
      <point x="608.0" y="417.5"/>
      <point x="611.0" y="305.0" type="curve"/>
    </contour>
  </outline>
</glyph>
<glyph name="eth" format="1">
  <advance width="512.5"/>
  <unicode hex="00F0"/>
  <outline>
    <contour>
      <point x="254.0" y="-9.5" type="curve" smooth="yes"/>
      <point x="398.5" y="-9.5"/>
      <point x="474.5" y="87.0"/>
      <point x="474.5" y="270.0" type="curve" smooth="yes"/>
      <point x="474.5" y="473.5"/>
      <point x="418.5" y="661.5"/>
      <point x="313.5" y="808.0" type="curve"/>
      <point x="198.0" y="808.0" type="line"/>
      <point x="260.5" y="724.5"/>
      <point x="309.5" y="619.0"/>
      <point x="340.5" y="513.0" type="curve"/>
      <point x="317.0" y="538.5"/>
      <point x="287.5" y="550.0"/>
      <point x="254.0" y="550.0" type="curve" smooth="yes"/>
      <point x="110.0" y="550.0"/>
      <point x="33.5" y="453.0"/>
      <point x="33.5" y="270.0" type="curve" smooth="yes"/>
      <point x="33.5" y="87.5"/>
      <point x="109.5" y="-9.5"/>
    </contour>
    <contour>
      <point x="254.0" y="79.0" type="curve" smooth="yes"/>
      <point x="176.0" y="79.0"/>
      <point x="146.5" y="128.0"/>
      <point x="146.5" y="270.0" type="curve" smooth="yes"/>
      <point x="146.5" y="412.0"/>
      <point x="176.0" y="461.5"/>
      <point x="254.0" y="461.5" type="curve" smooth="yes"/>
      <point x="344.0" y="461.5"/>
      <point x="361.5" y="382.5"/>
      <point x="361.5" y="270.0" type="curve" smooth="yes"/>
      <point x="361.5" y="129.5"/>
      <point x="331.5" y="79.0"/>
    </contour>
    <contour>
      <point x="186.0" y="615.0" type="line"/>
      <point x="488.0" y="655.0" type="line"/>
      <point x="488.0" y="729.0" type="line"/>
      <point x="186.0" y="689.0" type="line"/>
    </contour>
  </outline>
</glyph>
<glyph name="divide" format="1">
  <advance width="505.0"/>
  <unicode hex="00F7"/>
  <outline>
    <contour>
      <point x="255.0" y="140.0" type="curve" smooth="yes"/>
      <point x="288.5" y="140.0"/>
      <point x="312.5" y="160.0"/>
      <point x="312.5" y="198.5" type="curve" smooth="yes"/>
      <point x="312.5" y="236.0"/>
      <point x="288.5" y="255.5"/>
      <point x="255.0" y="255.5" type="curve" smooth="yes"/>
      <point x="221.0" y="255.5"/>
      <point x="197.5" y="236.5"/>
      <point x="197.5" y="198.5" type="curve" smooth="yes"/>
      <point x="197.5" y="160.0"/>
      <point x="221.0" y="140.0"/>
    </contour>
    <contour>
      <point x="43.0" y="328.0" type="line"/>
      <point x="462.0" y="328.0" type="line"/>
      <point x="462.0" y="412.0" type="line"/>
      <point x="43.0" y="412.0" type="line"/>
    </contour>
    <contour>
      <point x="255.0" y="480.5" type="curve" smooth="yes"/>
      <point x="288.5" y="480.5"/>
      <point x="312.5" y="499.5"/>
      <point x="312.5" y="537.0" type="curve" smooth="yes"/>
      <point x="312.5" y="575.5"/>
      <point x="288.5" y="596.0"/>
      <point x="255.0" y="596.0" type="curve" smooth="yes"/>
      <point x="221.0" y="596.0"/>
      <point x="197.5" y="576.0"/>
      <point x="197.5" y="537.0" type="curve" smooth="yes"/>
      <point x="197.5" y="499.5"/>
      <point x="221.0" y="480.5"/>
    </contour>
  </outline>
</glyph>
<glyph name="oslash" format="1">
  <advance width="512.5"/>
  <unicode hex="00F8"/>
  <outline>
    <contour>
      <point x="258.0" y="600.0" type="move" name="top"/>
    </contour>
    <contour>
      <point x="256.5" y="-9.5" type="curve" smooth="yes"/>
      <point x="401.0" y="-9.5"/>
      <point x="477.0" y="87.0"/>
      <point x="477.0" y="270.0" type="curve" smooth="yes"/>
      <point x="477.0" y="453.0"/>
      <point x="401.0" y="550.0"/>
      <point x="256.5" y="550.0" type="curve" smooth="yes"/>
      <point x="112.5" y="550.0"/>
      <point x="36.0" y="453.0"/>
      <point x="36.0" y="270.0" type="curve" smooth="yes"/>
      <point x="36.0" y="87.5"/>
      <point x="112.0" y="-9.5"/>
    </contour>
    <contour>
      <point x="256.5" y="79.0" type="curve" smooth="yes"/>
      <point x="178.5" y="79.0"/>
      <point x="149.0" y="129.0"/>
      <point x="149.0" y="270.0" type="curve" smooth="yes"/>
      <point x="149.0" y="411.5"/>
      <point x="178.5" y="461.5"/>
      <point x="256.5" y="461.5" type="curve" smooth="yes"/>
      <point x="334.0" y="461.5"/>
      <point x="364.0" y="411.5"/>
      <point x="364.0" y="270.0" type="curve" smooth="yes"/>
      <point x="364.0" y="128.5"/>
      <point x="334.5" y="79.0"/>
    </contour>
    <contour>
      <point x="13.0" y="0.0" type="line"/>
      <point x="88.0" y="0.0" type="line"/>
      <point x="497.5" y="540.0" type="line"/>
      <point x="423.5" y="540.0" type="line"/>
    </contour>
  </outline>
</glyph>
<glyph name="thorn" format="1">
  <advance width="509.5"/>
  <unicode hex="00FE"/>
  <outline>
    <contour>
      <point x="55.5" y="-220.0" type="line"/>
      <point x="167.5" y="-220.0" type="line"/>
      <point x="167.5" y="-3.0" type="line"/>
      <point x="193.0" y="-7.0"/>
      <point x="214.5" y="-9.5"/>
      <point x="234.0" y="-9.5" type="curve" smooth="yes"/>
      <point x="392.0" y="-9.5"/>
      <point x="475.5" y="92.5"/>
      <point x="475.5" y="285.0" type="curve" smooth="yes"/>
      <point x="475.5" y="460.0"/>
      <point x="417.5" y="549.0"/>
      <point x="303.0" y="549.0" type="curve" smooth="yes"/>
      <point x="247.0" y="549.0"/>
      <point x="191.5" y="525.0"/>
      <point x="155.5" y="474.5" type="curve"/>
      <point x="167.5" y="467.0" type="line"/>
      <point x="167.5" y="808.0" type="line"/>
      <point x="55.5" y="808.0" type="line"/>
    </contour>
    <contour>
      <point x="236.0" y="69.0" type="curve" smooth="yes"/>
      <point x="213.5" y="69.0"/>
      <point x="190.5" y="73.0"/>
      <point x="167.5" y="80.0" type="curve"/>
      <point x="167.5" y="323.5" type="line" smooth="yes"/>
      <point x="167.5" y="424.5"/>
      <point x="209.5" y="466.0"/>
      <point x="265.0" y="466.0" type="curve" smooth="yes"/>
      <point x="332.5" y="466.0"/>
      <point x="360.5" y="413.5"/>
      <point x="360.5" y="273.0" type="curve" smooth="yes"/>
      <point x="360.5" y="126.0"/>
      <point x="323.0" y="69.0"/>
    </contour>
  </outline>
</glyph>
<glyph name="Dcroat" format="1">
  <advance width="625.5"/>
  <unicode hex="0110"/>
  <outline>
    <contour>
      <point x="-1.0" y="326.0" type="line"/>
      <point x="313.0" y="326.0" type="line"/>
      <point x="313.0" y="415.5" type="line"/>
      <point x="-1.0" y="415.5" type="line"/>
    </contour>
    <component base="D" xOffset="18.0"/>
  </outline>
</glyph>
<glyph name="dcroat" format="1">
  <advance width="510.0"/>
  <unicode hex="0111"/>
  <outline>
    <contour>
      <point x="202.0" y="638.5" type="line"/>
      <point x="519.0" y="638.5" type="line"/>
      <point x="519.0" y="708.0" type="line"/>
      <point x="202.0" y="708.0" type="line"/>
    </contour>
    <component base="d"/>
  </outline>
</glyph>
<glyph name="gcommaaccent" format="1">
  <advance width="509.0"/>
  <unicode hex="0123"/>
  <outline>
    <contour>
      <point x="312.0" y="794.0" type="line"/>
      <point x="239.0" y="644.0" type="line"/>
      <point x="351.0" y="644.0" type="line"/>
      <point x="397.0" y="794.0" type="line"/>
    </contour>
    <component base="g"/>
  </outline>
</glyph>
<glyph name="itilde" format="1">
  <advance width="226.0"/>
  <unicode hex="0129"/>
  <outline>
    <contour>
      <point x="-23.0" y="627.0" type="line"/>
      <point x="-3.5" y="653.0"/>
      <point x="18.5" y="667.0"/>
      <point x="41.0" y="667.0" type="curve" smooth="yes"/>
      <point x="88.5" y="667.0"/>
      <point x="127.5" y="617.0"/>
      <point x="178.5" y="617.0" type="curve" smooth="yes"/>
      <point x="220.0" y="617.0"/>
      <point x="265.0" y="645.5"/>
      <point x="292.5" y="702.5" type="curve"/>
      <point x="261.5" y="733.0" type="line"/>
      <point x="243.5" y="704.5"/>
      <point x="224.0" y="691.5"/>
      <point x="202.0" y="691.5" type="curve" smooth="yes"/>
      <point x="154.0" y="691.5"/>
      <point x="115.5" y="742.0"/>
      <point x="64.5" y="742.0" type="curve" smooth="yes"/>
      <point x="23.5" y="742.0"/>
      <point x="-22.0" y="710.5"/>
      <point x="-52.0" y="659.0" type="curve"/>
    </contour>
    <component base="dotlessi" xOffset="1.0"/>
  </outline>
</glyph>
<glyph name="jcircumflex" format="1">
  <advance width="222.5"/>
  <unicode hex="0135"/>
  <outline>
    <contour>
      <point x="-33.0" y="623.5" type="line"/>
      <point x="113.0" y="695.0" type="line"/>
      <point x="259.0" y="623.5" type="line"/>
      <point x="259.0" y="706.0" type="line"/>
      <point x="113.5" y="777.5" type="line"/>
      <point x="-33.0" y="706.0" type="line"/>
    </contour>
    <component base="dotlessj"/>
  </outline>
</glyph>
<glyph name="lslash" format="1">
  <advance width="321.5"/>
  <unicode hex="0142"/>
  <outline>
    <contour>
      <point x="17.0" y="236.0" type="line"/>
      <point x="307.5" y="442.0" type="line"/>
      <point x="307.5" y="527.0" type="line"/>
      <point x="17.0" y="321.0" type="line"/>
    </contour>
    <component base="l" xOffset="43.5"/>
  </outline>
</glyph>
<glyph name="eng" format="1">
  <advance width="504.0"/>
  <unicode hex="014B"/>
  <outline>
    <contour>
      <point x="370.0" y="-217.0" type="line"/>
      <point x="416.0" y="-143.5"/>
      <point x="452.0" y="-9.5"/>
      <point x="452.0" y="84.5" type="curve"/>
      <point x="452.0" y="407.0" type="line" smooth="yes"/>
      <point x="452.0" y="503.0"/>
      <point x="413.0" y="550.0"/>
      <point x="334.0" y="550.0" type="curve" smooth="yes"/>
      <point x="281.0" y="550.0"/>
      <point x="236.0" y="532.0"/>
      <point x="161.5" y="482.0" type="curve"/>
      <point x="157.5" y="482.0" type="line"/>
      <point x="150.5" y="540.0" type="line"/>
      <point x="55.5" y="540.0" type="line"/>
      <point x="55.5" y="0.0" type="line"/>
      <point x="167.5" y="0.0" type="line"/>
      <point x="167.5" y="407.5" type="line"/>
      <point x="211.5" y="436.5"/>
      <point x="250.0" y="451.0"/>
      <point x="283.0" y="451.0" type="curve" smooth="yes"/>
      <point x="322.5" y="451.0"/>
      <point x="340.0" y="427.0"/>
      <point x="340.0" y="372.0" type="curve" smooth="yes"/>
      <point x="340.0" y="87.5" type="line"/>
      <point x="340.0" y="2.5"/>
      <point x="317.0" y="-117.5"/>
      <point x="284.5" y="-199.5" type="curve"/>
    </contour>
  </outline>
</glyph>
<glyph name="OE" format="1">
  <advance width="846.5"/>
  <unicode hex="0152"/>
  <outline>
    <contour>
      <point x="327.0" y="-6.0" type="curve" smooth="yes"/>
      <point x="358.5" y="-6.0"/>
      <point x="395.5" y="-4.5"/>
      <point x="421.5" y="0.0" type="curve"/>
      <point x="811.0" y="0.0" type="line"/>
      <point x="811.0" y="97.5" type="line"/>
      <point x="534.0" y="97.5" type="line"/>
      <point x="534.0" y="331.0" type="line"/>
      <point x="781.0" y="331.0" type="line"/>
      <point x="781.0" y="423.5" type="line"/>
      <point x="534.0" y="423.5" type="line"/>
      <point x="534.0" y="642.5" type="line"/>
      <point x="802.0" y="642.5" type="line"/>
      <point x="802.0" y="740.0" type="line"/>
      <point x="421.5" y="740.0" type="line"/>
      <point x="395.5" y="742.5"/>
      <point x="358.5" y="746.0"/>
      <point x="327.0" y="746.0" type="curve" smooth="yes"/>
      <point x="139.5" y="746.0"/>
      <point x="37.0" y="620.5"/>
      <point x="37.0" y="369.5" type="curve" smooth="yes"/>
      <point x="37.0" y="119.0"/>
      <point x="139.0" y="-6.0"/>
    </contour>
    <contour>
      <point x="340.5" y="92.0" type="curve" smooth="yes"/>
      <point x="201.0" y="92.0"/>
      <point x="152.0" y="169.0"/>
      <point x="152.0" y="369.0" type="curve" smooth="yes"/>
      <point x="152.0" y="568.5"/>
      <point x="201.5" y="647.5"/>
      <point x="339.5" y="647.5" type="curve" smooth="yes"/>
      <point x="363.0" y="647.5"/>
      <point x="393.0" y="646.0"/>
      <point x="419.5" y="642.0" type="curve"/>
      <point x="419.5" y="97.0" type="line"/>
      <point x="394.5" y="93.0"/>
      <point x="363.5" y="92.0"/>
    </contour>
  </outline>
</glyph>
<glyph name="oe" format="1">
  <advance width="798.0"/>
  <unicode hex="0153"/>
  <outline>
    <contour>
      <point x="587.0" y="-9.0" type="curve" smooth="yes"/>
      <point x="640.0" y="-9.0"/>
      <point x="702.5" y="3.0"/>
      <point x="746.5" y="22.0" type="curve"/>
      <point x="741.5" y="108.0" type="line"/>
      <point x="684.0" y="88.5"/>
      <point x="632.5" y="78.5"/>
      <point x="593.0" y="78.5" type="curve" smooth="yes"/>
      <point x="516.0" y="78.5"/>
      <point x="479.0" y="125.5"/>
      <point x="475.5" y="231.5" type="curve"/>
      <point x="761.5" y="231.5" type="line"/>
      <point x="765.0" y="253.0"/>
      <point x="766.0" y="269.5"/>
      <point x="766.0" y="306.0" type="curve" smooth="yes"/>
      <point x="766.0" y="469.0"/>
      <point x="706.5" y="549.0"/>
      <point x="584.5" y="549.0" type="curve" smooth="yes"/>
      <point x="508.0" y="549.0"/>
      <point x="454.5" y="513.0"/>
      <point x="422.5" y="445.0" type="curve"/>
      <point x="415.5" y="445.0" type="line"/>
      <point x="385.0" y="513.5"/>
      <point x="331.5" y="550.0"/>
      <point x="254.0" y="550.0" type="curve" smooth="yes"/>
      <point x="110.0" y="550.0"/>
      <point x="33.5" y="453.0"/>
      <point x="33.5" y="270.0" type="curve" smooth="yes"/>
      <point x="33.5" y="87.5"/>
      <point x="109.5" y="-9.5"/>
      <point x="254.0" y="-9.5" type="curve" smooth="yes"/>
      <point x="330.5" y="-9.5"/>
      <point x="384.0" y="25.0"/>
      <point x="415.0" y="92.5" type="curve"/>
      <point x="422.0" y="92.5" type="line"/>
      <point x="453.5" y="27.0"/>
      <point x="509.0" y="-9.0"/>
    </contour>
    <contour>
      <point x="254.0" y="79.0" type="curve" smooth="yes"/>
      <point x="176.0" y="79.0"/>
      <point x="146.5" y="129.0"/>
      <point x="146.5" y="270.0" type="curve" smooth="yes"/>
      <point x="146.5" y="411.5"/>
      <point x="176.0" y="461.5"/>
      <point x="254.0" y="461.5" type="curve" smooth="yes"/>
      <point x="331.5" y="461.5"/>
      <point x="361.5" y="411.5"/>
      <point x="361.5" y="270.0" type="curve" smooth="yes"/>
      <point x="361.5" y="128.5"/>
      <point x="332.0" y="79.0"/>
    </contour>
    <contour>
      <point x="475.5" y="305.0" type="line"/>
      <point x="480.5" y="411.0"/>
      <point x="516.0" y="462.5"/>
      <point x="581.5" y="462.5" type="curve" smooth="yes"/>
      <point x="638.0" y="462.5"/>
      <point x="661.5" y="417.5"/>
      <point x="664.5" y="305.0" type="curve"/>
    </contour>
  </outline>
</glyph>
<glyph name="tcaron" format="1">
  <advance width="341.0"/>
  <unicode hex="0165"/>
  <outline>
    <contour>
      <point x="254.0" y="-5.5" type="curve" smooth="yes"/>
      <point x="279.0" y="-5.5"/>
      <point x="306.0" y="-2.5"/>
      <point x="332.0" y="3.5" type="curve"/>
      <point x="332.0" y="88.0" type="line"/>
      <point x="315.0" y="83.5"/>
      <point x="295.0" y="81.0"/>
      <point x="281.0" y="81.0" type="curve" smooth="yes"/>
      <point x="235.5" y="81.0"/>
      <point x="211.5" y="107.5"/>
      <point x="211.5" y="167.5" type="curve" smooth="yes"/>
      <point x="211.5" y="444.0" type="line"/>
      <point x="298.5" y="444.0" type="line"/>
      <point x="298.5" y="540.0" type="line"/>
      <point x="211.0" y="540.0" type="line"/>
      <point x="211.0" y="696.5" type="line"/>
      <point x="120.5" y="683.5" type="line"/>
      <point x="105.5" y="540.0" type="line"/>
      <point x="11.0" y="540.0" type="line"/>
      <point x="11.0" y="444.0" type="line"/>
      <point x="99.5" y="444.0" type="line"/>
      <point x="99.5" y="143.0" type="line" smooth="yes"/>
      <point x="99.5" y="45.5"/>
      <point x="152.0" y="-5.5"/>
    </contour>
    <component base="caron.alt" xOffset="219.5"/>
  </outline>
</glyph>
<glyph name="tbar" format="1">
  <advance width="354.5"/>
  <unicode hex="0167"/>
  <outline>
    <contour>
      <point x="21.0" y="264.5" type="line"/>
      <point x="315.5" y="264.5" type="line"/>
      <point x="315.5" y="334.5" type="line"/>
      <point x="21.0" y="334.5" type="line"/>
    </contour>
    <component base="t" xOffset="5.0"/>
  </outline>
</glyph>
<glyph name="Schwa" format="1">
  <advance width="594.5"/>
  <unicode hex="018F"/>
  <outline>
    <contour>
      <point x="442.0" y="368.0" type="curve" smooth="yes"/>
      <point x="442.0" y="173.0"/>
      <point x="387.5" y="82.5"/>
      <point x="275.5" y="82.5" type="curve" smooth="yes"/>
      <point x="177.0" y="82.5"/>
      <point x="144.5" y="153.0"/>
      <point x="144.5" y="352.5" type="curve"/>
      <point x="104.0" y="329.5" type="line"/>
      <point x="505.5" y="329.5" type="line"/>
      <point x="505.5" y="412.0" type="line"/>
      <point x="37.5" y="412.0" type="line"/>
      <point x="34.0" y="382.0"/>
      <point x="32.5" y="352.0"/>
      <point x="32.5" y="314.0" type="curve" smooth="yes"/>
      <point x="32.5" y="95.5"/>
      <point x="113.5" y="-9.5"/>
      <point x="269.5" y="-9.5" type="curve" smooth="yes"/>
      <point x="459.0" y="-9.5"/>
      <point x="558.0" y="133.0"/>
      <point x="558.0" y="382.0" type="curve" smooth="yes"/>
      <point x="558.0" y="623.5"/>
      <point x="451.0" y="755.5"/>
      <point x="253.0" y="755.5" type="curve" smooth="yes"/>
      <point x="184.5" y="755.5"/>
      <point x="116.5" y="740.0"/>
      <point x="60.0" y="715.5" type="curve"/>
      <point x="60.5" y="710.0"/>
      <point x="65.5" y="628.5"/>
      <point x="66.5" y="621.5" type="curve"/>
      <point x="127.0" y="645.0"/>
      <point x="187.5" y="656.5"/>
      <point x="243.0" y="656.5" type="curve" smooth="yes"/>
      <point x="383.5" y="656.5"/>
      <point x="442.0" y="578.5"/>
    </contour>
  </outline>
</glyph>
<glyph name="dotlessj" format="1">
  <advance width="222.0"/>
  <unicode hex="0237"/>
  <outline>
    <contour>
      <point x="108.0" y="600.0" type="move" name="top"/>
    </contour>
    <contour>
      <point x="77.0" y="-220.0" type="line"/>
      <point x="133.0" y="-124.0"/>
      <point x="162.0" y="-23.0"/>
      <point x="167.0" y="80.5" type="curve"/>
      <point x="167.0" y="540.0" type="line"/>
      <point x="55.0" y="540.0" type="line"/>
      <point x="57.0" y="432.5"/>
      <point x="57.5" y="182.5"/>
      <point x="57.5" y="150.0" type="curve" smooth="yes"/>
      <point x="57.5" y="-9.0"/>
      <point x="40.5" y="-90.0"/>
      <point x="-4.0" y="-200.0" type="curve"/>
    </contour>
  </outline>
</glyph>
<glyph name="schwa" format="1">
  <advance width="482.0"/>
  <unicode hex="0259"/>
  <outline>
    <contour>
      <point x="215.5" y="549.0" type="curve" smooth="yes"/>
      <point x="162.5" y="549.0"/>
      <point x="97.0" y="537.5"/>
      <point x="51.0" y="518.0" type="curve"/>
      <point x="56.0" y="432.0" type="line"/>
      <point x="109.5" y="450.5"/>
      <point x="161.5" y="459.5"/>
      <point x="207.0" y="459.5" type="curve" smooth="yes"/>
      <point x="303.5" y="459.5"/>
      <point x="340.5" y="407.0"/>
      <point x="340.5" y="274.5" type="curve" smooth="yes"/>
      <point x="340.5" y="139.5"/>
      <point x="304.0" y="76.0"/>
      <point x="223.5" y="76.0" type="curve" smooth="yes"/>
      <point x="156.0" y="76.0"/>
      <point x="130.0" y="125.5"/>
      <point x="130.0" y="250.5" type="curve"/>
      <point x="115.0" y="235.5" type="line"/>
      <point x="396.0" y="235.5" type="line"/>
      <point x="396.0" y="310.5" type="line"/>
      <point x="36.5" y="310.5" type="line"/>
      <point x="32.0" y="284.5"/>
      <point x="31.5" y="264.5"/>
      <point x="31.5" y="234.0" type="curve" smooth="yes"/>
      <point x="31.5" y="70.0"/>
      <point x="91.5" y="-9.0"/>
      <point x="218.5" y="-9.0" type="curve" smooth="yes"/>
      <point x="368.0" y="-9.0"/>
      <point x="448.0" y="91.5"/>
      <point x="448.0" y="278.0" type="curve" smooth="yes"/>
      <point x="448.0" y="453.0"/>
      <point x="367.0" y="549.0"/>
    </contour>
  </outline>
</glyph>
<glyph name="circumflex" format="1">
  <advance width="366.0"/>
  <unicode hex="02C6"/>
  <outline>
    <contour>
      <point x="172.5" y="600.0" type="move" name="_top"/>
    </contour>
    <contour>
      <point x="31.5" y="623.5" type="line"/>
      <point x="177.5" y="695.0" type="line"/>
      <point x="323.5" y="623.5" type="line"/>
      <point x="323.5" y="706.0" type="line"/>
      <point x="178.0" y="777.5" type="line"/>
      <point x="31.5" y="706.0" type="line"/>
    </contour>
  </outline>
</glyph>
<glyph name="caron" format="1">
  <advance width="361.5"/>
  <unicode hex="02C7"/>
  <outline>
    <contour>
      <point x="174.5" y="600.0" type="move" name="_top"/>
    </contour>
    <contour>
      <point x="31.5" y="702.0" type="line"/>
      <point x="178.0" y="630.5" type="line"/>
      <point x="323.5" y="702.0" type="line"/>
      <point x="323.5" y="784.5" type="line"/>
      <point x="177.5" y="713.0" type="line"/>
      <point x="31.5" y="784.5" type="line"/>
    </contour>
  </outline>
</glyph>
<glyph name="ring" format="1">
  <advance width="295.5"/>
  <unicode hex="02DA"/>
  <outline>
    <contour>
      <point x="145.5" y="600.0" type="move" name="_top"/>
    </contour>
    <contour>
      <point x="144.0" y="603.0" type="curve" smooth="yes"/>
      <point x="210.5" y="603.0"/>
      <point x="253.0" y="649.0"/>
      <point x="253.0" y="710.5" type="curve" smooth="yes"/>
      <point x="253.0" y="772.5"/>
      <point x="211.5" y="818.0"/>
      <point x="144.0" y="818.0" type="curve" smooth="yes"/>
      <point x="76.5" y="818.0"/>
      <point x="36.0" y="772.5"/>
      <point x="36.0" y="710.5" type="curve" smooth="yes"/>
      <point x="36.0" y="649.0"/>
      <point x="77.5" y="603.0"/>
    </contour>
    <contour>
      <point x="144.0" y="652.0" type="curve" smooth="yes"/>
      <point x="112.0" y="652.0"/>
      <point x="92.5" y="676.5"/>
      <point x="92.5" y="710.5" type="curve" smooth="yes"/>
      <point x="92.5" y="744.5"/>
      <point x="111.0" y="769.0"/>
      <point x="144.0" y="769.0" type="curve" smooth="yes"/>
      <point x="177.0" y="769.0"/>
      <point x="196.5" y="744.5"/>
      <point x="196.5" y="710.5" type="curve" smooth="yes"/>
      <point x="196.5" y="677.0"/>
      <point x="176.5" y="652.0"/>
    </contour>
  </outline>
</glyph>
<glyph name="ogonek" format="1">
  <advance width="266.0"/>
  <unicode hex="02DB"/>
  <outline>
    <contour>
      <point x="218.0" y="0.0" type="move" name="_ogonek"/>
    </contour>
    <contour>
      <point x="149.0" y="-220.0" type="curve" smooth="yes"/>
      <point x="173.5" y="-220.0"/>
      <point x="194.0" y="-215.5"/>
      <point x="218.0" y="-208.0" type="curve"/>
      <point x="218.0" y="-138.0" type="line"/>
      <point x="202.0" y="-144.5"/>
      <point x="180.5" y="-149.5"/>
      <point x="160.5" y="-149.5" type="curve" smooth="yes"/>
      <point x="134.0" y="-149.5"/>
      <point x="119.0" y="-139.0"/>
      <point x="119.0" y="-116.5" type="curve" smooth="yes"/>
      <point x="119.0" y="-82.5"/>
      <point x="149.0" y="-38.5"/>
      <point x="218.0" y="-12.0" type="curve"/>
      <point x="218.0" y="0.0" type="line"/>
      <point x="123.0" y="0.0" type="line"/>
      <point x="67.0" y="-39.5"/>
      <point x="42.0" y="-78.5"/>
      <point x="42.0" y="-127.0" type="curve" smooth="yes"/>
      <point x="42.0" y="-187.5"/>
      <point x="79.0" y="-220.0"/>
    </contour>
  </outline>
</glyph>
<glyph name="hungarumlaut" format="1">
  <advance width="390.5"/>
  <unicode hex="02DD"/>
  <outline>
    <contour>
      <point x="156.5" y="600.0" type="move" name="_top"/>
    </contour>
    <contour>
      <point x="95.5" y="610.0" type="line"/>
      <point x="200.5" y="803.0" type="line"/>
      <point x="102.0" y="803.0" type="line"/>
      <point x="32.5" y="620.0" type="line"/>
    </contour>
    <contour>
      <point x="265.0" y="610.0" type="line"/>
      <point x="370.0" y="803.0" type="line"/>
      <point x="271.5" y="803.0" type="line"/>
      <point x="202.0" y="620.0" type="line"/>
    </contour>
  </outline>
</glyph>
<glyph name="uni030F" format="1">
  <advance width="398.0"/>
  <unicode hex="030F"/>
  <outline>
    <contour>
      <point x="231.5" y="600.0" type="move" name="_top"/>
    </contour>
    <contour>
      <point x="188.0" y="620.0" type="line"/>
      <point x="119.0" y="803.0" type="line"/>
      <point x="20.5" y="803.0" type="line"/>
      <point x="126.0" y="610.0" type="line"/>
    </contour>
    <contour>
      <point x="357.5" y="620.0" type="line"/>
      <point x="288.5" y="803.0" type="line"/>
      <point x="190.0" y="803.0" type="line"/>
      <point x="295.5" y="610.0" type="line"/>
    </contour>
  </outline>
</glyph>
<glyph name="uni0311" format="1">
  <advance width="403.0"/>
  <unicode hex="0311"/>
  <outline>
    <contour>
      <point x="194.5" y="600.0" type="move" name="_top"/>
    </contour>
    <contour>
      <point x="40.0" y="621.5" type="curve"/>
      <point x="120.0" y="621.5" type="line"/>
      <point x="121.0" y="678.5"/>
      <point x="152.0" y="705.5"/>
      <point x="201.5" y="705.5" type="curve" smooth="yes"/>
      <point x="251.0" y="705.5"/>
      <point x="281.5" y="678.0"/>
      <point x="282.5" y="621.5" type="curve"/>
      <point x="363.0" y="621.5" type="line"/>
      <point x="359.0" y="717.5"/>
      <point x="302.0" y="770.5"/>
      <point x="201.5" y="770.5" type="curve" smooth="yes"/>
      <point x="101.0" y="770.5"/>
      <point x="43.5" y="717.5"/>
    </contour>
  </outline>
</glyph>
<glyph name="uni03A9" format="1">
  <advance width="717.0"/>
  <unicode hex="03A9"/>
  <outline>
    <contour>
      <point x="34.5" y="0.0" type="line"/>
      <point x="317.5" y="0.0" type="line"/>
      <point x="317.5" y="82.0" type="line"/>
      <point x="271.0" y="118.5"/>
      <point x="160.0" y="193.0"/>
      <point x="160.0" y="418.0" type="curve" smooth="yes"/>
      <point x="160.0" y="564.0"/>
      <point x="238.5" y="661.0"/>
      <point x="358.5" y="661.0" type="curve" smooth="yes"/>
      <point x="480.0" y="661.0"/>
      <point x="560.0" y="564.0"/>
      <point x="560.0" y="418.0" type="curve" smooth="yes"/>
      <point x="560.0" y="193.0"/>
      <point x="447.0" y="118.5"/>
      <point x="399.5" y="82.0" type="curve"/>
      <point x="399.5" y="0.0" type="line"/>
      <point x="682.5" y="0.0" type="line"/>
      <point x="682.5" y="98.0" type="line"/>
      <point x="488.0" y="89.0" type="line"/>
      <point x="569.0" y="138.0"/>
      <point x="671.5" y="234.5"/>
      <point x="671.5" y="418.0" type="curve" smooth="yes"/>
      <point x="671.5" y="618.0"/>
      <point x="547.5" y="750.0"/>
      <point x="358.5" y="750.0" type="curve" smooth="yes"/>
      <point x="169.5" y="750.0"/>
      <point x="45.5" y="618.0"/>
      <point x="45.5" y="418.0" type="curve" smooth="yes"/>
      <point x="45.5" y="235.0"/>
      <point x="146.5" y="138.5"/>
      <point x="228.0" y="90.0" type="curve"/>
      <point x="34.5" y="98.0" type="line"/>
    </contour>
  </outline>
</glyph>
<glyph name="endash" format="1">
  <advance width="519.0"/>
  <unicode hex="2013"/>
  <outline>
    <contour>
      <point x="54.5" y="237.0" type="line"/>
      <point x="464.5" y="237.0" type="line"/>
      <point x="464.5" y="323.0" type="line"/>
      <point x="54.5" y="323.0" type="line"/>
    </contour>
  </outline>
</glyph>
<glyph name="emdash" format="1">
  <advance width="690.0"/>
  <unicode hex="2014"/>
  <outline>
    <contour>
      <point x="54.5" y="237.0" type="line"/>
      <point x="635.5" y="237.0" type="line"/>
      <point x="635.5" y="323.0" type="line"/>
      <point x="54.5" y="323.0" type="line"/>
    </contour>
  </outline>
</glyph>
<glyph name="quoteright" format="1">
  <advance width="183.0"/>
  <unicode hex="2019"/>
  <outline>
    <contour>
      <point x="42.0" y="801.0" type="line"/>
      <point x="58.5" y="756.5"/>
      <point x="66.5" y="714.0"/>
      <point x="66.5" y="673.5" type="curve" smooth="yes"/>
      <point x="66.5" y="625.0"/>
      <point x="56.0" y="570.5"/>
      <point x="37.5" y="523.0" type="curve"/>
      <point x="87.5" y="515.0" type="line"/>
      <point x="123.0" y="565.0"/>
      <point x="147.5" y="639.0"/>
      <point x="147.5" y="707.0" type="curve" smooth="yes"/>
      <point x="147.5" y="746.5"/>
      <point x="142.0" y="780.5"/>
      <point x="128.5" y="811.0" type="curve"/>
    </contour>
  </outline>
</glyph>
<glyph name="bullet" format="1">
  <advance width="306.5"/>
  <unicode hex="2022"/>
  <outline>
    <contour>
      <point x="153.5" y="279.0" type="curve" smooth="yes"/>
      <point x="205.5" y="279.0"/>
      <point x="246.0" y="306.0"/>
      <point x="246.0" y="370.0" type="curve" smooth="yes"/>
      <point x="246.0" y="434.0"/>
      <point x="205.5" y="461.0"/>
      <point x="153.5" y="461.0" type="curve" smooth="yes"/>
      <point x="100.5" y="461.0"/>
      <point x="60.5" y="434.0"/>
      <point x="60.5" y="370.0" type="curve" smooth="yes"/>
      <point x="60.5" y="306.0"/>
      <point x="100.5" y="279.0"/>
    </contour>
  </outline>
</glyph>
<glyph name="guilsinglleft" format="1">
  <advance width="270.0"/>
  <unicode hex="2039"/>
  <outline>
    <contour>
      <point x="124.5" y="30.0" type="line"/>
      <point x="237.5" y="30.0" type="line"/>
      <point x="143.5" y="268.0" type="line"/>
      <point x="143.5" y="272.0" type="line"/>
      <point x="237.5" y="510.0" type="line"/>
      <point x="124.5" y="510.0" type="line"/>
      <point x="30.5" y="272.0" type="line"/>
      <point x="30.5" y="268.0" type="line"/>
    </contour>
  </outline>
</glyph>
<glyph name="zerosuperior" format="1">
  <advance width="443.5"/>
  <unicode hex="2070"/>
  <outline>
    <contour>
      <point x="222.0" y="293.0" type="curve"/>
      <point x="346.0" y="293.0"/>
      <point x="411.5" y="390.0"/>
      <point x="411.5" y="573.0" type="curve" smooth="yes"/>
      <point x="411.5" y="756.0"/>
      <point x="346.0" y="854.0"/>
      <point x="222.0" y="854.0" type="curve" smooth="yes"/>
      <point x="98.5" y="854.0"/>
      <point x="32.0" y="756.0"/>
      <point x="32.0" y="573.0" type="curve" smooth="yes"/>
      <point x="32.0" y="389.5"/>
      <point x="98.5" y="293.0"/>
    </contour>
    <contour>
      <point x="222.0" y="377.5" type="curve" smooth="yes"/>
      <point x="159.5" y="377.5"/>
      <point x="131.5" y="438.5"/>
      <point x="131.5" y="573.0" type="curve" smooth="yes"/>
      <point x="131.5" y="706.5"/>
      <point x="160.5" y="769.5"/>
      <point x="222.0" y="769.5" type="curve" smooth="yes"/>
      <point x="283.5" y="769.5"/>
      <point x="312.0" y="707.0"/>
      <point x="312.0" y="573.0" type="curve" smooth="yes"/>
      <point x="312.0" y="438.0"/>
      <point x="284.5" y="377.5"/>
    </contour>
  </outline>
</glyph>
<glyph name="fivesuperior" format="1">
  <advance width="343.0"/>
  <unicode hex="2075"/>
  <outline>
    <contour>
      <point x="130.5" y="292.0" type="curve" smooth="yes"/>
      <point x="249.5" y="292.0"/>
      <point x="318.0" y="355.0"/>
      <point x="318.0" y="464.5" type="curve" smooth="yes"/>
      <point x="318.0" y="576.5"/>
      <point x="263.0" y="624.5"/>
      <point x="126.0" y="628.5" type="curve"/>
      <point x="136.0" y="763.0" type="line"/>
      <point x="290.0" y="763.0" type="line"/>
      <point x="290.0" y="846.0" type="line"/>
      <point x="58.5" y="846.0" type="line"/>
      <point x="38.5" y="563.0" type="line"/>
      <point x="45.5" y="556.5" type="line"/>
      <point x="92.0" y="556.5" type="line" smooth="yes"/>
      <point x="186.0" y="556.5"/>
      <point x="218.0" y="531.5"/>
      <point x="218.0" y="464.5" type="curve" smooth="yes"/>
      <point x="218.0" y="405.5"/>
      <point x="186.5" y="373.5"/>
      <point x="124.5" y="373.5" type="curve" smooth="yes"/>
      <point x="105.0" y="373.5"/>
      <point x="83.5" y="376.5"/>
      <point x="57.5" y="382.5" type="curve"/>
      <point x="33.5" y="382.5" type="line"/>
      <point x="33.5" y="303.5" type="line"/>
      <point x="74.0" y="295.5"/>
      <point x="104.0" y="292.0"/>
    </contour>
  </outline>
</glyph>
<glyph name="sixsuperior" format="1">
  <advance width="405.0"/>
  <unicode hex="2076"/>
  <outline>
    <contour>
      <point x="208.5" y="292.5" type="curve" smooth="yes"/>
      <point x="314.0" y="292.5"/>
      <point x="381.0" y="366.5"/>
      <point x="381.0" y="481.0" type="curve" smooth="yes"/>
      <point x="381.0" y="579.0"/>
      <point x="320.5" y="640.0"/>
      <point x="226.0" y="640.0" type="curve" smooth="yes"/>
      <point x="190.5" y="640.0"/>
      <point x="154.0" y="627.0"/>
      <point x="125.0" y="603.5" type="curve"/>
      <point x="136.0" y="717.0"/>
      <point x="181.5" y="774.5"/>
      <point x="260.5" y="774.5" type="curve" smooth="yes"/>
      <point x="283.5" y="774.5"/>
      <point x="308.5" y="770.5"/>
      <point x="343.0" y="761.0" type="curve"/>
      <point x="352.5" y="840.0" type="line"/>
      <point x="316.5" y="849.5"/>
      <point x="285.5" y="854.5"/>
      <point x="258.5" y="854.5" type="curve" smooth="yes"/>
      <point x="110.5" y="854.5"/>
      <point x="31.5" y="744.5"/>
      <point x="31.5" y="544.5" type="curve" smooth="yes"/>
      <point x="31.5" y="380.5"/>
      <point x="93.5" y="292.5"/>
    </contour>
    <contour>
      <point x="208.5" y="376.5" type="curve" smooth="yes"/>
      <point x="150.5" y="376.5"/>
      <point x="123.5" y="426.0"/>
      <point x="121.5" y="532.0" type="curve"/>
      <point x="147.0" y="557.0"/>
      <point x="180.5" y="573.5"/>
      <point x="208.0" y="573.5" type="curve" smooth="yes"/>
      <point x="261.5" y="573.5"/>
      <point x="289.5" y="541.5"/>
      <point x="289.5" y="479.0" type="curve" smooth="yes"/>
      <point x="289.5" y="414.5"/>
      <point x="259.5" y="376.5"/>
    </contour>
  </outline>
</glyph>
<glyph name="sevensuperior" format="1">
  <advance width="317.0"/>
  <unicode hex="2077"/>
  <outline>
    <contour>
      <point x="126.0" y="290.0" type="line"/>
      <point x="56.5" y="301.5" type="line"/>
      <point x="46.5" y="324.0" type="line"/>
      <point x="220.5" y="805.5" type="line"/>
      <point x="254.0" y="760.0" type="line"/>
      <point x="21.0" y="760.0" type="line"/>
      <point x="21.0" y="831.5" type="line"/>
      <point x="32.0" y="840.0" type="line"/>
      <point x="282.5" y="840.0" type="line"/>
      <point x="304.5" y="799.5" type="line"/>
      <point x="304.5" y="771.5" type="line"/>
      <point x="141.0" y="301.0" type="line"/>
    </contour>
  </outline>
</glyph>
<glyph name="eightsuperior" format="1">
  <advance width="402.5"/>
  <unicode hex="2078"/>
  <outline>
    <contour>
      <point x="201.0" y="298.0" type="curve" smooth="yes"/>
      <point x="306.5" y="298.0"/>
      <point x="371.5" y="356.0"/>
      <point x="371.5" y="450.0" type="curve" smooth="yes"/>
      <point x="371.5" y="514.0"/>
      <point x="349.0" y="555.5"/>
      <point x="297.0" y="584.5" type="curve"/>
      <point x="340.0" y="609.5"/>
      <point x="358.0" y="646.5"/>
      <point x="358.0" y="708.5" type="curve" smooth="yes"/>
      <point x="358.0" y="797.5"/>
      <point x="297.5" y="853.0"/>
      <point x="201.0" y="853.0" type="curve" smooth="yes"/>
      <point x="105.0" y="853.0"/>
      <point x="44.0" y="797.0"/>
      <point x="44.0" y="708.5" type="curve" smooth="yes"/>
      <point x="44.0" y="649.0"/>
      <point x="64.0" y="607.5"/>
      <point x="107.0" y="579.0" type="curve"/>
      <point x="54.5" y="547.5"/>
      <point x="31.0" y="503.0"/>
      <point x="31.0" y="438.0" type="curve" smooth="yes"/>
      <point x="31.0" y="352.0"/>
      <point x="96.0" y="298.0"/>
    </contour>
    <contour>
      <point x="201.0" y="371.0" type="curve" smooth="yes"/>
      <point x="149.0" y="371.0"/>
      <point x="116.0" y="402.0"/>
      <point x="116.0" y="450.5" type="curve" smooth="yes"/>
      <point x="116.0" y="495.5"/>
      <point x="133.5" y="522.5"/>
      <point x="183.0" y="549.0" type="curve"/>
      <point x="202.5" y="542.0" type="line" smooth="yes"/>
      <point x="265.0" y="521.0"/>
      <point x="286.5" y="496.5"/>
      <point x="286.5" y="449.5" type="curve" smooth="yes"/>
      <point x="286.5" y="400.5"/>
      <point x="253.5" y="371.0"/>
    </contour>
    <contour>
      <point x="215.5" y="610.0" type="curve"/>
      <point x="204.5" y="613.0" type="line" smooth="yes"/>
      <point x="149.5" y="630.5"/>
      <point x="126.5" y="655.5"/>
      <point x="126.5" y="701.5" type="curve" smooth="yes"/>
      <point x="126.5" y="748.5"/>
      <point x="154.0" y="778.0"/>
      <point x="201.0" y="778.0" type="curve" smooth="yes"/>
      <point x="248.0" y="778.0"/>
      <point x="275.5" y="751.5"/>
      <point x="275.5" y="703.0" type="curve" smooth="yes"/>
      <point x="275.5" y="657.0"/>
      <point x="257.5" y="629.0"/>
    </contour>
  </outline>
</glyph>
<glyph name="oneinferior" format="1">
  <advance width="290.5"/>
  <unicode hex="2081"/>
  <outline>
    <contour>
      <point x="131.5" y="-100.0" type="line"/>
      <point x="231.0" y="-100.0" type="line"/>
      <point x="231.0" y="446.0" type="line"/>
      <point x="159.0" y="446.0" type="line"/>
      <point x="13.5" y="349.0" type="line"/>
      <point x="11.0" y="333.5" type="line"/>
      <point x="30.5" y="289.0" type="line"/>
      <point x="45.5" y="289.0" type="line"/>
      <point x="131.5" y="336.0" type="line"/>
    </contour>
  </outline>
</glyph>
<glyph name="threeinferior" format="1">
  <advance width="345.0"/>
  <unicode hex="2083"/>
  <outline>
    <contour>
      <point x="130.0" y="-106.0" type="curve" smooth="yes"/>
      <point x="246.0" y="-106.0"/>
      <point x="314.5" y="-49.5"/>
      <point x="314.5" y="46.5" type="curve" smooth="yes"/>
      <point x="314.5" y="116.5"/>
      <point x="279.5" y="164.0"/>
      <point x="214.0" y="183.5" type="curve"/>
      <point x="269.0" y="203.0"/>
      <point x="300.0" y="249.0"/>
      <point x="300.0" y="314.5" type="curve" smooth="yes"/>
      <point x="300.0" y="406.5"/>
      <point x="244.0" y="454.0"/>
      <point x="130.5" y="454.0" type="curve" smooth="yes"/>
      <point x="97.5" y="454.0"/>
      <point x="66.0" y="449.5"/>
      <point x="32.0" y="441.0" type="curve"/>
      <point x="36.5" y="360.0" type="line"/>
      <point x="46.5" y="360.0" type="line"/>
      <point x="76.5" y="366.5"/>
      <point x="101.5" y="369.5"/>
      <point x="122.5" y="369.5" type="curve" smooth="yes"/>
      <point x="176.0" y="369.5"/>
      <point x="203.0" y="344.0"/>
      <point x="203.0" y="295.5" type="curve" smooth="yes"/>
      <point x="203.0" y="245.5"/>
      <point x="169.5" y="218.0"/>
      <point x="104.5" y="218.0" type="curve" smooth="yes"/>
      <point x="81.0" y="218.0" type="line"/>
      <point x="81.0" y="141.0" type="line"/>
      <point x="104.5" y="141.0" type="line" smooth="yes"/>
      <point x="183.5" y="141.0"/>
      <point x="217.5" y="113.5"/>
      <point x="217.5" y="54.5" type="curve" smooth="yes"/>
      <point x="217.5" y="5.0"/>
      <point x="184.5" y="-22.0"/>
      <point x="117.5" y="-22.0" type="curve" smooth="yes"/>
      <point x="92.5" y="-22.0"/>
      <point x="65.5" y="-18.0"/>
      <point x="45.0" y="-12.0" type="curve"/>
      <point x="34.5" y="-12.0" type="line"/>
      <point x="34.5" y="-95.0" type="line"/>
      <point x="66.5" y="-102.5"/>
      <point x="97.0" y="-106.0"/>
    </contour>
  </outline>
</glyph>
<glyph name="fourinferior" format="1">
  <advance width="397.5"/>
  <unicode hex="2084"/>
  <outline>
    <contour>
      <point x="225.5" y="-100.0" type="line"/>
      <point x="325.0" y="-100.0" type="line"/>
      <point x="325.0" y="21.5" type="line"/>
      <point x="378.5" y="21.5" type="line"/>
      <point x="378.5" y="95.5" type="line"/>
      <point x="325.0" y="95.5" type="line"/>
      <point x="325.0" y="268.0" type="line"/>
      <point x="262.0" y="268.0" type="line"/>
      <point x="234.5" y="95.5" type="line"/>
      <point x="109.0" y="95.5" type="line"/>
      <point x="279.5" y="428.0" type="line"/>
      <point x="274.5" y="440.0" type="line"/>
      <point x="192.5" y="448.5" type="line"/>
      <point x="182.0" y="443.0" type="line"/>
      <point x="12.0" y="79.5" type="line"/>
      <point x="27.5" y="21.5" type="line"/>
      <point x="225.5" y="21.5" type="line"/>
    </contour>
  </outline>
</glyph>
<glyph name="sixinferior" format="1">
  <advance width="405.0"/>
  <unicode hex="2086"/>
  <outline>
    <contour>
      <point x="208.5" y="-107.5" type="curve" smooth="yes"/>
      <point x="314.0" y="-107.5"/>
      <point x="381.0" y="-33.5"/>
      <point x="381.0" y="81.0" type="curve" smooth="yes"/>
      <point x="381.0" y="179.0"/>
      <point x="320.5" y="240.0"/>
      <point x="226.0" y="240.0" type="curve" smooth="yes"/>
      <point x="190.5" y="240.0"/>
      <point x="154.0" y="227.0"/>
      <point x="125.0" y="203.5" type="curve"/>
      <point x="136.0" y="317.0"/>
      <point x="181.5" y="374.5"/>
      <point x="260.5" y="374.5" type="curve" smooth="yes"/>
      <point x="283.5" y="374.5"/>
      <point x="308.5" y="370.5"/>
      <point x="343.0" y="361.0" type="curve"/>
      <point x="352.5" y="440.0" type="line"/>
      <point x="316.5" y="449.5"/>
      <point x="285.5" y="454.5"/>
      <point x="258.5" y="454.5" type="curve" smooth="yes"/>
      <point x="110.5" y="454.5"/>
      <point x="31.5" y="344.5"/>
      <point x="31.5" y="144.5" type="curve" smooth="yes"/>
      <point x="31.5" y="-19.5"/>
      <point x="93.5" y="-107.5"/>
    </contour>
    <contour>
      <point x="208.5" y="-23.5" type="curve" smooth="yes"/>
      <point x="150.5" y="-23.5"/>
      <point x="123.5" y="26.0"/>
      <point x="121.5" y="132.0" type="curve"/>
      <point x="147.0" y="157.0"/>
      <point x="180.5" y="173.5"/>
      <point x="208.0" y="173.5" type="curve" smooth="yes"/>
      <point x="261.5" y="173.5"/>
      <point x="289.5" y="141.5"/>
      <point x="289.5" y="79.0" type="curve" smooth="yes"/>
      <point x="289.5" y="14.5"/>
      <point x="259.5" y="-23.5"/>
    </contour>
  </outline>
</glyph>
<glyph name="seveninferior" format="1">
  <advance width="317.0"/>
  <unicode hex="2087"/>
  <outline>
    <contour>
      <point x="126.0" y="-110.0" type="line"/>
      <point x="56.5" y="-98.5" type="line"/>
      <point x="46.5" y="-76.0" type="line"/>
      <point x="220.5" y="405.5" type="line"/>
      <point x="254.0" y="360.0" type="line"/>
      <point x="21.0" y="360.0" type="line"/>
      <point x="21.0" y="431.5" type="line"/>
      <point x="32.0" y="440.0" type="line"/>
      <point x="282.5" y="440.0" type="line"/>
      <point x="304.5" y="399.5" type="line"/>
      <point x="304.5" y="371.5" type="line"/>
      <point x="141.0" y="-99.0" type="line"/>
    </contour>
  </outline>
</glyph>
<glyph name="eightinferior" format="1">
  <advance width="402.5"/>
  <unicode hex="2088"/>
  <outline>
    <contour>
      <point x="201.0" y="-102.0" type="curve" smooth="yes"/>
      <point x="306.5" y="-102.0"/>
      <point x="371.5" y="-44.0"/>
      <point x="371.5" y="50.0" type="curve" smooth="yes"/>
      <point x="371.5" y="114.0"/>
      <point x="349.0" y="155.5"/>
      <point x="297.0" y="184.5" type="curve"/>
      <point x="340.0" y="209.5"/>
      <point x="358.0" y="246.5"/>
      <point x="358.0" y="308.5" type="curve" smooth="yes"/>
      <point x="358.0" y="397.5"/>
      <point x="297.5" y="453.0"/>
      <point x="201.0" y="453.0" type="curve" smooth="yes"/>
      <point x="105.0" y="453.0"/>
      <point x="44.0" y="397.0"/>
      <point x="44.0" y="308.5" type="curve" smooth="yes"/>
      <point x="44.0" y="249.0"/>
      <point x="64.0" y="207.5"/>
      <point x="107.0" y="179.0" type="curve"/>
      <point x="54.5" y="147.5"/>
      <point x="31.0" y="103.0"/>
      <point x="31.0" y="38.0" type="curve" smooth="yes"/>
      <point x="31.0" y="-48.0"/>
      <point x="96.0" y="-102.0"/>
    </contour>
    <contour>
      <point x="201.0" y="-29.0" type="curve" smooth="yes"/>
      <point x="149.0" y="-29.0"/>
      <point x="116.0" y="2.0"/>
      <point x="116.0" y="50.5" type="curve" smooth="yes"/>
      <point x="116.0" y="95.5"/>
      <point x="133.5" y="122.5"/>
      <point x="183.0" y="149.0" type="curve"/>
      <point x="202.5" y="142.0" type="line" smooth="yes"/>
      <point x="265.0" y="121.0"/>
      <point x="286.5" y="96.5"/>
      <point x="286.5" y="49.5" type="curve" smooth="yes"/>
      <point x="286.5" y="0.5"/>
      <point x="253.5" y="-29.0"/>
    </contour>
    <contour>
      <point x="215.5" y="210.0" type="curve"/>
      <point x="204.5" y="213.0" type="line" smooth="yes"/>
      <point x="149.5" y="230.5"/>
      <point x="126.5" y="255.5"/>
      <point x="126.5" y="301.5" type="curve" smooth="yes"/>
      <point x="126.5" y="348.5"/>
      <point x="154.0" y="378.0"/>
      <point x="201.0" y="378.0" type="curve" smooth="yes"/>
      <point x="248.0" y="378.0"/>
      <point x="275.5" y="351.5"/>
      <point x="275.5" y="303.0" type="curve" smooth="yes"/>
      <point x="275.5" y="257.0"/>
      <point x="257.5" y="229.0"/>
    </contour>
  </outline>
</glyph>
<glyph name="nineinferior" format="1">
  <advance width="405.5"/>
  <unicode hex="2089"/>
  <outline>
    <contour>
      <point x="146.5" y="-107.5" type="curve" smooth="yes"/>
      <point x="294.0" y="-107.5"/>
      <point x="373.5" y="2.0"/>
      <point x="373.5" y="202.5" type="curve" smooth="yes"/>
      <point x="373.5" y="366.0"/>
      <point x="311.5" y="454.5"/>
      <point x="196.5" y="454.5" type="curve" smooth="yes"/>
      <point x="91.0" y="454.5"/>
      <point x="24.0" y="380.5"/>
      <point x="24.0" y="265.5" type="curve" smooth="yes"/>
      <point x="24.0" y="168.5"/>
      <point x="84.0" y="106.5"/>
      <point x="179.0" y="106.5" type="curve" smooth="yes"/>
      <point x="213.5" y="106.5"/>
      <point x="250.0" y="119.5"/>
      <point x="280.0" y="143.5" type="curve"/>
      <point x="269.0" y="31.0"/>
      <point x="224.0" y="-27.5"/>
      <point x="144.5" y="-27.5" type="curve" smooth="yes"/>
      <point x="122.0" y="-27.5"/>
      <point x="96.5" y="-23.5"/>
      <point x="62.0" y="-14.0" type="curve"/>
      <point x="52.5" y="-93.5" type="line"/>
      <point x="90.5" y="-103.0"/>
      <point x="121.0" y="-107.5"/>
    </contour>
    <contour>
      <point x="197.0" y="173.0" type="curve" smooth="yes"/>
      <point x="143.5" y="173.0"/>
      <point x="115.5" y="205.5"/>
      <point x="115.5" y="267.5" type="curve" smooth="yes"/>
      <point x="115.5" y="331.5"/>
      <point x="145.0" y="370.5"/>
      <point x="196.5" y="370.5" type="curve" smooth="yes"/>
      <point x="253.5" y="370.5"/>
      <point x="281.5" y="321.5"/>
      <point x="283.5" y="215.5" type="curve"/>
      <point x="258.0" y="189.5"/>
      <point x="224.5" y="173.0"/>
    </contour>
  </outline>
</glyph>
<glyph name="uni20A9" format="1">
  <advance width="976.5"/>
  <unicode hex="20A9"/>
  <outline>
    <contour>
      <point x="41.5" y="223.5" type="line"/>
      <point x="935.0" y="223.5" type="line"/>
      <point x="935.0" y="292.5" type="line"/>
      <point x="41.5" y="292.5" type="line"/>
    </contour>
    <contour>
      <point x="41.5" y="436.5" type="line"/>
      <point x="935.0" y="436.5" type="line"/>
      <point x="935.0" y="505.5" type="line"/>
      <point x="41.5" y="505.5" type="line"/>
    </contour>
    <component base="W" xOffset="37.0"/>
  </outline>
</glyph>
<glyph name="Euro" format="1">
  <advance width="542.5"/>
  <unicode hex="20AC"/>
  <outline>
    <contour>
      <point x="415.5" y="-10.0" type="curve" smooth="yes"/>
      <point x="451.0" y="-10.0"/>
      <point x="479.5" y="-6.5"/>
      <point x="502.5" y="1.0" type="curve"/>
      <point x="502.5" y="97.0" type="line"/>
      <point x="478.5" y="91.5"/>
      <point x="451.5" y="88.0"/>
      <point x="428.0" y="88.0" type="curve" smooth="yes"/>
      <point x="274.0" y="88.0"/>
      <point x="219.0" y="164.0"/>
      <point x="219.0" y="369.0" type="curve" smooth="yes"/>
      <point x="219.0" y="579.5"/>
      <point x="273.0" y="650.5"/>
      <point x="429.5" y="650.5" type="curve" smooth="yes"/>
      <point x="449.0" y="650.5"/>
      <point x="465.0" y="649.0"/>
      <point x="487.0" y="646.5" type="curve"/>
      <point x="510.0" y="737.0" type="line"/>
      <point x="483.0" y="744.5"/>
      <point x="454.0" y="749.0"/>
      <point x="416.0" y="749.0" type="curve" smooth="yes"/>
      <point x="203.5" y="749.0"/>
      <point x="103.0" y="630.0"/>
      <point x="103.0" y="369.5" type="curve" smooth="yes"/>
      <point x="103.0" y="113.5"/>
      <point x="205.5" y="-8.5"/>
    </contour>
    <contour>
      <point x="32.5" y="251.0" type="line"/>
      <point x="388.5" y="251.0" type="line"/>
      <point x="408.5" y="320.0" type="line"/>
      <point x="32.5" y="320.0" type="line"/>
    </contour>
    <contour>
      <point x="32.5" y="419.0" type="line"/>
      <point x="420.5" y="419.0" type="line"/>
      <point x="440.5" y="488.0" type="line"/>
      <point x="32.5" y="488.0" type="line"/>
    </contour>
  </outline>
</glyph>
<glyph name="uni2113" format="1">
  <advance width="439.5"/>
  <unicode hex="2113"/>
  <outline>
    <contour>
      <point x="238.0" y="0.0" type="curve" smooth="yes"/>
      <point x="297.0" y="0.0"/>
      <point x="334.0" y="49.5"/>
      <point x="353.0" y="94.0" type="curve"/>
      <point x="319.5" y="107.0" type="line"/>
      <point x="306.0" y="73.5"/>
      <point x="282.0" y="40.5"/>
      <point x="260.5" y="40.5" type="curve" smooth="yes"/>
      <point x="232.0" y="40.5"/>
      <point x="218.0" y="97.0"/>
      <point x="218.0" y="182.0" type="curve" smooth="yes"/>
      <point x="218.0" y="219.5"/>
      <point x="220.0" y="251.5"/>
      <point x="222.5" y="283.0" type="curve"/>
      <point x="343.5" y="409.5"/>
      <point x="429.0" y="548.0"/>
      <point x="429.0" y="673.5" type="curve" smooth="yes"/>
      <point x="429.0" y="740.5"/>
      <point x="410.0" y="784.5"/>
      <point x="361.5" y="784.5" type="curve" smooth="yes"/>
      <point x="252.0" y="784.5"/>
      <point x="184.0" y="579.5"/>
      <point x="158.0" y="271.0" type="curve"/>
      <point x="112.5" y="227.5"/>
      <point x="68.0" y="191.0"/>
      <point x="26.5" y="160.0" type="curve"/>
      <point x="49.0" y="129.5" type="line"/>
      <point x="82.0" y="155.0"/>
      <point x="119.0" y="185.5"/>
      <point x="154.5" y="217.5" type="curve"/>
      <point x="153.5" y="203.0"/>
      <point x="153.5" y="185.5"/>
      <point x="153.5" y="166.0" type="curve" smooth="yes"/>
      <point x="153.5" y="52.5"/>
      <point x="179.5" y="0.0"/>
    </contour>
    <contour>
      <point x="229.5" y="348.5" type="curve"/>
      <point x="250.0" y="559.5"/>
      <point x="289.5" y="693.0"/>
      <point x="343.5" y="738.0" type="curve"/>
      <point x="358.0" y="729.5"/>
      <point x="364.5" y="691.0"/>
      <point x="364.5" y="643.5" type="curve" smooth="yes"/>
      <point x="364.5" y="555.5"/>
      <point x="313.5" y="448.5"/>
    </contour>
  </outline>
</glyph>
<glyph name="trademark" format="1">
  <advance width="820.5"/>
  <unicode hex="2122"/>
  <outline>
    <contour>
      <point x="364.5" y="320.0" type="line"/>
      <point x="437.5" y="320.0" type="line"/>
      <point x="437.5" y="612.5" type="line"/>
      <point x="530.0" y="339.5" type="line"/>
      <point x="596.5" y="339.5" type="line"/>
      <point x="689.0" y="613.0" type="line"/>
      <point x="689.0" y="320.0" type="line"/>
      <point x="762.0" y="320.0" type="line"/>
      <point x="762.0" y="740.0" type="line"/>
      <point x="661.5" y="740.0" type="line"/>
      <point x="563.0" y="456.5" type="line"/>
      <point x="465.0" y="740.0" type="line"/>
      <point x="364.5" y="740.0" type="line"/>
    </contour>
    <contour>
      <point x="133.5" y="320.0" type="line"/>
      <point x="210.5" y="320.0" type="line"/>
      <point x="210.5" y="672.0" type="line"/>
      <point x="318.5" y="672.0" type="line"/>
      <point x="318.5" y="740.0" type="line"/>
      <point x="25.5" y="740.0" type="line"/>
      <point x="25.5" y="672.0" type="line"/>
      <point x="133.5" y="672.0" type="line"/>
    </contour>
  </outline>
</glyph>
<glyph name="arrowright" format="1">
  <advance width="584.5"/>
  <unicode hex="2192"/>
  <outline>
    <contour>
      <point x="271.0" y="97.5" type="line"/>
      <point x="561.5" y="389.0" type="line"/>
      <point x="561.5" y="423.0" type="line"/>
      <point x="271.0" y="714.5" type="line"/>
      <point x="202.5" y="646.5" type="line"/>
      <point x="411.0" y="453.5" type="line"/>
      <point x="37.0" y="456.5" type="line"/>
      <point x="37.0" y="355.5" type="line"/>
      <point x="411.0" y="358.5" type="line"/>
      <point x="202.5" y="165.5" type="line"/>
    </contour>
  </outline>
</glyph>
<glyph name="partialdiff" format="1">
  <advance width="503.5"/>
  <unicode hex="2202"/>
  <outline>
    <contour>
      <point x="248.5" y="-4.0" type="curve" smooth="yes"/>
      <point x="377.5" y="-4.0"/>
      <point x="459.5" y="118.0"/>
      <point x="459.5" y="331.5" type="curve" smooth="yes"/>
      <point x="459.5" y="600.5"/>
      <point x="375.5" y="749.0"/>
      <point x="227.0" y="749.0" type="curve" smooth="yes"/>
      <point x="174.0" y="749.0"/>
      <point x="109.0" y="718.5"/>
      <point x="70.5" y="675.5" type="curve"/>
      <point x="103.5" y="606.5" type="line"/>
      <point x="135.0" y="635.5"/>
      <point x="184.5" y="658.5"/>
      <point x="218.5" y="658.5" type="curve" smooth="yes"/>
      <point x="289.0" y="658.5"/>
      <point x="331.0" y="587.5"/>
      <point x="343.5" y="446.0" type="curve"/>
      <point x="308.0" y="479.5"/>
      <point x="270.0" y="500.5"/>
      <point x="225.5" y="500.5" type="curve" smooth="yes"/>
      <point x="109.5" y="500.5"/>
      <point x="33.5" y="399.5"/>
      <point x="33.5" y="262.0" type="curve" smooth="yes"/>
      <point x="33.5" y="112.0"/>
      <point x="109.0" y="-4.0"/>
    </contour>
    <contour>
      <point x="246.5" y="81.0" type="curve" smooth="yes"/>
      <point x="183.0" y="81.0"/>
      <point x="145.5" y="155.5"/>
      <point x="145.5" y="262.0" type="curve" smooth="yes"/>
      <point x="145.5" y="354.0"/>
      <point x="193.0" y="413.5"/>
      <point x="252.5" y="413.5" type="curve" smooth="yes"/>
      <point x="289.5" y="413.5"/>
      <point x="319.5" y="394.0"/>
      <point x="347.5" y="362.5" type="curve"/>
      <point x="348.0" y="356.0"/>
      <point x="348.0" y="327.0"/>
      <point x="348.0" y="320.0" type="curve" smooth="yes"/>
      <point x="348.0" y="148.5"/>
      <point x="311.5" y="81.0"/>
    </contour>
  </outline>
</glyph>
<glyph name="Delta" format="1">
  <advance width="642.5"/>
  <unicode hex="2206"/>
  <outline>
    <contour>
      <point x="18.5" y="0.0" type="line"/>
      <point x="624.0" y="0.0" type="line"/>
      <point x="395.0" y="740.0" type="line"/>
      <point x="247.5" y="740.0" type="line"/>
    </contour>
    <contour>
      <point x="154.0" y="98.0" type="line"/>
      <point x="321.0" y="637.0" type="line"/>
      <point x="488.0" y="98.0" type="line"/>
    </contour>
  </outline>
</glyph>
<glyph name="product" format="1">
  <advance width="671.0"/>
  <unicode hex="220F"/>
  <outline>
    <contour>
      <point x="73.0" y="-111.5" type="line"/>
      <point x="185.0" y="-111.5" type="line"/>
      <point x="185.0" y="642.0" type="line"/>
      <point x="486.0" y="642.0" type="line"/>
      <point x="486.0" y="-111.5" type="line"/>
      <point x="598.0" y="-111.5" type="line"/>
      <point x="598.0" y="740.0" type="line"/>
      <point x="73.0" y="740.0" type="line"/>
    </contour>
  </outline>
</glyph>
<glyph name="uni2215" format="1">
  <advance width="339.0"/>
  <unicode hex="2215"/>
  <outline>
    <contour>
      <point x="-0.5" y="0.0" type="line"/>
      <point x="80.0" y="0.0" type="line"/>
      <point x="340.0" y="740.0" type="line"/>
      <point x="259.5" y="740.0" type="line"/>
    </contour>
  </outline>
</glyph>
<glyph name="infinity" format="1">
  <advance width="901.5"/>
  <unicode hex="221E"/>
  <outline>
    <contour>
      <point x="237.5" y="131.0" type="curve" smooth="yes"/>
      <point x="333.0" y="131.0"/>
      <point x="388.5" y="185.5"/>
      <point x="450.5" y="246.5" type="curve"/>
      <point x="524.5" y="162.5"/>
      <point x="586.5" y="131.0"/>
      <point x="664.0" y="131.0" type="curve" smooth="yes"/>
      <point x="780.5" y="131.0"/>
      <point x="866.0" y="207.5"/>
      <point x="866.0" y="312.0" type="curve" smooth="yes"/>
      <point x="866.0" y="415.5"/>
      <point x="781.0" y="490.5"/>
      <point x="664.0" y="490.5" type="curve" smooth="yes"/>
      <point x="576.5" y="490.5"/>
      <point x="511.0" y="445.0"/>
      <point x="450.0" y="382.5" type="curve"/>
      <point x="392.5" y="452.5"/>
      <point x="317.5" y="490.5"/>
      <point x="237.5" y="490.5" type="curve" smooth="yes"/>
      <point x="122.5" y="490.5"/>
      <point x="35.5" y="414.5"/>
      <point x="35.5" y="314.0" type="curve" smooth="yes"/>
      <point x="35.5" y="206.5"/>
      <point x="119.0" y="131.0"/>
    </contour>
    <contour>
      <point x="250.5" y="208.5" type="curve" smooth="yes"/>
      <point x="187.0" y="208.5"/>
      <point x="142.0" y="252.5"/>
      <point x="142.0" y="314.0" type="curve" smooth="yes"/>
      <point x="142.0" y="372.0"/>
      <point x="185.5" y="413.0"/>
      <point x="247.5" y="413.0" type="curve" smooth="yes"/>
      <point x="305.0" y="413.0"/>
      <point x="356.0" y="381.5"/>
      <point x="405.0" y="315.0" type="curve"/>
      <point x="343.0" y="238.0"/>
      <point x="299.5" y="208.5"/>
    </contour>
    <contour>
      <point x="654.0" y="208.5" type="curve" smooth="yes"/>
      <point x="602.5" y="208.5"/>
      <point x="561.0" y="235.5"/>
      <point x="496.5" y="313.0" type="curve"/>
      <point x="541.0" y="378.0"/>
      <point x="595.5" y="413.0"/>
      <point x="651.0" y="413.0" type="curve" smooth="yes"/>
      <point x="713.0" y="413.0"/>
      <point x="759.5" y="369.5"/>
      <point x="759.5" y="312.0" type="curve" smooth="yes"/>
      <point x="759.5" y="250.0"/>
      <point x="717.5" y="208.5"/>
    </contour>
  </outline>
</glyph>
<glyph name="integral" format="1">
  <advance width="332.5"/>
  <unicode hex="222B"/>
  <outline>
    <contour>
      <point x="97.5" y="-205.0" type="curve" smooth="yes"/>
      <point x="181.0" y="-205.0"/>
      <point x="247.5" y="-173.5"/>
      <point x="247.5" y="-78.0" type="curve" smooth="yes"/>
      <point x="247.5" y="-72.0"/>
      <point x="246.5" y="-65.0"/>
      <point x="246.5" y="-58.0" type="curve"/>
      <point x="195.5" y="616.0" type="line"/>
      <point x="195.0" y="619.0"/>
      <point x="195.0" y="626.0"/>
      <point x="195.0" y="629.0" type="curve" smooth="yes"/>
      <point x="195.0" y="677.0"/>
      <point x="221.5" y="691.0"/>
      <point x="254.0" y="691.0" type="curve" smooth="yes"/>
      <point x="273.0" y="691.0"/>
      <point x="294.0" y="686.5"/>
      <point x="312.0" y="681.5" type="curve"/>
      <point x="313.0" y="685.0"/>
      <point x="324.5" y="747.0"/>
      <point x="325.5" y="752.5" type="curve"/>
      <point x="284.0" y="763.0"/>
      <point x="248.0" y="768.5"/>
      <point x="209.5" y="768.5" type="curve" smooth="yes"/>
      <point x="139.0" y="768.5"/>
      <point x="87.5" y="731.0"/>
      <point x="87.5" y="638.0" type="curve" smooth="yes"/>
      <point x="87.5" y="631.5"/>
      <point x="88.0" y="624.0"/>
      <point x="88.5" y="617.0" type="curve"/>
      <point x="140.0" y="-56.0" type="line"/>
      <point x="140.0" y="-67.0" type="line" smooth="yes"/>
      <point x="140.0" y="-113.0"/>
      <point x="113.0" y="-125.0"/>
      <point x="78.0" y="-125.0" type="curve" smooth="yes"/>
      <point x="59.5" y="-125.0"/>
      <point x="39.0" y="-121.0"/>
      <point x="21.0" y="-118.0" type="curve"/>
      <point x="7.0" y="-190.0" type="line"/>
      <point x="37.0" y="-199.0"/>
      <point x="68.0" y="-205.0"/>
    </contour>
  </outline>
</glyph>
<glyph name="notequal" format="1">
  <advance width="489.5"/>
  <unicode hex="2260"/>
  <outline>
    <contour>
      <point x="266.0" y="602.5" type="line"/>
      <point x="135.0" y="113.0" type="line"/>
      <point x="216.0" y="92.0" type="line"/>
      <point x="347.0" y="581.5" type="line"/>
    </contour>
    <contour>
      <point x="42.5" y="201.5" type="line"/>
      <point x="446.5" y="201.5" type="line"/>
      <point x="446.5" y="287.5" type="line"/>
      <point x="42.5" y="287.5" type="line"/>
    </contour>
    <contour>
      <point x="42.5" y="418.5" type="line"/>
      <point x="446.5" y="418.5" type="line"/>
      <point x="446.5" y="504.5" type="line"/>
      <point x="42.5" y="504.5" type="line"/>
    </contour>
  </outline>
</glyph>
<glyph name="lessequal" format="1">
  <advance width="531.5"/>
  <unicode hex="2264"/>
  <outline>
    <contour>
      <point x="51.5" y="379.0" type="line"/>
      <point x="138.5" y="394.0" type="line"/>
      <point x="476.0" y="511.5" type="line"/>
      <point x="476.0" y="604.0" type="line"/>
      <point x="51.5" y="443.5" type="line"/>
    </contour>
    <contour>
      <point x="51.5" y="362.5" type="line"/>
      <point x="474.5" y="202.0" type="line"/>
      <point x="474.5" y="294.5" type="line"/>
      <point x="138.5" y="412.0" type="line"/>
      <point x="51.5" y="427.0" type="line"/>
    </contour>
    <contour>
      <point x="51.0" y="71.0" type="line"/>
      <point x="475.0" y="71.0" type="line"/>
      <point x="475.0" y="155.0" type="line"/>
      <point x="51.0" y="155.0" type="line"/>
    </contour>
  </outline>
</glyph>
<glyph name="lozenge" format="1">
  <advance width="502.5"/>
  <unicode hex="25CA"/>
  <outline>
    <contour>
      <point x="186.0" y="0.0" type="line"/>
      <point x="316.5" y="0.0" type="line"/>
      <point x="474.0" y="363.5" type="line"/>
      <point x="474.0" y="377.5" type="line"/>
      <point x="316.5" y="740.0" type="line"/>
      <point x="186.0" y="740.0" type="line"/>
      <point x="28.5" y="377.5" type="line"/>
      <point x="28.5" y="363.5" type="line"/>
    </contour>
    <contour>
      <point x="251.0" y="76.0" type="line"/>
      <point x="132.0" y="370.5" type="line"/>
      <point x="251.0" y="664.0" type="line"/>
      <point x="370.0" y="370.5" type="line"/>
    </contour>
  </outline>
</glyph>
<glyph name="commaaccent" format="1">
  <advance width="230.5"/>
  <unicode hex="F6C3"/>
  <outline>
    <contour>
      <point x="132.0" y="0.0" type="move" name="_bottom"/>
    </contour>
    <contour>
      <point x="38.0" y="-220.0" type="line"/>
      <point x="126.0" y="-220.0" type="line"/>
      <point x="199.0" y="-68.0" type="line"/>
      <point x="84.5" y="-68.0" type="line"/>
    </contour>
  </outline>
</glyph>
<glyph name="Abreve.sc" format="1">
  <advance width="532.0"/>
  <outline>
    <contour>
      <point x="267.0" y="624.0" type="curve" smooth="yes"/>
      <point x="361.5" y="624.0"/>
      <point x="414.0" y="674.0"/>
      <point x="414.0" y="754.5" type="curve"/>
      <point x="338.0" y="754.5" type="line"/>
      <point x="338.0" y="699.5"/>
      <point x="316.5" y="677.0"/>
      <point x="267.0" y="677.0" type="curve" smooth="yes"/>
      <point x="216.5" y="677.0"/>
      <point x="195.5" y="699.5"/>
      <point x="195.5" y="754.5" type="curve"/>
      <point x="120.0" y="754.5" type="line"/>
      <point x="120.0" y="673.5"/>
      <point x="172.0" y="624.0"/>
    </contour>
    <contour>
      <point x="6.5" y="0.0" type="line"/>
      <point x="109.0" y="0.0" type="line"/>
      <point x="158.0" y="147.0" type="line"/>
      <point x="373.5" y="147.0" type="line"/>
      <point x="422.5" y="0.0" type="line"/>
      <point x="525.5" y="0.0" type="line"/>
      <point x="525.5" y="5.5" type="line"/>
      <point x="347.0" y="577.0" type="line"/>
      <point x="185.5" y="577.0" type="line"/>
      <point x="6.5" y="5.5" type="line"/>
    </contour>
    <contour>
      <point x="176.0" y="223.5" type="line"/>
      <point x="238.0" y="411.5" type="line"/>
      <point x="261.0" y="494.0" type="line"/>
      <point x="270.5" y="494.0" type="line"/>
      <point x="294.0" y="411.5" type="line"/>
      <point x="355.0" y="223.5" type="line"/>
    </contour>
  </outline>
</glyph>
<glyph name="Agrave.sc" format="1">
  <advance width="532.0"/>
  <outline>
    <contour>
      <point x="6.5" y="0.0" type="line"/>
      <point x="109.0" y="0.0" type="line"/>
      <point x="158.0" y="147.0" type="line"/>
      <point x="373.5" y="147.0" type="line"/>
      <point x="422.5" y="0.0" type="line"/>
      <point x="525.5" y="0.0" type="line"/>
      <point x="525.5" y="5.5" type="line"/>
      <point x="347.0" y="577.0" type="line"/>
      <point x="185.5" y="577.0" type="line"/>
      <point x="6.5" y="5.5" type="line"/>
    </contour>
    <contour>
      <point x="176.0" y="223.5" type="line"/>
      <point x="238.0" y="411.5" type="line"/>
      <point x="261.0" y="494.0" type="line"/>
      <point x="270.5" y="494.0" type="line"/>
      <point x="294.0" y="411.5" type="line"/>
      <point x="355.0" y="223.5" type="line"/>
    </contour>
    <contour>
      <point x="303.0" y="624.0" type="line"/>
      <point x="241.0" y="750.0" type="line"/>
      <point x="131.5" y="750.0" type="line"/>
      <point x="224.0" y="615.5" type="line"/>
    </contour>
  </outline>
</glyph>
<glyph name="Aogonek.sc" format="1">
  <advance width="531.5"/>
  <outline>
    <contour>
      <point x="461.5" y="-168.0" type="curve" smooth="yes"/>
      <point x="484.0" y="-168.0"/>
      <point x="503.0" y="-164.5"/>
      <point x="525.0" y="-159.0" type="curve"/>
      <point x="525.0" y="-95.0" type="line"/>
      <point x="510.5" y="-100.5"/>
      <point x="490.0" y="-104.5"/>
      <point x="471.5" y="-104.5" type="curve" smooth="yes"/>
      <point x="449.5" y="-104.5"/>
      <point x="436.5" y="-98.0"/>
      <point x="436.5" y="-82.0" type="curve" smooth="yes"/>
      <point x="436.5" y="-59.5"/>
      <point x="460.5" y="-29.0"/>
      <point x="525.0" y="-7.0" type="curve"/>
      <point x="525.0" y="5.5" type="line"/>
      <point x="346.5" y="577.0" type="line"/>
      <point x="185.0" y="577.0" type="line"/>
      <point x="6.0" y="5.5" type="line"/>
      <point x="6.0" y="0.0" type="line"/>
      <point x="108.5" y="0.0" type="line"/>
      <point x="157.5" y="147.0" type="line"/>
      <point x="373.0" y="147.0" type="line"/>
      <point x="422.0" y="0.0" type="line"/>
      <point x="430.0" y="0.0" type="line"/>
      <point x="384.5" y="-29.5"/>
      <point x="364.5" y="-58.0"/>
      <point x="364.5" y="-93.5" type="curve" smooth="yes"/>
      <point x="364.5" y="-142.5"/>
      <point x="398.0" y="-168.0"/>
    </contour>
    <contour>
      <point x="175.0" y="223.5" type="line"/>
      <point x="237.5" y="416.0" type="line"/>
      <point x="260.5" y="494.0" type="line"/>
      <point x="270.0" y="494.0" type="line"/>
      <point x="293.5" y="416.0" type="line"/>
      <point x="354.0" y="223.5" type="line"/>
    </contour>
  </outline>
</glyph>
<glyph name="Aring.sc" format="1">
  <advance width="532.0"/>
  <outline>
    <contour>
      <point x="6.5" y="0.0" type="line"/>
      <point x="109.0" y="0.0" type="line"/>
      <point x="158.0" y="147.0" type="line"/>
      <point x="373.5" y="147.0" type="line"/>
      <point x="422.5" y="0.0" type="line"/>
      <point x="525.5" y="0.0" type="line"/>
      <point x="525.5" y="5.5" type="line"/>
      <point x="347.0" y="577.0" type="line"/>
      <point x="185.5" y="577.0" type="line"/>
      <point x="6.5" y="5.5" type="line"/>
    </contour>
    <contour>
      <point x="175.5" y="223.5" type="line"/>
      <point x="238.0" y="411.5" type="line"/>
      <point x="261.0" y="494.0" type="line"/>
      <point x="270.5" y="494.0" type="line"/>
      <point x="294.0" y="411.5" type="line"/>
      <point x="354.5" y="223.5" type="line"/>
    </contour>
    <contour>
      <point x="264.5" y="611.0" type="curve" smooth="yes"/>
      <point x="322.5" y="611.0"/>
      <point x="360.0" y="648.5"/>
      <point x="360.0" y="696.5" type="curve" smooth="yes"/>
      <point x="360.0" y="746.0"/>
      <point x="322.5" y="783.0"/>
      <point x="264.5" y="783.0" type="curve" smooth="yes"/>
      <point x="207.0" y="783.0"/>
      <point x="169.0" y="746.0"/>
      <point x="169.0" y="696.5" type="curve" smooth="yes"/>
      <point x="169.0" y="648.5"/>
      <point x="207.5" y="611.0"/>
    </contour>
    <contour>
      <point x="264.5" y="652.0" type="curve" smooth="yes"/>
      <point x="230.0" y="652.0"/>
      <point x="216.0" y="667.0"/>
      <point x="216.0" y="696.5" type="curve" smooth="yes"/>
      <point x="216.0" y="726.5"/>
      <point x="229.5" y="742.5"/>
      <point x="264.5" y="742.5" type="curve" smooth="yes"/>
      <point x="299.0" y="742.5"/>
      <point x="313.5" y="726.5"/>
      <point x="313.5" y="696.5" type="curve" smooth="yes"/>
      <point x="313.5" y="667.0"/>
      <point x="298.5" y="652.0"/>
    </contour>
  </outline>
</glyph>
<glyph name="Aringacute.sc" format="1">
  <advance width="531.0"/>
  <outline>
    <contour>
      <point x="6.0" y="0.0" type="line"/>
      <point x="108.5" y="0.0" type="line"/>
      <point x="157.5" y="147.0" type="line"/>
      <point x="373.0" y="147.0" type="line"/>
      <point x="422.0" y="0.0" type="line"/>
      <point x="525.0" y="0.0" type="line"/>
      <point x="525.0" y="5.5" type="line"/>
      <point x="360.5" y="519.0" type="line"/>
      <point x="377.0" y="535.5"/>
      <point x="385.0" y="557.0"/>
      <point x="385.0" y="581.5" type="curve" smooth="yes"/>
      <point x="385.0" y="623.5"/>
      <point x="362.5" y="657.5"/>
      <point x="323.5" y="673.5" type="curve"/>
      <point x="391.5" y="771.5" type="line"/>
      <point x="282.0" y="771.5" type="line"/>
      <point x="236.0" y="685.0" type="line"/>
      <point x="178.0" y="676.0"/>
      <point x="144.5" y="635.5"/>
      <point x="144.5" y="581.5" type="curve" smooth="yes"/>
      <point x="144.5" y="556.0"/>
      <point x="153.0" y="534.0"/>
      <point x="170.0" y="517.0" type="curve"/>
      <point x="6.0" y="5.5" type="line"/>
    </contour>
    <contour>
      <point x="264.0" y="530.5" type="curve" smooth="yes"/>
      <point x="230.0" y="530.5"/>
      <point x="208.5" y="551.5"/>
      <point x="208.5" y="581.5" type="curve" smooth="yes"/>
      <point x="208.5" y="612.5"/>
      <point x="229.0" y="633.0"/>
      <point x="264.0" y="633.0" type="curve" smooth="yes"/>
      <point x="299.0" y="633.0"/>
      <point x="320.5" y="612.5"/>
      <point x="320.5" y="581.5" type="curve" smooth="yes"/>
      <point x="320.5" y="552.0"/>
      <point x="298.5" y="530.5"/>
    </contour>
    <contour>
      <point x="175.5" y="223.5" type="line"/>
      <point x="237.5" y="411.5" type="line"/>
      <point x="252.0" y="472.5" type="line"/>
      <point x="278.5" y="473.0" type="line"/>
      <point x="293.5" y="411.5" type="line"/>
      <point x="354.5" y="223.5" type="line"/>
    </contour>
  </outline>
</glyph>
<glyph name="B.sc" format="1">
  <advance width="521.0"/>
  <outline>
    <contour>
      <point x="236.0" y="-8.0" type="curve" smooth="yes"/>
      <point x="403.0" y="-8.0"/>
      <point x="488.0" y="47.5"/>
      <point x="488.0" y="156.0" type="curve" smooth="yes"/>
      <point x="488.0" y="233.0"/>
      <point x="445.0" y="282.0"/>
      <point x="370.0" y="294.5" type="curve"/>
      <point x="370.0" y="297.5" type="line"/>
      <point x="435.0" y="312.0"/>
      <point x="469.5" y="355.5"/>
      <point x="469.5" y="423.5" type="curve" smooth="yes"/>
      <point x="469.5" y="535.0"/>
      <point x="397.0" y="585.0"/>
      <point x="234.5" y="585.0" type="curve" smooth="yes"/>
      <point x="186.5" y="585.0"/>
      <point x="138.5" y="581.5"/>
      <point x="62.0" y="574.0" type="curve"/>
      <point x="62.0" y="4.0" type="line"/>
      <point x="111.0" y="-3.5"/>
      <point x="180.5" y="-8.0"/>
    </contour>
    <contour>
      <point x="253.0" y="73.5" type="curve" smooth="yes"/>
      <point x="215.5" y="73.5"/>
      <point x="177.5" y="76.0"/>
      <point x="163.0" y="79.0" type="curve"/>
      <point x="163.0" y="252.5" type="line"/>
      <point x="243.5" y="252.5" type="line" smooth="yes"/>
      <point x="343.0" y="252.5"/>
      <point x="382.0" y="228.0"/>
      <point x="382.0" y="162.5" type="curve" smooth="yes"/>
      <point x="382.0" y="103.5"/>
      <point x="338.0" y="73.5"/>
    </contour>
    <contour>
      <point x="163.0" y="328.5" type="line"/>
      <point x="163.0" y="497.5" type="line"/>
      <point x="193.0" y="501.0"/>
      <point x="219.0" y="502.5"/>
      <point x="246.5" y="502.5" type="curve" smooth="yes"/>
      <point x="325.0" y="502.5"/>
      <point x="361.5" y="476.0"/>
      <point x="361.5" y="417.0" type="curve" smooth="yes"/>
      <point x="361.5" y="351.0"/>
      <point x="330.5" y="328.5"/>
      <point x="242.0" y="328.5" type="curve" smooth="yes"/>
    </contour>
  </outline>
</glyph>
<glyph name="Cacute.sc" format="1">
  <advance width="452.0"/>
  <outline>
    <contour>
      <point x="306.5" y="-7.5" type="curve" smooth="yes"/>
      <point x="352.0" y="-7.5"/>
      <point x="393.5" y="-1.0"/>
      <point x="420.0" y="7.5" type="curve"/>
      <point x="420.0" y="92.5" type="line"/>
      <point x="388.0" y="86.5"/>
      <point x="348.0" y="83.0"/>
      <point x="318.5" y="83.0" type="curve" smooth="yes"/>
      <point x="197.0" y="83.0"/>
      <point x="148.5" y="130.0"/>
      <point x="148.5" y="288.0" type="curve" smooth="yes"/>
      <point x="148.5" y="448.5"/>
      <point x="195.0" y="494.0"/>
      <point x="320.5" y="494.0" type="curve" smooth="yes"/>
      <point x="351.5" y="494.0"/>
      <point x="388.0" y="491.0"/>
      <point x="420.0" y="486.0" type="curve"/>
      <point x="420.0" y="573.0" type="line"/>
      <point x="378.0" y="580.0"/>
      <point x="339.5" y="584.5"/>
      <point x="305.0" y="584.5" type="curve" smooth="yes"/>
      <point x="122.5" y="584.5"/>
      <point x="36.5" y="493.5"/>
      <point x="36.5" y="288.5" type="curve" smooth="yes"/>
      <point x="36.5" y="85.0"/>
      <point x="123.5" y="-6.5"/>
    </contour>
    <contour>
      <point x="297.0" y="615.5" type="line"/>
      <point x="390.5" y="750.0" type="line"/>
      <point x="281.0" y="750.0" type="line"/>
      <point x="219.0" y="621.0" type="line"/>
    </contour>
  </outline>
</glyph>
<glyph name="Ccedilla.sc" format="1">
  <advance width="452.0"/>
  <outline>
    <contour>
      <point x="240.5" y="-172.0" type="curve" smooth="yes"/>
      <point x="306.5" y="-172.0"/>
      <point x="341.0" y="-139.5"/>
      <point x="341.0" y="-87.5" type="curve" smooth="yes"/>
      <point x="341.0" y="-60.5"/>
      <point x="333.0" y="-35.0"/>
      <point x="316.5" y="-6.5" type="curve"/>
      <point x="354.5" y="-7.0"/>
      <point x="393.5" y="-0.5"/>
      <point x="420.0" y="7.5" type="curve"/>
      <point x="420.0" y="92.5" type="line"/>
      <point x="388.0" y="86.5"/>
      <point x="348.0" y="83.0"/>
      <point x="318.5" y="83.0" type="curve" smooth="yes"/>
      <point x="197.0" y="83.0"/>
      <point x="148.5" y="130.0"/>
      <point x="148.5" y="288.0" type="curve" smooth="yes"/>
      <point x="148.5" y="448.5"/>
      <point x="195.0" y="494.0"/>
      <point x="320.5" y="494.0" type="curve" smooth="yes"/>
      <point x="351.5" y="494.0"/>
      <point x="388.0" y="491.0"/>
      <point x="420.0" y="486.0" type="curve"/>
      <point x="420.0" y="573.0" type="line"/>
      <point x="378.0" y="580.0"/>
      <point x="339.5" y="584.5"/>
      <point x="305.0" y="584.5" type="curve" smooth="yes"/>
      <point x="122.5" y="584.5"/>
      <point x="36.5" y="493.5"/>
      <point x="36.5" y="288.5" type="curve" smooth="yes"/>
      <point x="36.5" y="109.5"/>
      <point x="103.0" y="18.0"/>
      <point x="243.5" y="-2.0" type="curve"/>
      <point x="259.0" y="-27.5"/>
      <point x="268.5" y="-52.5"/>
      <point x="268.5" y="-71.0" type="curve" smooth="yes"/>
      <point x="268.5" y="-91.5"/>
      <point x="255.5" y="-104.5"/>
      <point x="226.0" y="-104.5" type="curve" smooth="yes"/>
      <point x="216.0" y="-104.5"/>
      <point x="194.0" y="-102.5"/>
      <point x="173.0" y="-98.0" type="curve"/>
      <point x="173.0" y="-163.0" type="line"/>
      <point x="198.0" y="-169.0"/>
      <point x="222.0" y="-172.0"/>
    </contour>
  </outline>
</glyph>
<glyph name="Dcroat.sc" format="1">
  <advance width="571.5"/>
  <outline>
    <contour>
      <point x="4.0" y="248.0" type="line"/>
      <point x="78.0" y="248.0" type="line"/>
      <point x="78.0" y="-2.5" type="line"/>
      <point x="132.5" y="-8.5"/>
      <point x="175.5" y="-10.5"/>
      <point x="215.0" y="-10.5" type="curve" smooth="yes"/>
      <point x="443.0" y="-10.5"/>
      <point x="534.5" y="74.0"/>
      <point x="534.5" y="288.0" type="curve" smooth="yes"/>
      <point x="534.5" y="499.0"/>
      <point x="447.5" y="584.5"/>
      <point x="234.0" y="584.5" type="curve" smooth="yes"/>
      <point x="192.5" y="584.5"/>
      <point x="145.5" y="581.0"/>
      <point x="78.0" y="575.5" type="curve"/>
      <point x="78.0" y="331.5" type="line"/>
      <point x="4.0" y="331.5" type="line"/>
    </contour>
    <contour>
      <point x="250.5" y="78.5" type="curve" smooth="yes"/>
      <point x="232.0" y="78.5"/>
      <point x="213.0" y="79.0"/>
      <point x="185.0" y="82.5" type="curve"/>
      <point x="185.0" y="248.0" type="line"/>
      <point x="285.0" y="248.0" type="line"/>
      <point x="285.0" y="331.5" type="line"/>
      <point x="185.0" y="331.5" type="line"/>
      <point x="185.0" y="492.0" type="line"/>
      <point x="205.5" y="495.0"/>
      <point x="225.5" y="497.0"/>
      <point x="250.0" y="497.0" type="curve" smooth="yes"/>
      <point x="377.0" y="497.0"/>
      <point x="423.0" y="445.5"/>
      <point x="423.0" y="288.5" type="curve" smooth="yes"/>
      <point x="423.0" y="130.5"/>
      <point x="373.5" y="78.5"/>
    </contour>
  </outline>
</glyph>
<glyph name="E.sc" format="1">
  <advance width="477.5"/>
  <outline>
    <contour>
      <point x="458.5" y="0.0" type="move" name="ogonek"/>
    </contour>
    <contour>
      <point x="267.5" y="760.0" type="move" name="topUC"/>
    </contour>
    <contour>
      <point x="287.5" y="0.0" type="move" name="bottom"/>
    </contour>
    <contour>
      <point x="62.5" y="0.0" type="line"/>
      <point x="444.0" y="0.0" type="line"/>
      <point x="444.0" y="89.0" type="line"/>
      <point x="171.0" y="89.0" type="line"/>
      <point x="171.0" y="247.5" type="line"/>
      <point x="408.5" y="247.5" type="line"/>
      <point x="408.5" y="333.5" type="line"/>
      <point x="171.0" y="333.5" type="line"/>
      <point x="171.0" y="488.5" type="line"/>
      <point x="436.5" y="488.5" type="line"/>
      <point x="436.5" y="577.0" type="line"/>
      <point x="62.5" y="577.0" type="line"/>
    </contour>
  </outline>
</glyph>
<glyph name="Eacute.sc" format="1">
  <advance width="477.5"/>
  <outline>
    <contour>
      <point x="62.5" y="0.0" type="line"/>
      <point x="444.0" y="0.0" type="line"/>
      <point x="444.0" y="89.0" type="line"/>
      <point x="171.0" y="89.0" type="line"/>
      <point x="171.0" y="247.5" type="line"/>
      <point x="408.5" y="247.5" type="line"/>
      <point x="408.5" y="333.5" type="line"/>
      <point x="171.0" y="333.5" type="line"/>
      <point x="171.0" y="488.5" type="line"/>
      <point x="436.5" y="488.5" type="line"/>
      <point x="436.5" y="577.0" type="line"/>
      <point x="62.5" y="577.0" type="line"/>
    </contour>
    <contour>
      <point x="285.5" y="615.5" type="line"/>
      <point x="378.5" y="750.0" type="line"/>
      <point x="268.5" y="750.0" type="line"/>
      <point x="207.0" y="621.0" type="line"/>
    </contour>
  </outline>
</glyph>
<glyph name="Ecaron.sc" format="1">
  <advance width="477.5"/>
  <outline>
    <contour>
      <point x="62.5" y="0.0" type="line"/>
      <point x="444.0" y="0.0" type="line"/>
      <point x="444.0" y="89.0" type="line"/>
      <point x="171.0" y="89.0" type="line"/>
      <point x="171.0" y="247.5" type="line"/>
      <point x="408.5" y="247.5" type="line"/>
      <point x="408.5" y="333.5" type="line"/>
      <point x="171.0" y="333.5" type="line"/>
      <point x="171.0" y="488.5" type="line"/>
      <point x="436.5" y="488.5" type="line"/>
      <point x="436.5" y="577.0" type="line"/>
      <point x="62.5" y="577.0" type="line"/>
    </contour>
    <contour>
      <point x="257.5" y="617.0" type="line"/>
      <point x="390.0" y="673.5" type="line"/>
      <point x="390.0" y="747.5" type="line"/>
      <point x="257.0" y="691.5" type="line"/>
      <point x="125.0" y="747.5" type="line"/>
      <point x="125.0" y="673.5" type="line"/>
    </contour>
  </outline>
</glyph>
<glyph name="Ecircumflex.sc" format="1">
  <advance width="477.5"/>
  <outline>
    <contour>
      <point x="62.5" y="0.0" type="line"/>
      <point x="444.0" y="0.0" type="line"/>
      <point x="444.0" y="89.0" type="line"/>
      <point x="171.0" y="89.0" type="line"/>
      <point x="171.0" y="247.5" type="line"/>
      <point x="408.5" y="247.5" type="line"/>
      <point x="408.5" y="333.5" type="line"/>
      <point x="171.0" y="333.5" type="line"/>
      <point x="171.0" y="488.5" type="line"/>
      <point x="436.5" y="488.5" type="line"/>
      <point x="436.5" y="577.0" type="line"/>
      <point x="62.5" y="577.0" type="line"/>
    </contour>
    <contour>
      <point x="119.5" y="622.5" type="line"/>
      <point x="252.0" y="678.5" type="line"/>
      <point x="384.5" y="622.5" type="line"/>
      <point x="384.5" y="697.0" type="line"/>
      <point x="252.5" y="753.0" type="line"/>
      <point x="119.5" y="697.0" type="line"/>
    </contour>
  </outline>
</glyph>
<glyph name="Edblgrave.sc" format="1">
  <advance width="478.0"/>
  <outline>
    <contour>
      <point x="62.5" y="0.0" type="line"/>
      <point x="444.0" y="0.0" type="line"/>
      <point x="444.0" y="89.0" type="line"/>
      <point x="171.0" y="89.0" type="line"/>
      <point x="171.0" y="247.5" type="line"/>
      <point x="408.5" y="247.5" type="line"/>
      <point x="408.5" y="333.5" type="line"/>
      <point x="171.0" y="333.5" type="line"/>
      <point x="171.0" y="488.5" type="line"/>
      <point x="436.5" y="488.5" type="line"/>
      <point x="436.5" y="577.0" type="line"/>
      <point x="62.5" y="577.0" type="line"/>
    </contour>
    <contour>
      <point x="153.0" y="615.0" type="line"/>
      <point x="214.0" y="624.0" type="line"/>
      <point x="152.5" y="750.0" type="line"/>
      <point x="59.5" y="750.0" type="line"/>
    </contour>
    <contour>
      <point x="300.0" y="615.0" type="line"/>
      <point x="361.0" y="624.0" type="line"/>
      <point x="299.5" y="750.0" type="line"/>
      <point x="206.5" y="750.0" type="line"/>
    </contour>
  </outline>
</glyph>
<glyph name="Edotaccent.sc" format="1">
  <advance width="477.5"/>
  <outline>
    <contour>
      <point x="251.0" y="623.0" type="curve" smooth="yes"/>
      <point x="292.0" y="623.0"/>
      <point x="313.0" y="640.5"/>
      <point x="313.0" y="682.5" type="curve" smooth="yes"/>
      <point x="313.0" y="723.5"/>
      <point x="292.0" y="740.5"/>
      <point x="251.0" y="740.5" type="curve" smooth="yes"/>
      <point x="209.0" y="740.5"/>
      <point x="190.0" y="723.5"/>
      <point x="190.0" y="682.5" type="curve" smooth="yes"/>
      <point x="190.0" y="640.5"/>
      <point x="209.0" y="623.0"/>
    </contour>
    <contour>
      <point x="62.5" y="0.0" type="line"/>
      <point x="444.0" y="0.0" type="line"/>
      <point x="444.0" y="89.0" type="line"/>
      <point x="171.0" y="89.0" type="line"/>
      <point x="171.0" y="247.5" type="line"/>
      <point x="408.5" y="247.5" type="line"/>
      <point x="408.5" y="333.5" type="line"/>
      <point x="171.0" y="333.5" type="line"/>
      <point x="171.0" y="488.5" type="line"/>
      <point x="436.5" y="488.5" type="line"/>
      <point x="436.5" y="577.0" type="line"/>
      <point x="62.5" y="577.0" type="line"/>
    </contour>
  </outline>
</glyph>
<glyph name="Einvertedbreve.sc" format="1">
  <advance width="477.5"/>
  <outline>
    <contour>
      <point x="105.0" y="632.0" type="curve"/>
      <point x="180.0" y="632.0" type="line"/>
      <point x="180.0" y="686.0"/>
      <point x="201.5" y="708.5"/>
      <point x="252.0" y="708.5" type="curve" smooth="yes"/>
      <point x="301.5" y="708.5"/>
      <point x="323.0" y="686.0"/>
      <point x="323.0" y="632.0" type="curve"/>
      <point x="399.0" y="632.0" type="line"/>
      <point x="399.0" y="712.5"/>
      <point x="346.0" y="762.0"/>
      <point x="252.0" y="762.0" type="curve" smooth="yes"/>
      <point x="156.0" y="762.0"/>
      <point x="105.0" y="712.5"/>
    </contour>
    <contour>
      <point x="62.5" y="0.0" type="line"/>
      <point x="444.0" y="0.0" type="line"/>
      <point x="444.0" y="89.0" type="line"/>
      <point x="171.0" y="89.0" type="line"/>
      <point x="171.0" y="247.5" type="line"/>
      <point x="408.5" y="247.5" type="line"/>
      <point x="408.5" y="333.5" type="line"/>
      <point x="171.0" y="333.5" type="line"/>
      <point x="171.0" y="488.5" type="line"/>
      <point x="436.5" y="488.5" type="line"/>
      <point x="436.5" y="577.0" type="line"/>
      <point x="62.5" y="577.0" type="line"/>
    </contour>
  </outline>
</glyph>
<glyph name="Eng.sc" format="1">
  <advance width="603.0"/>
  <outline>
    <contour>
      <point x="445.0" y="-155.5" type="line"/>
      <point x="499.0" y="-78.0"/>
      <point x="541.5" y="25.5"/>
      <point x="541.5" y="80.0" type="curve" smooth="yes"/>
      <point x="541.5" y="577.0" type="line"/>
      <point x="444.0" y="577.0" type="line"/>
      <point x="444.0" y="186.5" type="line"/>
      <point x="437.0" y="186.0" type="line"/>
      <point x="400.5" y="250.5" type="line"/>
      <point x="155.5" y="577.0" type="line"/>
      <point x="63.0" y="577.0" type="line"/>
      <point x="63.0" y="0.0" type="line"/>
      <point x="160.5" y="0.0" type="line"/>
      <point x="160.5" y="392.5" type="line"/>
      <point x="167.5" y="392.0" type="line"/>
      <point x="204.5" y="327.5" type="line"/>
      <point x="427.0" y="36.0" type="line"/>
      <point x="418.0" y="-17.0"/>
      <point x="399.0" y="-74.5"/>
      <point x="373.0" y="-132.5" type="curve"/>
    </contour>
  </outline>
</glyph>
<glyph name="H.sc" format="1">
  <advance width="590.0"/>
  <outline>
    <contour>
      <point x="298.5" y="760.0" type="move" name="topUC"/>
    </contour>
    <contour>
      <point x="318.5" y="0.0" type="move" name="bottom"/>
    </contour>
    <contour>
      <point x="62.5" y="0.0" type="line"/>
      <point x="171.0" y="0.0" type="line"/>
      <point x="171.0" y="249.0" type="line"/>
      <point x="418.5" y="249.0" type="line"/>
      <point x="418.5" y="0.0" type="line"/>
      <point x="527.5" y="0.0" type="line"/>
      <point x="527.5" y="577.0" type="line"/>
      <point x="418.5" y="577.0" type="line"/>
      <point x="418.5" y="340.5" type="line"/>
      <point x="171.0" y="340.5" type="line"/>
      <point x="171.0" y="577.0" type="line"/>
      <point x="62.5" y="577.0" type="line"/>
    </contour>
  </outline>
</glyph>
<glyph name="Hdotbelow.sc" format="1">
  <advance width="590.0"/>
  <outline>
    <contour>
      <point x="62.5" y="0.0" type="line"/>
      <point x="171.0" y="0.0" type="line"/>
      <point x="171.0" y="249.0" type="line"/>
      <point x="418.5" y="249.0" type="line"/>
      <point x="418.5" y="0.0" type="line"/>
      <point x="527.5" y="0.0" type="line"/>
      <point x="527.5" y="577.0" type="line"/>
      <point x="418.5" y="577.0" type="line"/>
      <point x="418.5" y="340.5" type="line"/>
      <point x="171.0" y="340.5" type="line"/>
      <point x="171.0" y="577.0" type="line"/>
      <point x="62.5" y="577.0" type="line"/>
    </contour>
    <contour>
      <point x="298.0" y="-155.0" type="curve" smooth="yes"/>
      <point x="333.0" y="-155.0"/>
      <point x="350.5" y="-141.5"/>
      <point x="350.5" y="-106.5" type="curve" smooth="yes"/>
      <point x="350.5" y="-72.0"/>
      <point x="333.0" y="-58.0"/>
      <point x="298.0" y="-58.0" type="curve" smooth="yes"/>
      <point x="262.0" y="-58.0"/>
      <point x="246.0" y="-72.0"/>
      <point x="246.0" y="-106.5" type="curve" smooth="yes"/>
      <point x="246.0" y="-141.0"/>
      <point x="262.0" y="-155.0"/>
    </contour>
  </outline>
</glyph>
<glyph name="Icircumflex.sc" format="1">
  <advance width="233.5"/>
  <outline>
    <contour>
      <point x="62.5" y="0.0" type="line"/>
      <point x="171.0" y="0.0" type="line"/>
      <point x="171.0" y="577.0" type="line"/>
      <point x="62.5" y="577.0" type="line"/>
    </contour>
    <contour>
      <point x="-14.0" y="622.5" type="line"/>
      <point x="118.5" y="678.5" type="line"/>
      <point x="251.0" y="622.5" type="line"/>
      <point x="251.0" y="697.0" type="line"/>
      <point x="119.0" y="753.0" type="line"/>
      <point x="-14.0" y="697.0" type="line"/>
    </contour>
  </outline>
</glyph>
<glyph name="Idieresis.sc" format="1">
  <advance width="233.5"/>
  <outline>
    <contour>
      <point x="62.5" y="0.0" type="line"/>
      <point x="171.0" y="0.0" type="line"/>
      <point x="171.0" y="577.0" type="line"/>
      <point x="62.5" y="577.0" type="line"/>
    </contour>
    <contour>
      <point x="19.5" y="627.0" type="curve" smooth="yes"/>
      <point x="61.0" y="627.0"/>
      <point x="81.5" y="644.5"/>
      <point x="81.5" y="686.0" type="curve" smooth="yes"/>
      <point x="81.5" y="727.0"/>
      <point x="61.0" y="745.0"/>
      <point x="19.5" y="745.0" type="curve" smooth="yes"/>
      <point x="-22.0" y="745.0"/>
      <point x="-41.5" y="727.5"/>
      <point x="-41.5" y="686.0" type="curve" smooth="yes"/>
      <point x="-41.5" y="645.0"/>
      <point x="-22.0" y="627.0"/>
    </contour>
    <contour>
      <point x="216.0" y="627.0" type="curve" smooth="yes"/>
      <point x="257.0" y="627.0"/>
      <point x="278.5" y="644.5"/>
      <point x="278.5" y="686.0" type="curve" smooth="yes"/>
      <point x="278.5" y="727.0"/>
      <point x="257.0" y="745.0"/>
      <point x="216.0" y="745.0" type="curve" smooth="yes"/>
      <point x="174.5" y="745.0"/>
      <point x="154.5" y="727.5"/>
      <point x="154.5" y="686.0" type="curve" smooth="yes"/>
      <point x="154.5" y="645.0"/>
      <point x="174.5" y="627.0"/>
    </contour>
  </outline>
</glyph>
<glyph name="Idotaccent.sc" format="1">
  <advance width="233.5"/>
  <outline>
    <contour>
      <point x="62.5" y="0.0" type="line"/>
      <point x="171.0" y="0.0" type="line"/>
      <point x="171.0" y="577.0" type="line"/>
      <point x="62.5" y="577.0" type="line"/>
    </contour>
    <contour>
      <point x="118.0" y="623.0" type="curve" smooth="yes"/>
      <point x="159.5" y="623.0"/>
      <point x="180.0" y="640.5"/>
      <point x="180.0" y="682.5" type="curve" smooth="yes"/>
      <point x="180.0" y="723.5"/>
      <point x="159.5" y="740.5"/>
      <point x="118.0" y="740.5" type="curve" smooth="yes"/>
      <point x="76.5" y="740.5"/>
      <point x="57.0" y="723.5"/>
      <point x="57.0" y="682.5" type="curve" smooth="yes"/>
      <point x="57.0" y="640.5"/>
      <point x="76.5" y="623.0"/>
    </contour>
  </outline>
</glyph>
<glyph name="Idotbelow.sc" format="1">
  <advance width="233.5"/>
  <outline>
    <contour>
      <point x="62.5" y="0.0" type="line"/>
      <point x="171.0" y="0.0" type="line"/>
      <point x="171.0" y="577.0" type="line"/>
      <point x="62.5" y="577.0" type="line"/>
    </contour>
    <contour>
      <point x="118.0" y="-155.0" type="curve" smooth="yes"/>
      <point x="153.0" y="-155.0"/>
      <point x="171.0" y="-141.5"/>
      <point x="171.0" y="-106.5" type="curve" smooth="yes"/>
      <point x="171.0" y="-72.0"/>
      <point x="153.0" y="-58.0"/>
      <point x="118.0" y="-58.0" type="curve" smooth="yes"/>
      <point x="82.0" y="-58.0"/>
      <point x="66.0" y="-72.0"/>
      <point x="66.0" y="-106.5" type="curve" smooth="yes"/>
      <point x="66.0" y="-141.0"/>
      <point x="82.0" y="-155.0"/>
    </contour>
  </outline>
</glyph>
<glyph name="Imacron.sc" format="1">
  <advance width="233.5"/>
  <outline>
    <contour>
      <point x="62.5" y="0.0" type="line"/>
      <point x="171.0" y="0.0" type="line"/>
      <point x="171.0" y="577.0" type="line"/>
      <point x="62.5" y="577.0" type="line"/>
    </contour>
    <contour>
      <point x="-12.0" y="653.5" type="line"/>
      <point x="241.0" y="653.5" type="line"/>
      <point x="241.0" y="726.5" type="line"/>
      <point x="-12.0" y="726.5" type="line"/>
    </contour>
  </outline>
</glyph>
<glyph name="Itilde.sc" format="1">
  <advance width="233.5"/>
  <outline>
    <contour>
      <point x="62.5" y="0.0" type="line"/>
      <point x="171.0" y="0.0" type="line"/>
      <point x="171.0" y="577.0" type="line"/>
      <point x="62.5" y="577.0" type="line"/>
    </contour>
    <contour>
      <point x="-12.0" y="638.0" type="line"/>
      <point x="9.0" y="658.5"/>
      <point x="29.5" y="667.5"/>
      <point x="51.5" y="667.5" type="curve" smooth="yes"/>
      <point x="94.5" y="667.5"/>
      <point x="131.0" y="636.5"/>
      <point x="176.5" y="636.5" type="curve" smooth="yes"/>
      <point x="214.5" y="636.5"/>
      <point x="255.0" y="664.5"/>
      <point x="281.5" y="718.5" type="curve"/>
      <point x="259.5" y="735.5" type="line"/>
      <point x="240.0" y="714.0"/>
      <point x="220.5" y="705.5"/>
      <point x="199.5" y="705.5" type="curve" smooth="yes"/>
      <point x="156.0" y="705.5"/>
      <point x="120.5" y="736.0"/>
      <point x="74.5" y="736.0" type="curve" smooth="yes"/>
      <point x="37.0" y="736.0"/>
      <point x="-4.0" y="707.0"/>
      <point x="-32.0" y="655.5" type="curve"/>
    </contour>
  </outline>
</glyph>
<glyph name="J.sc" format="1">
  <advance width="234.0"/>
  <outline>
    <contour>
      <point x="110.5" y="760.0" type="move" name="topUC"/>
    </contour>
    <contour>
      <point x="65.0" y="-156.0" type="line"/>
      <point x="144.0" y="-45.5"/>
      <point x="173.5" y="35.5"/>
      <point x="173.5" y="140.5" type="curve" smooth="yes"/>
      <point x="173.5" y="577.0" type="line"/>
      <point x="64.5" y="577.0" type="line"/>
      <point x="64.5" y="149.5" type="line" smooth="yes"/>
      <point x="64.5" y="42.0"/>
      <point x="50.0" y="-17.5"/>
      <point x="-4.5" y="-124.5" type="curve"/>
    </contour>
  </outline>
</glyph>
<glyph name="Jcircumflex.sc" format="1">
  <advance width="234.5"/>
  <outline>
    <contour>
      <point x="65.0" y="-156.0" type="line"/>
      <point x="144.0" y="-45.5"/>
      <point x="173.5" y="35.5"/>
      <point x="173.5" y="140.5" type="curve" smooth="yes"/>
      <point x="173.5" y="577.0" type="line"/>
      <point x="64.5" y="577.0" type="line"/>
      <point x="64.5" y="149.5" type="line" smooth="yes"/>
      <point x="64.5" y="42.0"/>
      <point x="50.0" y="-17.5"/>
      <point x="-4.0" y="-124.5" type="curve"/>
    </contour>
    <contour>
      <point x="-13.0" y="622.5" type="line"/>
      <point x="119.5" y="678.5" type="line"/>
      <point x="251.5" y="622.5" type="line"/>
      <point x="251.5" y="697.0" type="line"/>
      <point x="120.0" y="753.0" type="line"/>
      <point x="-13.0" y="697.0" type="line"/>
    </contour>
  </outline>
</glyph>
<glyph name="Kcommaaccent.sc" format="1">
  <advance width="536.5"/>
  <outline>
    <contour>
      <point x="62.5" y="0.0" type="line"/>
      <point x="171.0" y="0.0" type="line"/>
      <point x="171.0" y="248.5" type="line"/>
      <point x="241.5" y="248.5" type="line"/>
      <point x="413.5" y="0.0" type="line"/>
      <point x="535.0" y="0.0" type="line"/>
      <point x="351.5" y="271.5" type="line"/>
      <point x="306.0" y="292.0" type="line"/>
      <point x="306.0" y="296.5" type="line"/>
      <point x="350.5" y="318.0" type="line"/>
      <point x="517.5" y="577.0" type="line"/>
      <point x="396.0" y="577.0" type="line"/>
      <point x="242.0" y="340.0" type="line"/>
      <point x="171.0" y="340.0" type="line"/>
      <point x="171.0" y="577.0" type="line"/>
      <point x="62.5" y="577.0" type="line"/>
    </contour>
    <contour>
      <point x="185.0" y="-172.0" type="line"/>
      <point x="268.0" y="-172.0" type="line"/>
      <point x="334.0" y="-53.5" type="line"/>
      <point x="225.0" y="-53.5" type="line"/>
    </contour>
  </outline>
</glyph>
<glyph name="L.sc" format="1">
  <advance width="399.5"/>
  <outline>
    <contour>
      <point x="124.5" y="760.0" type="move" name="topUC"/>
    </contour>
    <contour>
      <point x="294.5" y="370.0" type="move" name="periodcentered"/>
    </contour>
    <contour>
      <point x="342.5" y="740.0" type="move" name="caronalt"/>
    </contour>
    <contour>
      <point x="238.5" y="0.0" type="move" name="bottom"/>
    </contour>
    <contour>
      <point x="62.5" y="0.0" type="line"/>
      <point x="386.0" y="0.0" type="line"/>
      <point x="386.0" y="91.5" type="line"/>
      <point x="171.0" y="91.5" type="line"/>
      <point x="171.0" y="577.0" type="line"/>
      <point x="62.5" y="577.0" type="line"/>
    </contour>
  </outline>
</glyph>
<glyph name="Lacute.sc" format="1">
  <advance width="400.0"/>
  <outline>
    <contour>
      <point x="62.5" y="0.0" type="line"/>
      <point x="386.0" y="0.0" type="line"/>
      <point x="386.0" y="91.5" type="line"/>
      <point x="171.0" y="91.5" type="line"/>
      <point x="171.0" y="577.0" type="line"/>
      <point x="62.5" y="577.0" type="line"/>
    </contour>
    <contour>
      <point x="159.5" y="615.5" type="line"/>
      <point x="252.5" y="750.0" type="line"/>
      <point x="142.5" y="750.0" type="line"/>
      <point x="81.0" y="621.0" type="line"/>
    </contour>
  </outline>
</glyph>
<glyph name="Lcaron.sc" format="1">
  <advance width="419.5"/>
  <outline>
    <contour>
      <point x="63.0" y="0.0" type="line"/>
      <point x="386.5" y="0.0" type="line"/>
      <point x="386.5" y="91.5" type="line"/>
      <point x="171.5" y="91.5" type="line"/>
      <point x="171.5" y="577.0" type="line"/>
      <point x="63.0" y="577.0" type="line"/>
    </contour>
    <contour>
      <point x="318.5" y="434.0" type="line"/>
      <point x="373.5" y="434.0" type="line"/>
      <point x="404.5" y="611.0" type="line"/>
      <point x="318.5" y="611.0" type="line"/>
    </contour>
  </outline>
</glyph>
<glyph name="Ldot.sc" format="1">
  <advance width="411.0"/>
  <outline>
    <contour>
      <point x="62.5" y="0.0" type="line"/>
      <point x="386.0" y="0.0" type="line"/>
      <point x="386.0" y="91.5" type="line"/>
      <point x="171.0" y="91.5" type="line"/>
      <point x="171.0" y="577.0" type="line"/>
      <point x="62.5" y="577.0" type="line"/>
    </contour>
    <contour>
      <point x="317.0" y="230.5" type="curve" smooth="yes"/>
      <point x="358.0" y="230.5"/>
      <point x="379.0" y="248.0"/>
      <point x="379.0" y="290.0" type="curve" smooth="yes"/>
      <point x="379.0" y="331.5"/>
      <point x="358.0" y="348.5"/>
      <point x="317.0" y="348.5" type="curve" smooth="yes"/>
      <point x="274.5" y="348.5"/>
      <point x="256.0" y="331.0"/>
      <point x="256.0" y="290.0" type="curve" smooth="yes"/>
      <point x="256.0" y="248.5"/>
      <point x="274.5" y="230.5"/>
    </contour>
  </outline>
</glyph>
<glyph name="Ncommaaccent.sc" format="1">
  <advance width="603.5"/>
  <outline>
    <contour>
      <point x="62.5" y="0.0" type="line"/>
      <point x="160.0" y="0.0" type="line"/>
      <point x="160.0" y="402.5" type="line"/>
      <point x="167.0" y="402.0" type="line"/>
      <point x="209.0" y="337.5" type="line"/>
      <point x="449.0" y="0.0" type="line"/>
      <point x="541.0" y="0.0" type="line"/>
      <point x="541.0" y="577.0" type="line"/>
      <point x="443.5" y="577.0" type="line"/>
      <point x="443.5" y="176.5" type="line"/>
      <point x="436.5" y="176.0" type="line"/>
      <point x="395.0" y="240.5" type="line"/>
      <point x="155.0" y="577.0" type="line"/>
      <point x="62.5" y="577.0" type="line"/>
    </contour>
    <contour>
      <point x="225.0" y="-172.0" type="line"/>
      <point x="308.0" y="-172.0" type="line"/>
      <point x="373.5" y="-53.5" type="line"/>
      <point x="265.0" y="-53.5" type="line"/>
    </contour>
  </outline>
</glyph>
<glyph name="Ndotaccent.sc" format="1">
  <advance width="603.5"/>
  <outline>
    <contour>
      <point x="62.5" y="0.0" type="line"/>
      <point x="160.0" y="0.0" type="line"/>
      <point x="160.0" y="402.5" type="line"/>
      <point x="167.0" y="402.0" type="line"/>
      <point x="209.0" y="337.5" type="line"/>
      <point x="449.0" y="0.0" type="line"/>
      <point x="541.0" y="0.0" type="line"/>
      <point x="541.0" y="577.0" type="line"/>
      <point x="443.5" y="577.0" type="line"/>
      <point x="443.5" y="176.5" type="line"/>
      <point x="436.5" y="176.0" type="line"/>
      <point x="395.0" y="240.5" type="line"/>
      <point x="155.0" y="577.0" type="line"/>
      <point x="62.5" y="577.0" type="line"/>
    </contour>
    <contour>
      <point x="299.0" y="623.0" type="curve" smooth="yes"/>
      <point x="340.5" y="623.0"/>
      <point x="361.0" y="640.5"/>
      <point x="361.0" y="682.5" type="curve" smooth="yes"/>
      <point x="361.0" y="723.5"/>
      <point x="340.5" y="740.5"/>
      <point x="299.0" y="740.5" type="curve" smooth="yes"/>
      <point x="257.0" y="740.5"/>
      <point x="237.5" y="723.5"/>
      <point x="237.5" y="682.5" type="curve" smooth="yes"/>
      <point x="237.5" y="640.5"/>
      <point x="257.0" y="623.0"/>
    </contour>
  </outline>
</glyph>
<glyph name="Ntilde.sc" format="1">
  <advance width="603.5"/>
  <outline>
    <contour>
      <point x="169.0" y="638.0" type="line"/>
      <point x="190.0" y="658.5"/>
      <point x="210.5" y="667.5"/>
      <point x="232.5" y="667.5" type="curve" smooth="yes"/>
      <point x="275.5" y="667.5"/>
      <point x="312.0" y="636.5"/>
      <point x="357.5" y="636.5" type="curve" smooth="yes"/>
      <point x="395.5" y="636.5"/>
      <point x="436.0" y="664.5"/>
      <point x="462.5" y="718.5" type="curve"/>
      <point x="440.5" y="735.5" type="line"/>
      <point x="421.0" y="714.0"/>
      <point x="402.0" y="705.5"/>
      <point x="381.0" y="705.5" type="curve" smooth="yes"/>
      <point x="337.0" y="705.5"/>
      <point x="301.5" y="736.0"/>
      <point x="256.0" y="736.0" type="curve" smooth="yes"/>
      <point x="218.0" y="736.0"/>
      <point x="177.0" y="707.0"/>
      <point x="149.0" y="655.5" type="curve"/>
    </contour>
    <contour>
      <point x="62.5" y="0.0" type="line"/>
      <point x="160.0" y="0.0" type="line"/>
      <point x="160.0" y="402.5" type="line"/>
      <point x="167.0" y="402.0" type="line"/>
      <point x="209.0" y="337.5" type="line"/>
      <point x="449.0" y="0.0" type="line"/>
      <point x="541.0" y="0.0" type="line"/>
      <point x="541.0" y="577.0" type="line"/>
      <point x="443.5" y="577.0" type="line"/>
      <point x="443.5" y="176.5" type="line"/>
      <point x="436.5" y="176.0" type="line"/>
      <point x="395.0" y="240.5" type="line"/>
      <point x="155.0" y="577.0" type="line"/>
      <point x="62.5" y="577.0" type="line"/>
    </contour>
  </outline>
</glyph>
<glyph name="OE.sc" format="1">
  <advance width="772.5"/>
  <outline>
    <contour>
      <point x="297.5" y="-5.5" type="curve" smooth="yes"/>
      <point x="326.0" y="-5.5"/>
      <point x="358.5" y="-4.0"/>
      <point x="382.5" y="0.0" type="curve"/>
      <point x="736.5" y="0.0" type="line"/>
      <point x="736.5" y="89.5" type="line"/>
      <point x="489.5" y="89.5" type="line"/>
      <point x="489.5" y="247.5" type="line"/>
      <point x="711.0" y="247.5" type="line"/>
      <point x="711.0" y="334.0" type="line"/>
      <point x="489.5" y="334.0" type="line"/>
      <point x="489.5" y="488.5" type="line"/>
      <point x="728.5" y="488.5" type="line"/>
      <point x="728.5" y="577.0" type="line"/>
      <point x="382.5" y="577.0" type="line"/>
      <point x="359.0" y="579.5"/>
      <point x="326.5" y="582.5"/>
      <point x="297.5" y="582.5" type="curve" smooth="yes"/>
      <point x="129.0" y="582.5"/>
      <point x="36.0" y="484.0"/>
      <point x="36.0" y="288.5" type="curve" smooth="yes"/>
      <point x="36.0" y="92.5"/>
      <point x="128.5" y="-5.5"/>
    </contour>
    <contour>
      <point x="309.5" y="85.5" type="curve" smooth="yes"/>
      <point x="187.5" y="85.5"/>
      <point x="145.0" y="140.0"/>
      <point x="145.0" y="288.0" type="curve" smooth="yes"/>
      <point x="145.0" y="435.0"/>
      <point x="188.0" y="491.0"/>
      <point x="308.5" y="491.0" type="curve" smooth="yes"/>
      <point x="331.0" y="491.0"/>
      <point x="357.0" y="489.5"/>
      <point x="381.0" y="486.0" type="curve"/>
      <point x="381.0" y="90.5" type="line"/>
      <point x="358.5" y="86.5"/>
      <point x="331.0" y="85.5"/>
    </contour>
  </outline>
</glyph>
<glyph name="O.sc" format="1">
  <advance width="579.0"/>
  <outline>
    <contour>
      <point x="306.5" y="-10.0" type="move" name="ogonek"/>
    </contour>
    <contour>
      <point x="306.5" y="760.0" type="move" name="topUC"/>
    </contour>
    <contour>
      <point x="306.5" y="0.0" type="move" name="bottom"/>
    </contour>
    <contour>
      <point x="289.5" y="-8.0" type="curve" smooth="yes"/>
      <point x="459.5" y="-8.0"/>
      <point x="542.5" y="88.5"/>
      <point x="542.5" y="288.0" type="curve" smooth="yes"/>
      <point x="542.5" y="488.5"/>
      <point x="459.5" y="585.0"/>
      <point x="289.5" y="585.0" type="curve" smooth="yes"/>
      <point x="120.0" y="585.0"/>
      <point x="36.5" y="487.0"/>
      <point x="36.5" y="288.0" type="curve" smooth="yes"/>
      <point x="36.5" y="89.5"/>
      <point x="120.0" y="-8.0"/>
    </contour>
    <contour>
      <point x="289.5" y="82.5" type="curve" smooth="yes"/>
      <point x="187.5" y="82.5"/>
      <point x="147.5" y="139.0"/>
      <point x="147.5" y="288.0" type="curve" smooth="yes"/>
      <point x="147.5" y="438.5"/>
      <point x="188.0" y="494.5"/>
      <point x="289.5" y="494.5" type="curve" smooth="yes"/>
      <point x="391.0" y="494.5"/>
      <point x="431.5" y="438.0"/>
      <point x="431.5" y="288.0" type="curve" smooth="yes"/>
      <point x="431.5" y="138.5"/>
      <point x="391.0" y="82.5"/>
    </contour>
  </outline>
</glyph>
<glyph name="Schwa.sc" format="1">
  <advance width="543.0"/>
  <outline>
    <contour>
      <point x="33.0" y="249.0" type="curve" smooth="yes"/>
      <point x="33.0" y="73.5"/>
      <point x="106.5" y="-7.5"/>
      <point x="247.5" y="-7.5" type="curve" smooth="yes"/>
      <point x="418.5" y="-7.5"/>
      <point x="507.0" y="103.5"/>
      <point x="507.0" y="295.5" type="curve" smooth="yes"/>
      <point x="507.0" y="486.0"/>
      <point x="412.0" y="587.5"/>
      <point x="234.0" y="587.5" type="curve" smooth="yes"/>
      <point x="172.0" y="587.5"/>
      <point x="108.5" y="575.0"/>
      <point x="57.0" y="556.5" type="curve"/>
      <point x="58.5" y="532.5"/>
      <point x="61.5" y="492.0"/>
      <point x="62.5" y="468.5" type="curve"/>
      <point x="119.0" y="486.5"/>
      <point x="174.0" y="494.5"/>
      <point x="224.0" y="494.5" type="curve" smooth="yes"/>
      <point x="334.5" y="494.5"/>
      <point x="387.5" y="448.0"/>
      <point x="395.5" y="327.0" type="curve"/>
      <point x="38.0" y="327.0" type="line"/>
      <point x="34.5" y="301.5"/>
      <point x="33.0" y="278.0"/>
    </contour>
    <contour>
      <point x="253.5" y="78.5" type="curve" smooth="yes"/>
      <point x="169.5" y="78.5"/>
      <point x="140.5" y="122.5"/>
      <point x="139.0" y="251.0" type="curve"/>
      <point x="396.5" y="251.0" type="line"/>
      <point x="390.5" y="132.5"/>
      <point x="342.5" y="78.5"/>
    </contour>
  </outline>
</glyph>
<glyph name="Tbar.sc" format="1">
  <advance width="466.5"/>
  <outline>
    <contour>
      <point x="81.0" y="262.0" type="line"/>
      <point x="179.0" y="262.0" type="line"/>
      <point x="179.0" y="0.0" type="line"/>
      <point x="287.5" y="0.0" type="line"/>
      <point x="287.5" y="262.0" type="line"/>
      <point x="391.0" y="262.0" type="line"/>
      <point x="391.0" y="323.5" type="line"/>
      <point x="287.5" y="323.5" type="line"/>
      <point x="287.5" y="484.0" type="line"/>
      <point x="445.5" y="484.0" type="line"/>
      <point x="445.5" y="577.0" type="line"/>
      <point x="21.0" y="577.0" type="line"/>
      <point x="21.0" y="484.0" type="line"/>
      <point x="179.0" y="484.0" type="line"/>
      <point x="179.0" y="323.5" type="line"/>
      <point x="81.0" y="323.5" type="line"/>
    </contour>
  </outline>
</glyph>
